Fraunces72ptSharp-LightItalic.ufo
<glyph name="exclam" format="2">
  <advance width="541.3466666666667"/>
  <unicode hex="0021"/>
  <outline>
    <contour>
      <point x="559.5466666666666" y="1469.04" type="curve" smooth="yes"/>
      <point x="504.1333333333332" y="1469.04"/>
      <point x="470.8800000000001" y="1440.0"/>
      <point x="459.42666666666673" y="1393.0533333333335" type="curve" smooth="yes"/>
      <point x="454.14666666666665" y="1374.0533333333333"/>
      <point x="451.19999999999993" y="1355.1866666666667"/>
      <point x="448.15999999999997" y="1335.0133333333335" type="curve" smooth="yes"/>
      <point x="247.82666666666663" y="429.1066666666667" type="line" smooth="yes"/>
      <point x="244.78666666666663" y="411.4800000000001"/>
      <point x="248.66666666666663" y="404.16"/>
      <point x="261.72" y="404.16" type="curve" smooth="yes"/>
      <point x="274.5466666666666" y="404.16"/>
      <point x="282.5733333333333" y="411.9066666666666"/>
      <point x="290.2666666666667" y="429.3333333333333" type="curve" smooth="yes"/>
      <point x="598.2133333333334" y="1333.08" type="line" smooth="yes"/>
      <point x="609.5825978388518" y="1359.06887362554"/>
      <point x="618.4133333333332" y="1384.5288888888888"/>
      <point x="621.1866666666666" y="1400.6133333333332" type="curve" smooth="yes"/>
      <point x="629.5066666666665" y="1439.574586129754"/>
      <point x="613.2" y="1469.04"/>
    </contour>
    <component base="period" xOffset="42.24" yOffset="5.8133333333333335"/>
  </outline>
</glyph>
<glyph name="numbersign" format="2">
  <advance width="1166.0933333333332"/>
  <unicode hex="0023"/>
  <outline>
    <contour>
      <point x="514.0133333333334" y="691.8266666666666" type="curve" smooth="yes"/>
      <point x="572.2133333333334" y="787.8"/>
      <point x="821.2400000000001" y="1276.0533333333333"/>
      <point x="876.2133333333334" y="1364.1733333333334" type="curve" smooth="yes"/>
      <point x="889.1999999999999" y="1385.2266666666665"/>
      <point x="888.0" y="1396.3866666666668"/>
      <point x="875.7333333333335" y="1400.12" type="curve" smooth="yes"/>
      <point x="861.56" y="1404.6"/>
      <point x="847.1600000000001" y="1396.3733333333332"/>
      <point x="834.08" y="1376.6533333333332" type="curve" smooth="yes"/>
      <point x="784.7200000000001" y="1291.493333333333"/>
      <point x="542.3866666666667" y="801.8399999999999"/>
      <point x="483.02666666666664" y="704.6533333333333" type="curve" smooth="yes"/>
      <point x="428.5066666666666" y="615.1999999999999"/>
      <point x="156.34666666666666" y="108.88"/>
      <point x="107.62666666666665" y="30.799999999999997" type="curve" smooth="yes"/>
      <point x="96.96000000000001" y="13.386666666666663"/>
      <point x="97.98666666666666" y="0.7733333333333332"/>
      <point x="110.90666666666668" y="-2.2133333333333334" type="curve" smooth="yes"/>
      <point x="126.03999999999999" y="-5.840000000000003"/>
      <point x="139.37333333333336" y="3.093333333333335"/>
      <point x="151.0" y="20.506666666666664" type="curve" smooth="yes"/>
      <point x="197.41333333333333" y="96.10666666666667"/>
      <point x="459.90666666666664" y="604.6400000000001"/>
    </contour>
    <contour>
      <point x="743.7200000000001" y="864.3733333333334" type="curve" smooth="yes"/>
      <point x="820.0" y="864.3733333333334"/>
      <point x="1131.2133333333334" y="857.8133333333333"/>
      <point x="1200.853333333333" y="857.2799999999999" type="curve" smooth="yes"/>
      <point x="1222.7466666666664" y="857.8133333333333"/>
      <point x="1237.7866666666669" y="865.2800000000001"/>
      <point x="1242.6933333333334" y="879.7599999999999" type="curve" smooth="yes"/>
      <point x="1246.7466666666664" y="893.28"/>
      <point x="1235.6" y="899.8400000000001"/>
      <point x="1214.7733333333335" y="899.8400000000001" type="curve" smooth="yes"/>
      <point x="1147.0933333333332" y="899.2"/>
      <point x="831.36" y="895.2800000000001"/>
      <point x="753.5733333333333" y="895.2800000000001" type="curve" smooth="yes"/>
      <point x="672.3333333333333" y="893.84"/>
      <point x="337.1466666666666" y="902.9866666666668"/>
      <point x="266.32" y="902.4533333333334" type="curve" smooth="yes"/>
      <point x="247.37333333333336" y="902.3466666666668"/>
      <point x="233.93333333333334" y="895.8933333333332"/>
      <point x="229.56000000000006" y="881.7333333333333" type="curve" smooth="yes"/>
      <point x="224.97333333333333" y="867.7866666666667"/>
      <point x="234.30666666666664" y="859.8933333333334"/>
      <point x="254.2666666666667" y="860.0" type="curve" smooth="yes"/>
      <point x="326.36" y="859.8933333333334"/>
      <point x="665.6133333333333" y="862.9333333333334"/>
    </contour>
    <contour>
      <point x="832.8666666666667" y="691.8266666666666" type="curve" smooth="yes"/>
      <point x="890.3466666666667" y="787.5999999999999"/>
      <point x="1140.0933333333335" y="1276.1466666666668"/>
      <point x="1194.3466666666666" y="1363.9733333333334" type="curve" smooth="yes"/>
      <point x="1207.6266666666663" y="1385.0266666666666"/>
      <point x="1206.8533333333335" y="1396.3866666666668"/>
      <point x="1194.16" y="1400.12" type="curve" smooth="yes"/>
      <point x="1179.9866666666665" y="1404.6"/>
      <point x="1166.1200000000001" y="1396.2799999999997"/>
      <point x="1153.2666666666664" y="1376.4533333333331" type="curve" smooth="yes"/>
      <point x="1102.8266666666666" y="1291.5866666666666"/>
      <point x="861.24" y="802.04"/>
      <point x="801.8799999999999" y="704.6533333333333" type="curve" smooth="yes"/>
      <point x="746.6133333333333" y="615.1066666666666"/>
      <point x="474.57333333333327" y="108.78666666666666"/>
      <point x="426.0533333333333" y="30.799999999999997" type="curve" smooth="yes"/>
      <point x="415.38666666666666" y="13.479999999999995"/>
      <point x="416.41333333333324" y="0.7733333333333332"/>
      <point x="429.4266666666667" y="-2.2133333333333334" type="curve" smooth="yes"/>
      <point x="444.89333333333326" y="-5.840000000000003"/>
      <point x="458.22666666666663" y="3.186666666666667"/>
      <point x="469.53333333333336" y="20.506666666666664" type="curve" smooth="yes"/>
      <point x="515.84" y="96.43999999999998"/>
      <point x="778.44" y="604.6400000000001"/>
    </contour>
    <contour>
      <point x="570.3333333333333" y="500.3333333333333" type="curve" smooth="yes"/>
      <point x="646.52" y="500.3333333333333"/>
      <point x="957.9733333333332" y="494.3066666666667"/>
      <point x="1027.1866666666667" y="493.6666666666668" type="curve" smooth="yes"/>
      <point x="1049.0800000000002" y="493.88000000000005"/>
      <point x="1064.6933333333334" y="501.6666666666667"/>
      <point x="1070.0266666666666" y="516.1466666666666" type="curve" smooth="yes"/>
      <point x="1073.2799999999997" y="529.6666666666667"/>
      <point x="1062.3066666666666" y="536.2266666666668"/>
      <point x="1041.9066666666665" y="536.2266666666668" type="curve" smooth="yes"/>
      <point x="974.4266666666666" y="535.16"/>
      <point x="658.1600000000001" y="531.24"/>
      <point x="580.8133333333334" y="531.24" type="curve" smooth="yes"/>
      <point x="499.2933333333334" y="529.9066666666666"/>
      <point x="163.96" y="538.9466666666667"/>
      <point x="94.08000000000001" y="538.84" type="curve" smooth="yes"/>
      <point x="74.6" y="538.84"/>
      <point x="60.733333333333334" y="531.9599999999999"/>
      <point x="56.46666666666666" y="517.8" type="curve" smooth="yes"/>
      <point x="52.30666666666666" y="503.8533333333333"/>
      <point x="61.213333333333324" y="495.96"/>
      <point x="81.06666666666666" y="496.38666666666666" type="curve" smooth="yes"/>
      <point x="152.97333333333336" y="495.96"/>
      <point x="492.5466666666666" y="499.0"/>
    </contour>
  </outline>
</glyph>
<glyph name="dollar" format="2">
  <advance width="1028.3200000000002"/>
  <unicode hex="0024"/>
  <outline>
    <contour>
      <point x="419.12" y="6.400000000000001" type="curve" smooth="yes"/>
      <point x="643.6933333333333" y="6.400000000000001"/>
      <point x="847.8533333333334" y="114.44"/>
      <point x="893.3066666666666" y="291.73333333333335" type="curve" smooth="yes"/>
      <point x="938.1066666666665" y="460.14666666666665"/>
      <point x="870.5199999999999" y="599.9333333333333"/>
      <point x="639.4266666666666" y="747.4666666666667" type="curve" smooth="yes"/>
      <point x="424.1333333333334" y="885.4533333333333"/>
      <point x="373.88000000000005" y="993.2533333333333"/>
      <point x="412.6" y="1134.3999999999999" type="curve" smooth="yes"/>
      <point x="448.9066666666667" y="1270.5333333333333"/>
      <point x="597.3733333333332" y="1362.9466666666665"/>
      <point x="777.9066666666666" y="1362.9466666666665" type="curve" smooth="yes"/>
      <point x="933.2" y="1362.9466666666665"/>
      <point x="999.5866666666667" y="1297.9866666666667"/>
      <point x="996.5999999999999" y="1171.5466666666664" type="curve" smooth="yes"/>
      <point x="994.1333333333333" y="1105.6266666666668" type="line" smooth="yes"/>
      <point x="990.7733333333334" y="1063.6933333333334"/>
      <point x="1009.3866666666669" y="1038.5200000000002"/>
      <point x="1047.7866666666666" y="1038.32" type="curve" smooth="yes"/>
      <point x="1088.2400000000002" y="1038.2266666666667"/>
      <point x="1121.7733333333335" y="1075.533333333333"/>
      <point x="1123.3733333333332" y="1139.0933333333332" type="curve" smooth="yes"/>
      <point x="1130.1999999999998" y="1284.706666666667"/>
      <point x="1014.8533333333334" y="1390.8"/>
      <point x="786.88" y="1390.8" type="curve" smooth="yes"/>
      <point x="532.5200000000001" y="1390.8"/>
      <point x="348.56" y="1259.2"/>
      <point x="302.12" y="1086.5733333333335" type="curve" smooth="yes"/>
      <point x="253.42666666666665" y="910.4933333333333"/>
      <point x="311.8933333333334" y="774.8800000000001"/>
      <point x="557.92" y="630.92" type="curve" smooth="yes"/>
      <point x="759.5066666666667" y="511.1333333333334"/>
      <point x="815.4933333333332" y="391.3866666666667"/>
      <point x="776.48" y="246.2933333333333" type="curve" smooth="yes"/>
      <point x="740.1333333333333" y="111.69333333333334"/>
      <point x="599.7199999999999" y="35.44"/>
      <point x="426.9466666666667" y="35.44" type="curve" smooth="yes"/>
      <point x="256.28000000000003" y="35.44"/>
      <point x="172.90666666666664" y="107.30666666666664"/>
      <point x="182.0666666666667" y="232.74666666666667" type="curve" smooth="yes"/>
      <point x="186.74666666666664" y="308.90666666666664" type="line" smooth="yes"/>
      <point x="191.0533333333333" y="360.84000000000003"/>
      <point x="174.70666666666665" y="387.64"/>
      <point x="139.09333333333333" y="387.64" type="curve" smooth="yes"/>
      <point x="98.13333333333331" y="387.64"/>
      <point x="62.89333333333333" y="349.72"/>
      <point x="58.65333333333334" y="274.28000000000003" type="curve" smooth="yes"/>
      <point x="46.2" y="115.66666666666669"/>
      <point x="180.01333333333335" y="6.400000000000001"/>
    </contour>
    <contour>
      <point x="622.0000000000001" y="711.2133333333334" type="line"/>
      <point x="775.4799999999999" y="1248.8799999999999"/>
      <point x="837.8266666666667" y="1399.1333333333334"/>
      <point x="857.68" y="1473.1200000000001" type="curve" smooth="yes"/>
      <point x="866.8933333333333" y="1501.8533333333335"/>
      <point x="856.1866666666666" y="1516.6933333333334"/>
      <point x="836.2133333333333" y="1516.6933333333334" type="curve" smooth="yes"/>
      <point x="815.0133333333333" y="1516.6933333333334"/>
      <point x="795.64" y="1501.7466666666667"/>
      <point x="787.2799999999999" y="1474.1333333333334" type="curve" smooth="yes"/>
      <point x="764.3466666666667" y="1391.9066666666668"/>
      <point x="743.6266666666668" y="1246.24"/>
      <point x="590.1866666666666" y="711.2133333333334" type="curve"/>
    </contour>
    <contour>
      <point x="575.9333333333333" y="682.3333333333334" type="line"/>
      <point x="425.08" y="155.1466666666667"/>
      <point x="367.6933333333333" y="10.760000000000002"/>
      <point x="345.03999999999996" y="-71.67999999999998" type="curve" smooth="yes"/>
      <point x="335.43999999999994" y="-101.8"/>
      <point x="345.29333333333335" y="-116.32000000000001"/>
      <point x="366.92" y="-116.32000000000001" type="curve" smooth="yes"/>
      <point x="388.6" y="-116.32000000000001"/>
      <point x="406.6933333333333" y="-101.32"/>
      <point x="416.18666666666667" y="-71.94666666666666" type="curve" smooth="yes"/>
      <point x="436.66666666666663" y="3.2000000000000064"/>
      <point x="457.24" y="153.03999999999996"/>
      <point x="608.1733333333333" y="682.3333333333334" type="curve"/>
    </contour>
  </outline>
</glyph>
<glyph name="ampersand" format="2">
  <advance width="1219.84"/>
  <unicode hex="0026"/>
  <outline>
    <contour>
      <point x="173.84" y="211.02666666666664" type="line" smooth="yes"/>
      <point x="9.880000000000003" y="77.69333333333336"/>
      <point x="-79.48" y="-53.946666666666644"/>
      <point x="-79.2" y="-195.48000000000005" type="curve" smooth="yes"/>
      <point x="-78.81333333333333" y="-309.8933333333334"/>
      <point x="-38.92" y="-358.46666666666675"/>
      <point x="15.040000000000006" y="-358.08000000000004" type="curve" smooth="yes"/>
      <point x="56.71999999999998" y="-357.6933333333334"/>
      <point x="86.32" y="-327.67999999999995"/>
      <point x="86.02666666666663" y="-291.76" type="curve" smooth="yes"/>
      <point x="85.54666666666662" y="-241.03999999999994"/>
      <point x="6.306666666666672" y="-220.53333333333333"/>
      <point x="6.119999999999997" y="-128.74666666666667" type="curve" smooth="yes"/>
      <point x="5.733333333333334" y="-22.320000000000004"/>
      <point x="67.81333333333333" y="82.77333333333334"/>
      <point x="207.33333333333337" y="199.1866666666667" type="curve" smooth="yes"/>
      <point x="1094.8400000000001" y="923.1866666666667" type="line" smooth="yes"/>
      <point x="1276.7866666666666" y="1072.3066666666666"/>
      <point x="1339.8533333333332" y="1173.1866666666665"/>
      <point x="1339.5733333333333" y="1311.253333333333" type="curve" smooth="yes"/>
      <point x="1339.1866666666667" y="1407.8"/>
      <point x="1288.6266666666668" y="1465.9199999999998"/>
      <point x="1238.9866666666667" y="1465.4266666666667" type="curve" smooth="yes"/>
      <point x="1196.2933333333335" y="1465.04"/>
      <point x="1171.92" y="1434.493333333333"/>
      <point x="1172.2133333333331" y="1396.7600000000002" type="curve" smooth="yes"/>
      <point x="1172.6933333333334" y="1339.64"/>
      <point x="1249.1600000000003" y="1304.7733333333333"/>
      <point x="1249.3466666666666" y="1229.3733333333332" type="curve" smooth="yes"/>
      <point x="1249.8266666666668" y="1131.4533333333334"/>
      <point x="1206.5199999999998" y="1059.6666666666667"/>
      <point x="1069.3999999999999" y="942.3199999999999" type="curve" smooth="yes"/>
    </contour>
    <contour>
      <point x="999.9600000000002" y="360.6933333333333" type="curve" smooth="yes"/>
      <point x="997.6533333333335" y="195.4"/>
      <point x="835.9066666666666" y="20.933333333333316"/>
      <point x="624.0666666666666" y="20.933333333333316" type="curve" smooth="yes"/>
      <point x="417.6666666666666" y="20.933333333333316"/>
      <point x="279.24" y="194.90666666666664"/>
      <point x="334.2133333333333" y="521.56" type="curve" smooth="yes"/>
      <point x="386.33333333333326" y="836.16"/>
      <point x="542.8266666666667" y="1026.6000000000001"/>
      <point x="715.8" y="1026.6000000000001" type="curve" smooth="yes"/>
      <point x="818.0533333333333" y="1026.6000000000001"/>
      <point x="866.9333333333333" y="950.7733333333331"/>
      <point x="863.9866666666666" y="831.0666666666667" type="curve" smooth="yes"/>
      <point x="861.1466666666666" y="780.5733333333334"/>
      <point x="849.24" y="741.4933333333333"/>
      <point x="834.16" y="717.3066666666667" type="curve"/>
      <point x="882.0266666666666" y="753.36"/>
      <point x="918.5733333333335" y="768.1733333333334"/>
      <point x="963.0133333333334" y="769.0266666666666" type="curve" smooth="yes"/>
      <point x="986.9066666666669" y="769.88"/>
      <point x="1001.3466666666666" y="789.9200000000001"/>
      <point x="1002.1466666666668" y="822.3733333333334" type="curve" smooth="yes"/>
      <point x="1005.0133333333333" y="952.5199999999999"/>
      <point x="914.6" y="1057.6666666666665"/>
      <point x="741.0799999999999" y="1057.6666666666665" type="curve"/>
      <point x="478.06666666666666" y="1057.6666666666665"/>
      <point x="247.56" y="835.0666666666667"/>
      <point x="186.6666666666667" y="515.3066666666666" type="curve" smooth="yes"/>
      <point x="126.36000000000001" y="190.24"/>
      <point x="300.6" y="-20.213333333333335"/>
      <point x="574.3333333333334" y="-20.213333333333335" type="curve" smooth="yes"/>
      <point x="890.2266666666667" y="-20.213333333333335"/>
      <point x="1113.9066666666665" y="217.18666666666667"/>
      <point x="1118.333333333333" y="521.4266666666667" type="curve" smooth="yes"/>
      <point x="1119.9733333333331" y="582.0533333333335"/>
      <point x="1094.4" y="615.5600000000001"/>
      <point x="1049.6266666666666" y="615.5600000000001" type="curve" smooth="yes"/>
      <point x="998.3333333333331" y="615.5600000000001"/>
      <point x="965.4800000000001" y="574.24"/>
      <point x="964.4133333333334" y="532.04" type="curve" smooth="yes"/>
      <point x="962.6800000000001" y="477.76"/>
      <point x="1001.6000000000003" y="431.99999999999994"/>
    </contour>
  </outline>
</glyph>
<glyph name="quotesingle" format="2">
  <advance width="257.73333333333335"/>
  <unicode hex="0027"/>
  <outline>
    <contour>
      <point x="260.4533333333334" y="958.8" type="curve" smooth="yes"/>
      <point x="272.02666666666664" y="958.8"/>
      <point x="281.91999999999996" y="965.88"/>
      <point x="289.2533333333333" y="983.4133333333333" type="curve" smooth="yes"/>
      <point x="456.36000000000007" y="1438.5733333333333" type="line" smooth="yes"/>
      <point x="486.41333333333336" y="1513.1733333333336"/>
      <point x="471.71999999999997" y="1549.6666666666665"/>
      <point x="422.3866666666667" y="1549.6666666666665" type="curve" smooth="yes"/>
      <point x="372.9866666666666" y="1549.6666666666665"/>
      <point x="337.84" y="1510.4266666666667"/>
      <point x="327.77333333333337" y="1438.3733333333334" type="curve" smooth="yes"/>
      <point x="245.04000000000002" y="983.6266666666668" type="line" smooth="yes"/>
      <point x="242.15999999999997" y="966.6"/>
      <point x="249.41333333333336" y="958.8"/>
    </contour>
  </outline>
</glyph>
<glyph name="parenleft" format="2">
  <advance width="672.4133333333334"/>
  <unicode hex="0028"/>
  <outline>
    <contour>
      <point x="239.20000000000002" y="659.5733333333334" type="curve" smooth="yes"/>
      <point x="122.72" y="244.53333333333333"/>
      <point x="239.38666666666668" y="-116.16"/>
      <point x="419.9733333333333" y="-225.74666666666667" type="curve" smooth="yes"/>
      <point x="440.9733333333333" y="-236.93333333333334"/>
      <point x="457.67999999999995" y="-238.52"/>
      <point x="466.4" y="-229.45333333333335" type="curve" smooth="yes"/>
      <point x="473.66666666666663" y="-221.92"/>
      <point x="470.42666666666673" y="-211.22666666666666"/>
      <point x="452.13333333333327" y="-192.0533333333333" type="curve" smooth="yes"/>
      <point x="303.76" y="-39.41333333333333"/>
      <point x="255.7466666666666" y="296.50666666666666"/>
      <point x="357.5066666666667" y="659.5733333333333" type="curve" smooth="yes"/>
      <point x="450.09333333333336" y="988.7733333333333"/>
      <point x="620.6" y="1267.7466666666667"/>
      <point x="878.52" y="1435.1466666666665" type="curve" smooth="yes"/>
      <point x="907.5600000000001" y="1455.28"/>
      <point x="916.5733333333334" y="1464.5866666666664"/>
      <point x="914.5200000000001" y="1472.5466666666666" type="curve" smooth="yes"/>
      <point x="912.2133333333333" y="1482.0400000000004"/>
      <point x="893.6" y="1480.6666666666667"/>
      <point x="866.0266666666666" y="1468.8400000000001" type="curve" smooth="yes"/>
      <point x="587.9733333333334" y="1343.466666666667"/>
      <point x="342.40000000000003" y="1030.3466666666668"/>
    </contour>
  </outline>
</glyph>
<glyph name="asterisk" format="2">
  <advance width="1161.7066666666667"/>
  <unicode hex="002A"/>
  <outline>
    <contour>
      <point x="715.64" y="1027.4533333333334" type="line"/>
      <point x="777.3066666666666" y="1306.3999999999999"/>
      <point x="854.4533333333334" y="1405.373333333333"/>
      <point x="873.8133333333333" y="1482.24" type="curve" smooth="yes"/>
      <point x="885.8933333333334" y="1528.773333333333"/>
      <point x="869.68" y="1552.7866666666666"/>
      <point x="830.2266666666666" y="1552.7866666666666" type="curve" smooth="yes"/>
      <point x="787.4133333333333" y="1552.7866666666666"/>
      <point x="759.3866666666667" y="1528.7733333333333"/>
      <point x="747.6266666666668" y="1482.2399999999998" type="curve" smooth="yes"/>
      <point x="727.9466666666666" y="1405.5733333333335"/>
      <point x="753.5733333333333" y="1306.3999999999999"/>
      <point x="691.8" y="1027.4533333333334" type="curve"/>
    </contour>
    <contour>
      <point x="703.2666666666665" y="1037.5333333333333" type="curve"/>
      <point x="704.3466666666667" y="1015.9866666666669" type="line"/>
      <point x="961.12" y="1103.0933333333335"/>
      <point x="1070.4133333333334" y="1083.7866666666669"/>
      <point x="1149.3599999999997" y="1107.6133333333332" type="curve" smooth="yes"/>
      <point x="1196.92" y="1122.1466666666665"/>
      <point x="1220.8399999999997" y="1151.0666666666668"/>
      <point x="1217.4933333333333" y="1188.7200000000003" type="curve" smooth="yes"/>
      <point x="1215.3866666666665" y="1229.6266666666666"/>
      <point x="1189.8933333333332" y="1242.4"/>
      <point x="1141.533333333333" y="1227.9733333333334" type="curve" smooth="yes"/>
      <point x="1062.6800000000003" y="1204.466666666667"/>
      <point x="959.9599999999999" y="1124.1066666666666"/>
    </contour>
    <contour>
      <point x="710.3333333333334" y="1038.3866666666668" type="line"/>
      <point x="491.0533333333333" y="1124.9599999999998"/>
      <point x="429.8666666666667" y="1204.4666666666667"/>
      <point x="363.08" y="1227.9733333333334" type="curve" smooth="yes"/>
      <point x="322.72" y="1242.4"/>
      <point x="288.5733333333334" y="1227.9466666666667"/>
      <point x="267.2266666666667" y="1190.6133333333335" type="curve" smooth="yes"/>
      <point x="242.70666666666668" y="1150.2400000000002"/>
      <point x="252.35999999999996" y="1122.1466666666665"/>
      <point x="292.61333333333334" y="1107.6133333333335" type="curve" smooth="yes"/>
      <point x="359.4133333333334" y="1083.7866666666669"/>
      <point x="477.46666666666675" y="1103.5199999999998"/>
      <point x="697.3333333333334" y="1016.84" type="curve"/>
    </contour>
    <contour>
      <point x="695.1466666666665" y="1033.7200000000003" type="line"/>
      <point x="498.74666666666667" y="808.3066666666667"/>
      <point x="384.0533333333334" y="758.28"/>
      <point x="322.82666666666665" y="697.0533333333333" type="curve" smooth="yes"/>
      <point x="284.85333333333335" y="659.0266666666668"/>
      <point x="281.77333333333337" y="625.9733333333335"/>
      <point x="306.6933333333333" y="602.1466666666666" type="curve" smooth="yes"/>
      <point x="335.20000000000005" y="577.8133333333333"/>
      <point x="368.70666666666665" y="584.4933333333335"/>
      <point x="405.36" y="622.0533333333333" type="curve" smooth="yes"/>
      <point x="466.4" y="683.9866666666665"/>
      <point x="514.8933333333333" y="795.0933333333331"/>
      <point x="710.44" y="1021.4000000000002" type="curve"/>
    </contour>
    <contour>
      <point x="691.4800000000001" y="1020.9733333333335" type="line"/>
      <point x="790.0133333333333" y="795.0933333333332"/>
      <point x="779.76" y="684.1866666666666"/>
      <point x="808.24" y="622.0533333333334" type="curve" smooth="yes"/>
      <point x="825.9866666666667" y="584.4933333333335"/>
      <point x="858.1066666666667" y="578.6533333333333"/>
      <point x="894.7333333333332" y="601.2533333333334" type="curve" smooth="yes"/>
      <point x="935.9333333333333" y="627.0133333333333"/>
      <point x="947.2533333333333" y="659.0266666666666"/>
      <point x="930.3999999999999" y="697.0533333333333" type="curve" smooth="yes"/>
      <point x="901.92" y="758.1866666666668"/>
      <point x="813.4133333333332" y="808.3066666666666"/>
      <point x="714.2133333333334" y="1033.2933333333333" type="curve"/>
    </contour>
  </outline>
</glyph>
<glyph name="plus" format="2">
  <advance width="1006.5333333333332"/>
  <unicode hex="002B"/>
  <outline>
    <contour>
      <point x="473.56" y="309.7066666666667" type="curve" smooth="yes"/>
      <point x="489.3066666666667" y="309.41333333333336"/>
      <point x="502.04" y="318.85333333333335"/>
      <point x="506.33333333333326" y="331.65333333333336" type="curve" smooth="yes"/>
      <point x="686.7199999999999" y="1044.2266666666665" type="line" smooth="yes"/>
      <point x="690.8133333333334" y="1056.84"/>
      <point x="685.0266666666666" y="1067.7866666666669"/>
      <point x="668.5200000000001" y="1068.0800000000002" type="curve" smooth="yes"/>
      <point x="653.72" y="1068.5466666666669"/>
      <point x="641.4266666666667" y="1058.6933333333334"/>
      <point x="637.3333333333333" y="1046.8799999999999" type="curve" smooth="yes"/>
      <point x="456.52" y="334.84000000000003" type="line" smooth="yes"/>
      <point x="452.65333333333336" y="321.6"/>
      <point x="458.33333333333337" y="310.17333333333335"/>
    </contour>
    <component base="minus" xOffset="-2.506666666666664" yOffset="1.3599999999999999"/>
  </outline>
</glyph>
<glyph name="comma" format="2">
  <advance width="360.9866666666667"/>
  <unicode hex="002C"/>
  <outline>
    <contour>
      <point x="102.49333333333334" y="1.2799999999999991" type="curve" smooth="yes"/>
      <point x="134.81333333333328" y="2.220446049250313e-16" type="line" smooth="yes"/>
      <point x="158.81242718446603" y="-0.8533333333333335"/>
      <point x="167.43999999999994" y="-5.3066666666666675"/>
      <point x="161.19999999999996" y="-30.97333333333334" type="curve" smooth="yes"/>
      <point x="138.63999999999996" y="-130.00000000000003"/>
      <point x="57.093333333333334" y="-243.22666666666663"/>
      <point x="-54.33333333333334" y="-286.0133333333333" type="curve" smooth="yes"/>
      <point x="-73.04" y="-292.17333333333335"/>
      <point x="-78.05333333333334" y="-300.36"/>
      <point x="-77.86666666666667" y="-310.01333333333326" type="curve" smooth="yes"/>
      <point x="-76.18666666666667" y="-318.0266666666667"/>
      <point x="-66.86666666666667" y="-320.52"/>
      <point x="-47.81333333333333" y="-315.2533333333334" type="curve" smooth="yes"/>
      <point x="56.38666666666667" y="-278.1333333333333"/>
      <point x="188.13333333333324" y="-161.92"/>
      <point x="229.14666666666668" y="40.480000000000004" type="curve"/>
      <point x="248.23999999999998" y="133.04"/>
      <point x="219.88000000000005" y="184.1733333333333"/>
      <point x="160.33333333333334" y="184.1733333333333" type="curve" smooth="yes"/>
      <point x="97.82666666666665" y="184.1733333333333"/>
      <point x="46.746666666666655" y="138.0666666666666"/>
      <point x="38.63999999999999" y="85.39999999999999" type="curve" smooth="yes"/>
      <point x="29.786666666666665" y="37.45333333333333"/>
      <point x="55.613333333333316" y="2.8799999999999963"/>
    </contour>
  </outline>
</glyph>
<glyph name="hyphen" format="2">
  <advance width="665.0266666666666"/>
  <unicode hex="002D"/>
  <outline>
    <contour>
      <point x="582.3600000000001" y="540.7733333333334" type="curve" smooth="yes"/>
      <point x="129.69333333333333" y="540.7733333333334" type="line" smooth="yes"/>
      <point x="115.76000000000003" y="540.7733333333334"/>
      <point x="108.58666666666667" y="536.9866666666668"/>
      <point x="101.53333333333335" y="524.5466666666667" type="curve" smooth="yes"/>
      <point x="75.4" y="470.8533333333333" type="line" smooth="yes"/>
      <point x="67.89333333333335" y="457.32"/>
      <point x="72.69333333333333" y="448.6000000000001"/>
      <point x="89.37333333333335" y="448.6000000000001" type="curve" smooth="yes"/>
      <point x="538.7333333333333" y="448.6000000000001" type="line" smooth="yes"/>
      <point x="554.2666666666665" y="448.6000000000001"/>
      <point x="562.9333333333334" y="453.4533333333333"/>
      <point x="569.6666666666666" y="465.46666666666664" type="curve" smooth="yes"/>
      <point x="596.6533333333332" y="521.1333333333333" type="line" smooth="yes"/>
      <point x="603.7733333333333" y="533.4933333333332"/>
      <point x="598.6133333333332" y="540.7733333333334"/>
    </contour>
  </outline>
</glyph>
<glyph name="period" format="2">
  <advance width="356.97333333333324"/>
  <unicode hex="002E"/>
  <outline>
    <contour>
      <point x="105.86666666666665" y="-14.559999999999999" type="curve" smooth="yes"/>
      <point x="170.8933333333333" y="-14.559999999999999"/>
      <point x="221.39999999999998" y="32.07999999999999"/>
      <point x="229.87999999999994" y="86.62666666666665" type="curve" smooth="yes"/>
      <point x="238.78666666666666" y="136.76000000000002"/>
      <point x="211.73333333333332" y="176.13333333333333"/>
      <point x="156.97333333333333" y="176.13333333333333" type="curve" smooth="yes"/>
      <point x="94.18666666666668" y="176.13333333333333"/>
      <point x="41.06666666666668" y="130.17333333333335"/>
      <point x="32.16" y="73.62666666666665" type="curve" smooth="yes"/>
      <point x="23.680000000000003" y="23.786666666666672"/>
      <point x="52.62666666666665" y="-14.559999999999999"/>
    </contour>
  </outline>
</glyph>
<glyph name="slash" format="2">
  <advance width="831.1066666666667"/>
  <unicode hex="002F"/>
  <outline>
    <contour>
      <point x="462.94666666666666" y="611.8933333333333" type="curve" smooth="yes"/>
      <point x="570.0317452222199" y="816.3705870474494"/>
      <point x="822.2236928594723" y="1279.8200226135461"/>
      <point x="939.9333333333333" y="1508.7333333333333" type="curve" smooth="yes"/>
      <point x="952.2666666666664" y="1533.3466666666668"/>
      <point x="951.0" y="1556.1333333333337"/>
      <point x="934.8266666666668" y="1561.6133333333335" type="curve" smooth="yes"/>
      <point x="914.0400000000001" y="1568.146666666667"/>
      <point x="894.4533333333334" y="1555.72"/>
      <point x="879.9066666666665" y="1530.4533333333331" type="curve" smooth="yes"/>
      <point x="766.9733333333335" y="1314.0800000000004"/>
      <point x="531.1786517943542" y="835.9554582928799"/>
      <point x="422.56000000000006" y="626.0" type="curve" smooth="yes"/>
      <point x="315.2356442238041" y="418.20409368934526"/>
      <point x="59.32000000000001" y="-47.93333333333333"/>
      <point x="-52.61333333333333" y="-261.8933333333333" type="curve" smooth="yes"/>
      <point x="-67.37333333333333" y="-288.2133333333333"/>
      <point x="-64.26666666666667" y="-307.5866666666667"/>
      <point x="-44.30666666666667" y="-313.92" type="curve" smooth="yes"/>
      <point x="-23.78666666666667" y="-320.9866666666667"/>
      <point x="-4.199999999999999" y="-309.1866666666666"/>
      <point x="11.240000000000002" y="-283.4266666666667" type="curve" smooth="yes"/>
      <point x="127.29333333333335" y="-55.57333333333334"/>
      <point x="357.61751884249793" y="408.80912547805457"/>
    </contour>
  </outline>
</glyph>
<glyph name="zero" format="2">
  <advance width="1231.6"/>
  <unicode hex="0030"/>
  <outline>
    <contour>
      <point x="901.1704280247038" y="1420.8000000000002" type="curve" smooth="yes"/>
      <point x="584.9704280247039" y="1420.8000000000002"/>
      <point x="305.0353331881683" y="1147.6399999999999"/>
      <point x="181.8743840969876" y="708.9866666666668" type="curve" smooth="yes"/>
      <point x="57.51300673916132" y="264.50666666666666"/>
      <point x="171.68290530862947" y="-20.639999999999997"/>
      <point x="481.7229053086295" y="-20.639999999999997" type="curve" smooth="yes"/>
      <point x="785.7229053086295" y="-20.639999999999997"/>
      <point x="1074.4147418663786" y="235.42666666666668"/>
      <point x="1204.7708035393794" y="701.3466666666666" type="curve" smooth="yes"/>
      <point x="1327.8021058426586" y="1139.5599999999997"/>
      <point x="1212.7037613580371" y="1420.8000000000002"/>
    </contour>
    <contour>
      <point x="1050.53363355152" y="681.7333333333332" type="curve" smooth="yes"/>
      <point x="924.2768213330521" y="221.67999999999995"/>
      <point x="706.9371392965237" y="16.800000000000004"/>
      <point x="494.73713929652365" y="16.800000000000004" type="curve" smooth="yes"/>
      <point x="278.5771392965236" y="16.800000000000004"/>
      <point x="198.73735558752153" y="230.89333333333332"/>
      <point x="337.51957173335444" y="732.9200000000001" type="curve" smooth="yes"/>
      <point x="451.4015495275546" y="1143.2666666666664"/>
      <point x="654.4628607034764" y="1383.253333333333"/>
      <point x="886.0895273701431" y="1383.253333333333" type="curve" smooth="yes"/>
      <point x="1114.089527370143" y="1383.253333333333"/>
      <point x="1184.6773066670182" y="1170.56"/>
    </contour>
  </outline>
</glyph>
<glyph name="one" format="2">
  <advance width="791.9333333333333"/>
  <unicode hex="0031"/>
  <outline>
    <contour>
      <point x="368.64" y="1299.64" type="line" smooth="yes"/>
      <point x="349.4266666666666" y="1299.64"/>
      <point x="342.72" y="1307.4266666666667"/>
      <point x="346.7200000000001" y="1320.3333333333335" type="curve" smooth="yes"/>
      <point x="350.18666666666667" y="1332.0266666666664"/>
      <point x="362.44" y="1340.7066666666667"/>
      <point x="381.6" y="1340.7066666666667" type="curve" smooth="yes"/>
      <point x="562.4666666666666" y="1344.6" type="line" smooth="yes"/>
      <point x="629.8533333333334" y="1345.3999999999999"/>
      <point x="662.36" y="1358.6266666666668"/>
      <point x="707.68" y="1417.226666666667" type="curve" smooth="yes"/>
      <point x="721.5733333333334" y="1433.1333333333334"/>
      <point x="732.8" y="1440.32"/>
      <point x="744.4533333333334" y="1440.32" type="curve" smooth="yes"/>
      <point x="761.6266666666667" y="1440.32"/>
      <point x="768.5200000000001" y="1431.2266666666667"/>
      <point x="762.7466666666667" y="1412.4533333333334" type="curve" smooth="yes"/>
      <point x="396.2266666666667" y="98.87999999999997" type="line" smooth="yes"/>
      <point x="388.2266666666667" y="72.96000000000001"/>
      <point x="394.8133333333333" y="56.25333333333335"/>
      <point x="429.1466666666666" y="53.26666666666669" type="curve" smooth="yes"/>
      <point x="594.68" y="34.46666666666666" type="line" smooth="yes"/>
      <point x="609.28" y="32.29333333333332"/>
      <point x="616.7333333333332" y="27.12"/>
      <point x="614.6533333333332" y="17.746666666666666" type="curve" smooth="yes"/>
      <point x="613.0" y="5.773333333333333"/>
      <point x="602.6133333333333" y="0.0"/>
      <point x="585.3733333333334" y="0.0" type="curve" smooth="yes"/>
      <point x="-4.93333333333333" y="0.0" type="line" smooth="yes"/>
      <point x="-20.93333333333333" y="0.0"/>
      <point x="-28.61333333333334" y="6.519999999999997"/>
      <point x="-26.533333333333335" y="17.279999999999998" type="curve" smooth="yes"/>
      <point x="-24.453333333333333" y="27.87999999999998"/>
      <point x="-14.21333333333333" y="34.77333333333331"/>
      <point x="1.6133333333333297" y="36.25333333333334" type="curve" smooth="yes"/>
      <point x="194.44000000000003" y="53.89333333333335" type="line" smooth="yes"/>
      <point x="223.49333333333334" y="56.05333333333331"/>
      <point x="246.12" y="72.4266666666667"/>
      <point x="255.34666666666664" y="100.15999999999997" type="curve" smooth="yes"/>
      <point x="574.2266666666666" y="1245.7866666666666" type="line" smooth="yes"/>
      <point x="585.8533333333334" y="1283.7733333333333"/>
      <point x="576.6800000000002" y="1295.746666666667"/>
      <point x="546.8666666666667" y="1295.746666666667" type="curve" smooth="yes"/>
    </contour>
  </outline>
</glyph>
<glyph name="two" format="2">
  <advance width="1076.16"/>
  <unicode hex="0032"/>
  <outline>
    <contour>
      <point x="147.10666666666663" y="212.25333333333336" type="line"/>
      <point x="479.1733333333333" y="410.50666666666666" type="line" smooth="yes"/>
      <point x="929.0357058224728" y="689.8806250675266"/>
      <point x="1088.0063370092978" y="848.1060311513763"/>
      <point x="1139.6133333333332" y="1033.6266666666666" type="curve" smooth="yes"/>
      <point x="1202.4821562098105" y="1257.2340223278877"/>
      <point x="1101.44" y="1421.4400000000003"/>
      <point x="845.7333333333333" y="1421.4400000000003" type="curve" smooth="yes"/>
      <point x="573.4533333333331" y="1421.4400000000003"/>
      <point x="364.00687407448896" y="1247.6002743499591"/>
      <point x="314.3333333333333" y="1073.08" type="curve" smooth="yes"/>
      <point x="295.4933333333333" y="1007.0933333333334"/>
      <point x="315.1066666666666" y="973.0666666666666"/>
      <point x="361.59999999999997" y="973.0666666666666" type="curve"/>
      <point x="408.35999999999996" y="973.0666666666666"/>
      <point x="448.9200000000001" y="1006.9066666666666"/>
      <point x="466.64" y="1070.9066666666665" type="curve" smooth="yes"/>
      <point x="488.1066666666667" y="1147.4133333333336" type="line" smooth="yes"/>
      <point x="525.027931290903" y="1276.3553982489896"/>
      <point x="643.0533333333333" y="1386.8"/>
      <point x="817.7333333333333" y="1386.8" type="curve" smooth="yes"/>
      <point x="973.6666666666666" y="1386.8"/>
      <point x="1055.8266666666668" y="1266.1066666666666"/>
      <point x="993.48" y="1041.3999999999999" type="curve" smooth="yes"/>
      <point x="932.0000000000001" y="820.16"/>
      <point x="775.7199999999999" y="649.4666666666668"/>
      <point x="411.45333333333326" y="414.8666666666666" type="curve" smooth="yes"/>
      <point x="133.92" y="236.62666666666664" type="line"/>
    </contour>
    <contour>
      <point x="6.453333333333335" y="76.77333333333333" type="curve" smooth="yes"/>
      <point x="-10.279999999999996" y="16.279999999999998"/>
      <point x="9.079999999999997" y="-14.77333333333333"/>
      <point x="47.8" y="-14.77333333333333" type="curve" smooth="yes"/>
      <point x="93.97333333333333" y="-14.77333333333333"/>
      <point x="130.54666666666665" y="12.639999999999995"/>
      <point x="157.85333333333335" y="92.79999999999998" type="curve" smooth="yes"/>
      <point x="190.7515426355517" y="202.0916793278401"/>
      <point x="229.08" y="245.41333333333336"/>
      <point x="280.04" y="245.41333333333336" type="curve" smooth="yes"/>
      <point x="323.92" y="245.41333333333336"/>
      <point x="358.2891654973719" y="217.74959911881243"/>
      <point x="413.68000000000006" y="150.82666666666665" type="curve" smooth="yes"/>
      <point x="485.1333333333334" y="28.240000000000006"/>
      <point x="548.76" y="-17.493333333333325"/>
      <point x="654.1999999999999" y="-17.493333333333325" type="curve" smooth="yes"/>
      <point x="779.9333333333334" y="-17.493333333333325"/>
      <point x="878.3333333333334" y="50.613333333333344"/>
      <point x="970.2533333333333" y="252.53333333333336" type="curve" smooth="yes"/>
      <point x="978.3333333333335" y="268.56"/>
      <point x="975.3466666666667" y="276.4"/>
      <point x="964.4133333333333" y="278.04" type="curve" smooth="yes"/>
      <point x="955.2800000000003" y="279.57333333333327"/>
      <point x="946.3200000000002" y="275.6666666666666"/>
      <point x="937.3066666666666" y="262.6933333333334" type="curve" smooth="yes"/>
      <point x="874.1466666666668" y="151.92000000000002"/>
      <point x="816.8266666666666" y="112.55999999999996"/>
      <point x="722.9599999999999" y="112.55999999999996" type="curve" smooth="yes"/>
      <point x="580.2933333333332" y="112.55999999999996"/>
      <point x="450.82666666666665" y="280.45333333333326"/>
      <point x="295.1733333333333" y="280.45333333333326" type="curve" smooth="yes"/>
      <point x="148.72" y="280.45333333333326"/>
      <point x="37.62666666666667" y="189.02666666666667"/>
    </contour>
  </outline>
</glyph>
<glyph name="three" format="2">
  <advance width="986.8266666666666"/>
  <unicode hex="0033"/>
  <outline>
    <contour>
      <point x="479.4768" y="748.0" type="line"/>
      <point x="1137.6474666666668" y="1333.4" type="line" smooth="yes"/>
      <point x="1162.5621333333333" y="1352.9733333333331"/>
      <point x="1177.549066666667" y="1365.2533333333336"/>
      <point x="1181.1757333333335" y="1378.0133333333333" type="curve" smooth="yes"/>
      <point x="1185.1224000000002" y="1391.4799999999998"/>
      <point x="1176.6117333333334" y="1400.0"/>
      <point x="1160.0626666666665" y="1400.0" type="curve" smooth="yes"/>
      <point x="452.23466666666667" y="1400.0" type="line" smooth="yes"/>
      <point x="423.14453333333324" y="1400.0"/>
      <point x="406.52693333333326" y="1386.426666666667"/>
      <point x="395.92853333333335" y="1364.4133333333334" type="curve" smooth="yes"/>
      <point x="295.70133333333337" y="1134.8533333333335" type="line" smooth="yes"/>
      <point x="287.4421333333334" y="1116.4266666666665"/>
      <point x="293.45360000000005" y="1107.8666666666666"/>
      <point x="306.21573333333333" y="1107.2400000000002" type="curve" smooth="yes"/>
      <point x="318.1245333333334" y="1107.1466666666668"/>
      <point x="328.62373333333335" y="1114.4533333333334"/>
      <point x="335.96106666666657" y="1127.2000000000003" type="curve" smooth="yes"/>
      <point x="406.8813333333334" y="1246.6399999999999" type="line" smooth="yes"/>
      <point x="424.6416" y="1274.2533333333333"/>
      <point x="441.6325333333333" y="1284.6000000000001"/>
      <point x="471.05839999999995" y="1284.6000000000001" type="curve" smooth="yes"/>
      <point x="1053.6621333333333" y="1284.6000000000001" type="line"/>
      <point x="1059.5218666666667" y="1311.72" type="line"/>
      <point x="465.96773333333334" y="782.9866666666668" type="line" smooth="yes"/>
      <point x="446.19573333333335" y="767.6266666666667"/>
      <point x="434.22586666666666" y="758.64"/>
      <point x="430.6525333333333" y="747.2533333333333" type="curve" smooth="yes"/>
      <point x="426.5992" y="734.6800000000001"/>
      <point x="433.9669333333333" y="726.8666666666664"/>
      <point x="452.44346666666667" y="726.8666666666664" type="curve" smooth="yes"/>
      <point x="513.2751999999999" y="726.8666666666664" type="line" smooth="yes"/>
      <point x="737.7981333333335" y="726.8666666666664"/>
      <point x="825.3890666666667" y="604.7600000000001"/>
      <point x="755.5882666666666" y="352.9333333333334" type="curve" smooth="yes"/>
      <point x="694.7704000000001" y="137.06666666666666"/>
      <point x="536.2144000000002" y="13.480000000000032"/>
      <point x="363.9597333333333" y="13.106666666666705" type="curve" smooth="yes"/>
      <point x="195.71999999999997" y="12.306666666666707"/>
      <point x="129.7144" y="85.85333333333332"/>
      <point x="164.51199999999997" y="211.14666666666665" type="curve" smooth="yes"/>
      <point x="187.12613333333326" y="288.64000000000004" type="line" smooth="yes"/>
      <point x="202.14453333333336" y="340.42666666666673"/>
      <point x="183.79546666666667" y="376.4133333333333"/>
      <point x="137.48986666666667" y="376.4133333333333" type="curve" smooth="yes"/>
      <point x="93.25013333333334" y="376.4133333333333"/>
      <point x="51.03760000000001" y="337.2266666666667"/>
      <point x="34.66426666666667" y="265.6133333333333" type="curve" smooth="yes"/>
      <point x="-5.762399999999995" y="106.69333333333334"/>
      <point x="97.40426666666667" y="-21.386666666666663"/>
      <point x="346.0021333333334" y="-21.386666666666663" type="curve" smooth="yes"/>
      <point x="611.3482666666666" y="-21.386666666666663"/>
      <point x="834.4056" y="137.94666666666666"/>
      <point x="903.4368000000001" y="378.4666666666667" type="curve" smooth="yes"/>
      <point x="976.9637333333333" y="636.0933333333334"/>
      <point x="845.3525333333333" y="770.68"/>
      <point x="554.6637333333334" y="767.5866666666665" type="curve" smooth="yes"/>
      <point x="538.7696" y="767.3866666666665"/>
      <point x="499.00453333333337" y="766.2533333333333"/>
      <point x="483.05733333333325" y="764.68" type="curve"/>
    </contour>
  </outline>
</glyph>
<glyph name="four" format="2">
  <advance width="1030.44"/>
  <unicode hex="0034"/>
  <outline>
    <contour>
      <point x="725.3466666666668" y="818.4399999999998" type="curve" smooth="yes"/>
      <point x="525.16" y="98.98666666666665" type="line" smooth="yes"/>
      <point x="515.8133333333334" y="70.86666666666667"/>
      <point x="495.05333333333334" y="54.51999999999999"/>
      <point x="464.2533333333334" y="51.30666666666668" type="curve" smooth="yes"/>
      <point x="330.58666666666664" y="36.626666666666644" type="line" smooth="yes"/>
      <point x="313.6933333333333" y="34.93333333333333"/>
      <point x="302.8666666666667" y="28.359999999999996"/>
      <point x="299.1866666666667" y="17.493333333333332" type="curve" smooth="yes"/>
      <point x="296.1466666666666" y="6.160000000000003"/>
      <point x="302.81333333333333" y="-5.551115123125783e-17"/>
      <point x="320.25333333333333" y="-5.551115123125783e-17" type="curve" smooth="yes"/>
      <point x="803.1333333333333" y="-5.551115123125783e-17" type="line" smooth="yes"/>
      <point x="820.9066666666666" y="-5.551115123125783e-17"/>
      <point x="830.5466666666666" y="6.7333333333333325"/>
      <point x="834.0133333333334" y="17.69333333333334" type="curve" smooth="yes"/>
      <point x="837.2666666666667" y="28.07999999999999"/>
      <point x="829.7599999999999" y="34.49333333333334"/>
      <point x="814.9999999999999" y="36.81333333333335" type="curve" smooth="yes"/>
      <point x="697.84" y="50.70666666666665" type="line" smooth="yes"/>
      <point x="667.4399999999999" y="54.22666666666665"/>
      <point x="655.1600000000001" y="70.19999999999996"/>
      <point x="663.7999999999998" y="97.33333333333331" type="curve" smooth="yes"/>
      <point x="900.1466666666668" y="951.2133333333334" type="line" smooth="yes"/>
      <point x="903.7866666666669" y="962.9733333333334"/>
      <point x="900.2533333333333" y="968.8400000000001"/>
      <point x="891.9733333333334" y="968.8400000000001" type="curve" smooth="yes"/>
      <point x="883.3733333333332" y="968.8400000000001"/>
      <point x="877.0133333333334" y="965.2666666666667"/>
      <point x="864.9999999999999" y="955.8799999999999" type="curve" smooth="yes"/>
      <point x="752.5333333333333" y="856.8266666666666" type="line" smooth="yes"/>
      <point x="740.24" y="846.48"/>
      <point x="730.5333333333333" y="834.9866666666667"/>
    </contour>
    <contour>
      <point x="709.0800000000002" y="1054.2533333333333" type="curve" smooth="yes"/>
      <point x="34.26666666666668" y="416.2666666666666" type="line" smooth="yes"/>
      <point x="16.52" y="403.52000000000004"/>
      <point x="9.200000000000005" y="394.06666666666666"/>
      <point x="6.266666666666671" y="385.18666666666667" type="curve" smooth="yes"/>
      <point x="1.7866666666666648" y="373.0"/>
      <point x="9.32" y="363.82666666666665"/>
      <point x="27.866666666666674" y="363.82666666666665" type="curve" smooth="yes"/>
      <point x="925.4133333333334" y="363.4" type="line" smooth="yes"/>
      <point x="943.0666666666667" y="363.4"/>
      <point x="954.1733333333332" y="371.22666666666663"/>
      <point x="957.8533333333334" y="384.0266666666667" type="curve" smooth="yes"/>
      <point x="961.2133333333333" y="396.82666666666665"/>
      <point x="953.1333333333334" y="401.64000000000004"/>
      <point x="938.4266666666665" y="401.64000000000004" type="curve" smooth="yes"/>
      <point x="46.68" y="401.64000000000004" type="line"/>
      <point x="48.16" y="383.4533333333333" type="line"/>
      <point x="808.1466666666666" y="1093.1466666666668" type="line" smooth="yes"/>
      <point x="911.1866666666666" y="1182.7866666666664"/>
      <point x="957.72" y="1241.0533333333335"/>
      <point x="975.2666666666668" y="1314.0" type="curve" smooth="yes"/>
      <point x="991.48" y="1378.44"/>
      <point x="963.0799999999999" y="1417.9733333333331"/>
      <point x="907.6" y="1417.9733333333331" type="curve" smooth="yes"/>
      <point x="845.6666666666667" y="1417.9733333333331"/>
      <point x="796.9466666666666" y="1375.8133333333333"/>
      <point x="780.32" y="1317.04" type="curve" smooth="yes"/>
      <point x="763.6800000000001" y="1256.8400000000001"/>
      <point x="800.44" y="1212.2933333333333"/>
      <point x="782.4533333333334" y="1151.6266666666668" type="curve" smooth="yes"/>
      <point x="772.5466666666669" y="1114.4133333333334"/>
      <point x="745.3066666666667" y="1085.12"/>
    </contour>
  </outline>
</glyph>
<glyph name="five" format="2">
  <advance width="1021.2266666666669"/>
  <unicode hex="0035"/>
  <outline>
    <contour>
      <point x="72.96854266666666" y="276.2933333333333" type="curve" smooth="yes"/>
      <point x="31.84854266666666" y="114.42666666666668"/>
      <point x="144.38654266666663" y="-21.386666666666663"/>
      <point x="383.9665853333333" y="-21.386666666666663" type="curve" smooth="yes"/>
      <point x="645.4469746666667" y="-21.386666666666663"/>
      <point x="878.7215239999999" y="150.05333333333334"/>
      <point x="955.1487453333332" y="415.68" type="curve" smooth="yes"/>
      <point x="1026.2153106666667" y="664.7066666666666"/>
      <point x="915.6487773333333" y="837.1866666666667"/>
      <point x="672.0790280000001" y="837.1866666666667" type="curve" smooth="yes"/>
      <point x="512.5663453333333" y="837.1866666666667"/>
      <point x="357.89819066666666" y="750.2933333333333"/>
      <point x="241.66260666666668" y="609.8933333333333" type="curve"/>
      <point x="255.31818533333342" y="606.3866666666668" type="line"/>
      <point x="456.83995066666665" y="1323.7599999999998" type="line"/>
      <point x="433.31901733333336" y="1303.6933333333334" type="line"/>
      <point x="521.0390016889353" y="1223.4682232673235"/>
      <point x="654.0664903263311" y="1172.9999999999998"/>
      <point x="810.9390573333334" y="1172.9999999999998" type="curve" smooth="yes"/>
      <point x="999.9857240000001" y="1172.9999999999998"/>
      <point x="1139.8091906666668" y="1251.6533333333334"/>
      <point x="1214.8227906666666" y="1402.3466666666668" type="curve" smooth="yes"/>
      <point x="1225.7638573333334" y="1419.28"/>
      <point x="1223.2190573333335" y="1425.1466666666665"/>
      <point x="1217.5731906666667" y="1428.0" type="curve" smooth="yes"/>
      <point x="1209.6873240000002" y="1431.4933333333336"/>
      <point x="1199.7366573333334" y="1427.6666666666665"/>
      <point x="1186.3497240000002" y="1416.9866666666667" type="curve" smooth="yes"/>
      <point x="1122.1411906666665" y="1330.44"/>
      <point x="1010.4182573333334" y="1292.0133333333333"/>
      <point x="862.091324" y="1292.0133333333333" type="curve" smooth="yes"/>
      <point x="722.8877516276837" y="1292.0133333333333"/>
      <point x="611.5689946155533" y="1340.3485800643405"/>
      <point x="511.6157053333334" y="1413.6933333333334" type="curve" smooth="yes"/>
      <point x="499.2844786666666" y="1421.1999999999998"/>
      <point x="489.79919333333333" y="1424.4800000000002"/>
      <point x="478.09093733333333" y="1424.4800000000002" type="curve" smooth="yes"/>
      <point x="453.049348" y="1424.4800000000002"/>
      <point x="436.9381906666666" y="1410.7733333333333"/>
      <point x="430.5529746666667" y="1390.1066666666668" type="curve" smooth="yes"/>
      <point x="206.35725200000002" y="588.8533333333332" type="line" smooth="yes"/>
      <point x="201.2350066666667" y="573.1066666666667"/>
      <point x="206.46391866666667" y="564.0666666666667"/>
      <point x="219.41362533333333" y="564.0666666666667" type="curve" smooth="yes"/>
      <point x="234.51593999999997" y="564.0666666666667"/>
      <point x="245.722676" y="571.7333333333335"/>
      <point x="263.3236093333333" y="585.2266666666668" type="curve" smooth="yes"/>
      <point x="366.6336306666667" y="712.3333333333334"/>
      <point x="503.2522866666667" y="796.5866666666665"/>
      <point x="626.719508" y="796.5866666666665" type="curve" smooth="yes"/>
      <point x="806.84338" y="796.5866666666665"/>
      <point x="884.8786493333332" y="658.4399999999999"/>
      <point x="813.622516" y="402.6266666666666" type="curve" smooth="yes"/>
      <point x="739.5226866666668" y="138.70666666666668"/>
      <point x="573.923444" y="13.106666666666705"/>
      <point x="403.22796666666665" y="13.106666666666705" type="curve" smooth="yes"/>
      <point x="233.025028" y="13.106666666666705"/>
      <point x="166.51874" y="91.13333333333333"/>
      <point x="201.51532133333333" y="216.85333333333332" type="curve" smooth="yes"/>
      <point x="222.1177053333333" y="289.70666666666665" type="line" smooth="yes"/>
      <point x="237.63059066666665" y="343.18666666666667"/>
      <point x="219.69525199999998" y="377.2133333333334"/>
      <point x="172.7594973333333" y="377.2133333333334" type="curve" smooth="yes"/>
      <point x="129.27655866666666" y="377.2133333333334"/>
      <point x="86.461876" y="336.4133333333333"/>
    </contour>
  </outline>
</glyph>
<glyph name="six" format="2">
  <advance width="1107.9999999999998"/>
  <unicode hex="0036"/>
  <outline>
    <contour>
      <point x="915.04" y="1421.4400000000005" type="curve" smooth="yes"/>
      <point x="611.2266666666667" y="1421.4400000000005"/>
      <point x="318.2266666666667" y="1176.5066666666667"/>
      <point x="172.17333333333337" y="664.52" type="curve" smooth="yes"/>
      <point x="45.866666666666674" y="224.6266666666667"/>
      <point x="172.4933333333333" y="-20.959999999999994"/>
      <point x="471.3999999999999" y="-20.959999999999994" type="curve" smooth="yes"/>
      <point x="729.5599999999998" y="-20.959999999999994"/>
      <point x="958.2266666666667" y="158.32000000000002"/>
      <point x="1033.573333333333" y="422.0" type="curve" smooth="yes"/>
      <point x="1110.9066666666663" y="691.7866666666666"/>
      <point x="980.1466666666666" y="849.9733333333334"/>
      <point x="742.3066666666667" y="849.9733333333334" type="curve" smooth="yes"/>
      <point x="524.5466666666665" y="849.9733333333334"/>
      <point x="302.29333333333335" y="696.6533333333333"/>
      <point x="233.6666666666667" y="461.20000000000005" type="curve"/>
      <point x="258.4933333333333" y="452.16" type="line"/>
      <point x="319.1199999999999" y="660.9333333333334"/>
      <point x="517.8133333333333" y="804.9333333333334"/>
      <point x="688.1999999999999" y="804.9333333333334" type="curve" smooth="yes"/>
      <point x="874.7866666666666" y="804.9333333333334"/>
      <point x="961.7066666666666" y="672.4800000000001"/>
      <point x="889.7866666666666" y="411.01333333333326" type="curve" smooth="yes"/>
      <point x="817.2" y="148.76000000000002"/>
      <point x="663.68" y="15.520000000000003"/>
      <point x="483.32" y="15.520000000000003" type="curve" smooth="yes"/>
      <point x="279.23999999999995" y="15.520000000000003"/>
      <point x="182.76" y="183.78666666666663"/>
      <point x="315.36" y="656.1333333333333" type="curve" smooth="yes"/>
      <point x="463.5466666666666" y="1181.6933333333332"/>
      <point x="691.4" y="1384.5333333333333"/>
      <point x="897.0266666666666" y="1384.5333333333333" type="curve" smooth="yes"/>
      <point x="1040.28" y="1384.5333333333333"/>
      <point x="1091.16" y="1315.186666666667"/>
      <point x="1059.9733333333334" y="1204.64" type="curve" smooth="yes"/>
      <point x="1042.0666666666666" y="1141.8933333333332" type="line" smooth="yes"/>
      <point x="1024.4666666666665" y="1080.2133333333334"/>
      <point x="1043.5866666666664" y="1047.813333333333"/>
      <point x="1094.4533333333334" y="1047.813333333333" type="curve" smooth="yes"/>
      <point x="1145.0266666666664" y="1047.813333333333"/>
      <point x="1184.8133333333335" y="1085.9466666666665"/>
      <point x="1200.2266666666665" y="1154.0400000000002" type="curve" smooth="yes"/>
      <point x="1235.7466666666667" y="1295.466666666667"/>
      <point x="1133.0533333333335" y="1421.4400000000005"/>
    </contour>
  </outline>
</glyph>
<glyph name="seven" format="2">
  <advance width="919.7333333333333"/>
  <unicode hex="0037"/>
  <outline>
    <contour>
      <point x="1072.5466666666666" y="1296.0666666666668" type="line"/>
      <point x="621.3199999999999" y="726.3199999999999" type="line" smooth="yes"/>
      <point x="417.25333333333333" y="500.8666666666667"/>
      <point x="279.839664086614" y="334.37485068491657"/>
      <point x="230.72" y="166.09333333333333" type="curve" smooth="yes"/>
      <point x="195.28" y="43.239999999999995"/>
      <point x="220.22666666666666" y="-16.773333333333326"/>
      <point x="287.70666666666665" y="-16.773333333333326" type="curve" smooth="yes"/>
      <point x="347.66666666666663" y="-16.773333333333326"/>
      <point x="391.2" y="20.359999999999996"/>
      <point x="407.62666666666667" y="74.96" type="curve" smooth="yes"/>
      <point x="428.31999999999994" y="148.21333333333334"/>
      <point x="370.3733333333333" y="223.96"/>
      <point x="399.4133333333333" y="322.85333333333335" type="curve" smooth="yes"/>
      <point x="432.1983825573702" y="435.04287446445795"/>
      <point x="526.76" y="563.8933333333333"/>
      <point x="678.9866666666667" y="728.68" type="curve" smooth="yes"/>
      <point x="1146.44" y="1331.9066666666668" type="line" smooth="yes"/>
      <point x="1167.6266666666668" y="1350.1866666666672"/>
      <point x="1176.7866666666669" y="1363.48"/>
      <point x="1180.2533333333333" y="1375.7866666666666" type="curve" smooth="yes"/>
      <point x="1185.1066666666668" y="1390.48"/>
      <point x="1176.7466666666664" y="1400.0"/>
      <point x="1151.2666666666664" y="1400.0" type="curve" smooth="yes"/>
      <point x="405.2266666666667" y="1400.0" type="line" smooth="yes"/>
      <point x="379.4266666666666" y="1400.0"/>
      <point x="364.78666666666663" y="1388.2666666666667"/>
      <point x="355.30666666666673" y="1367.2933333333335" type="curve" smooth="yes"/>
      <point x="253.01333333333338" y="1131.0133333333333" type="line" smooth="yes"/>
      <point x="244.06666666666666" y="1112.4800000000002"/>
      <point x="249.3733333333333" y="1104.3066666666666"/>
      <point x="262.25333333333333" y="1103.7866666666666" type="curve" smooth="yes"/>
      <point x="275.06666666666666" y="1103.5866666666668"/>
      <point x="285.71999999999997" y="1111.2533333333333"/>
      <point x="294.0666666666667" y="1124.1066666666666" type="curve" smooth="yes"/>
      <point x="364.8933333333333" y="1245.04" type="line" smooth="yes"/>
      <point x="379.2933333333333" y="1266.6533333333334"/>
      <point x="393.3333333333333" y="1277.8266666666666"/>
      <point x="421.20000000000005" y="1277.8266666666666" type="curve" smooth="yes"/>
      <point x="1075.5333333333333" y="1277.8266666666666" type="line"/>
    </contour>
  </outline>
</glyph>
<glyph name="eight" format="2">
  <advance width="1032.8933333333332"/>
  <unicode hex="0038"/>
  <outline>
    <contour>
      <point x="390.33333333333326" y="-22.453333333333333" type="curve" smooth="yes"/>
      <point x="643.5866666666667" y="-22.453333333333333"/>
      <point x="855.04" y="110.25333333333332"/>
      <point x="911.36" y="300.7333333333334" type="curve" smooth="yes"/>
      <point x="957.4933333333332" y="460.7066666666667"/>
      <point x="884.56" y="588.4400000000002"/>
      <point x="642.36" y="701.3199999999999" type="curve" smooth="yes"/>
      <point x="415.91999999999985" y="804.88"/>
      <point x="358.8666666666667" y="925.12"/>
      <point x="410.4266666666667" y="1099.8533333333335" type="curve" smooth="yes"/>
      <point x="458.96000000000004" y="1262.773333333333"/>
      <point x="626.1333333333332" y="1386.0400000000002"/>
      <point x="805.0266666666668" y="1386.0400000000002" type="curve" smooth="yes"/>
      <point x="1000.2133333333334" y="1386.0400000000002"/>
      <point x="1088.8133333333333" y="1246.6400000000003"/>
      <point x="1021.9600000000002" y="1031.8533333333332" type="curve" smooth="yes"/>
      <point x="970.6400000000002" y="861.0"/>
      <point x="829.64" y="732.1466666666669"/>
      <point x="660.2800000000001" y="655.9200000000001" type="curve"/>
      <point x="670.2266666666667" y="638.2266666666667" type="line"/>
      <point x="888.0" y="698.2666666666665"/>
      <point x="1086.4800000000002" y="850.9200000000001"/>
      <point x="1142.4666666666665" y="1037.8666666666668" type="curve" smooth="yes"/>
      <point x="1210.5333333333335" y="1265.7199999999998"/>
      <point x="1090.3066666666666" y="1421.3466666666668"/>
      <point x="827.3999999999999" y="1421.3466666666668" type="curve" smooth="yes"/>
      <point x="572.0666666666667" y="1421.3466666666668"/>
      <point x="336.52000000000004" y="1258.3066666666668"/>
      <point x="277.0" y="1051.0666666666668" type="curve" smooth="yes"/>
      <point x="218.32" y="845.9866666666668"/>
      <point x="300.17333333333335" y="722.0266666666668"/>
      <point x="546.7733333333333" y="605.7066666666667" type="curve" smooth="yes"/>
      <point x="758.0400000000001" y="511.8"/>
      <point x="819.0133333333333" y="410.56"/>
      <point x="775.12" y="263.9866666666667" type="curve" smooth="yes"/>
      <point x="730.0799999999999" y="112.72000000000001"/>
      <point x="586.8133333333334" y="11.82666666666666"/>
      <point x="412.66666666666674" y="11.82666666666666" type="curve" smooth="yes"/>
      <point x="229.39999999999998" y="11.82666666666666"/>
      <point x="136.04" y="115.61333333333332"/>
      <point x="199.9333333333333" y="329.1066666666666" type="curve" smooth="yes"/>
      <point x="235.6266666666667" y="449.67999999999995"/>
      <point x="347.2266666666667" y="586.6"/>
      <point x="512.8666666666667" y="646.2533333333332" type="curve"/>
      <point x="508.22666666666663" y="665.0933333333332" type="line"/>
      <point x="271.0933333333333" y="608.3066666666666"/>
      <point x="116.96000000000001" y="453.2533333333334"/>
      <point x="76.79999999999998" y="320.76000000000005" type="curve" smooth="yes"/>
      <point x="17.17333333333334" y="114.74666666666666"/>
      <point x="133.8666666666667" y="-22.453333333333333"/>
    </contour>
  </outline>
</glyph>
<glyph name="nine" format="2">
  <advance width="1105.3999999999999"/>
  <unicode hex="0039"/>
  <outline>
    <contour>
      <point x="368.6266666666666" y="-20.959999999999994" type="curve" smooth="yes"/>
      <point x="671.3733333333332" y="-20.959999999999994"/>
      <point x="953.8666666666668" y="228.9866666666667"/>
      <point x="1102.6933333333336" y="735.1066666666668" type="curve" smooth="yes"/>
      <point x="1232.9466666666667" y="1176.7066666666665"/>
      <point x="1106.64" y="1421.4400000000005"/>
      <point x="808.7466666666667" y="1421.4400000000005" type="curve" smooth="yes"/>
      <point x="551.0133333333334" y="1421.4400000000005"/>
      <point x="317.22666666666663" y="1239.9199999999998"/>
      <point x="241.02666666666667" y="974.7466666666667" type="curve" smooth="yes"/>
      <point x="165.87999999999997" y="707.84"/>
      <point x="296.0533333333333" y="549.5466666666666"/>
      <point x="533.7866666666669" y="549.5466666666666" type="curve" smooth="yes"/>
      <point x="752.4000000000001" y="549.5466666666666"/>
      <point x="973.6933333333333" y="702.8666666666667"/>
      <point x="1042.32" y="938.2133333333333" type="curve"/>
      <point x="1017.92" y="947.3600000000001" type="line"/>
      <point x="957.1333333333333" y="738.5866666666666"/>
      <point x="758.6" y="594.5866666666666"/>
      <point x="588.3199999999999" y="594.5866666666666" type="curve" smooth="yes"/>
      <point x="402.6933333333333" y="594.5866666666666"/>
      <point x="314.7066666666666" y="727.2533333333333"/>
      <point x="386.41333333333324" y="989.04" type="curve" smooth="yes"/>
      <point x="458.73333333333335" y="1251.72"/>
      <point x="616.5733333333334" y="1384.96"/>
      <point x="796.8266666666667" y="1384.96" type="curve" smooth="yes"/>
      <point x="1000.5866666666667" y="1384.96"/>
      <point x="1097.1733333333334" y="1216.906666666667"/>
      <point x="961.6933333333334" y="746.6933333333333" type="curve" smooth="yes"/>
      <point x="810.5733333333333" y="221.24"/>
      <point x="592.3733333333333" y="15.946666666666673"/>
      <point x="386.5333333333333" y="15.946666666666673" type="curve" smooth="yes"/>
      <point x="241.41333333333336" y="15.946666666666673"/>
      <point x="179.86666666666662" y="86.09333333333333"/>
      <point x="210.73333333333332" y="196.31999999999996" type="curve" smooth="yes"/>
      <point x="229.01333333333332" y="260.24" type="line" smooth="yes"/>
      <point x="246.13333333333333" y="320.74666666666667"/>
      <point x="227.76000000000002" y="352.77333333333326"/>
      <point x="178.5466666666666" y="352.77333333333326" type="curve" smooth="yes"/>
      <point x="127.86666666666665" y="352.77333333333326"/>
      <point x="88.98666666666668" y="314.64"/>
      <point x="72.34666666666666" y="246.54666666666662" type="curve" smooth="yes"/>
      <point x="36.45333333333336" y="105.01333333333334"/>
      <point x="150.08" y="-20.959999999999994"/>
    </contour>
  </outline>
</glyph>
<glyph name="less" format="2">
  <advance width="945.6666666666666"/>
  <unicode hex="003C"/>
  <outline>
    <contour>
      <point x="208.38666666666666" y="684.6666666666667" type="line"/>
      <point x="792.9333333333334" y="294.44" type="line" smooth="yes"/>
      <point x="806.7901834606198" y="287.1143696160247"/>
      <point x="812.1915833989591" y="278.09966692916964"/>
      <point x="809.8800000000001" y="269.2266666666667" type="curve" smooth="yes"/>
      <point x="807.6533333333333" y="260.32"/>
      <point x="799.5333333333334" y="255.49333333333334"/>
      <point x="786.1466666666665" y="255.49333333333334" type="curve" smooth="yes"/>
      <point x="775.1066666666667" y="255.49333333333334"/>
      <point x="765.2266666666667" y="260.4266666666667"/>
      <point x="750.8799999999999" y="268.66666666666663" type="curve" smooth="yes"/>
      <point x="178.67999999999998" y="646.8666666666667" type="line" smooth="yes"/>
      <point x="160.97333333333336" y="656.3333333333334"/>
      <point x="153.54666666666665" y="669.1333333333333"/>
      <point x="158.26666666666665" y="685.9866666666667" type="curve" smooth="yes"/>
      <point x="162.56" y="701.5066666666665"/>
      <point x="177.21333333333334" y="713.08"/>
      <point x="201.48000000000002" y="722.5999999999999" type="curve" smooth="yes"/>
      <point x="953.5999999999999" y="1100.04" type="line" smooth="yes"/>
      <point x="971.3199999999999" y="1106.9733333333334"/>
      <point x="983.8533333333334" y="1111.2933333333333"/>
      <point x="995.1333333333333" y="1111.2933333333333" type="curve" smooth="yes"/>
      <point x="1008.1733333333335" y="1111.2933333333333"/>
      <point x="1013.3199999999998" y="1102.84"/>
      <point x="1010.0400000000001" y="1092.1200000000001" type="curve" smooth="yes"/>
      <point x="1006.7201325350634" y="1083.533863473587"/>
      <point x="996.311114189518" y="1074.3175691815188"/>
      <point x="977.5600000000001" y="1066.8000000000002" type="curve" smooth="yes"/>
      <point x="206.37333333333333" y="678.56" type="line"/>
    </contour>
  </outline>
</glyph>
<glyph name="question" format="2">
  <advance width="804.3199999999998"/>
  <unicode hex="003F"/>
  <outline>
    <contour>
      <point x="333.32" y="628.4533333333334" type="line" smooth="yes"/>
      <point x="342.40000000000003" y="667.1066666666667"/>
      <point x="359.21333333333337" y="693.7600000000001"/>
      <point x="402.1866666666666" y="714.0933333333334" type="curve" smooth="yes"/>
      <point x="462.17333333333335" y="741.7333333333333" type="line" smooth="yes"/>
      <point x="652.5009204980892" y="834.1314636791989"/>
      <point x="745.0106823467354" y="958.6262186068943"/>
      <point x="797.36" y="1144.346666666667" type="curve" smooth="yes"/>
      <point x="850.56" y="1333.4533333333331"/>
      <point x="783.6933333333334" y="1425.013333333333"/>
      <point x="652.1866666666667" y="1425.013333333333" type="curve" smooth="yes"/>
      <point x="508.7733333333333" y="1425.013333333333"/>
      <point x="416.58666666666664" y="1349.2133333333336"/>
      <point x="384.09333333333325" y="1236.5466666666666" type="curve" smooth="yes"/>
      <point x="365.0133333333333" y="1169.16" type="line" smooth="yes"/>
      <point x="349.5199999999999" y="1118.0133333333335"/>
      <point x="313.18666666666667" y="1089.9866666666667"/>
      <point x="268.85333333333335" y="1089.9866666666667" type="curve" smooth="yes"/>
      <point x="226.67999999999998" y="1089.9866666666667"/>
      <point x="206.51999999999998" y="1125.04"/>
      <point x="220.92" y="1175.9733333333334" type="curve" smooth="yes"/>
      <point x="263.0933333333333" y="1327.6266666666668"/>
      <point x="455.50666666666666" y="1464.0"/>
      <point x="667.48" y="1464.0" type="curve" smooth="yes"/>
      <point x="890.6400000000002" y="1464.0"/>
      <point x="993.8266666666666" y="1335.0400000000002"/>
      <point x="937.0799999999998" y="1134.88" type="curve" smooth="yes"/>
      <point x="886.6330059598763" y="952.5282848016556"/>
      <point x="754.212646910211" y="807.2379367451665"/>
      <point x="512.8266666666666" y="710.0533333333333" type="curve" smooth="yes"/>
      <point x="456.73333333333335" y="689.3466666666666" type="line" smooth="yes"/>
      <point x="416.14666666666676" y="674.1066666666666"/>
      <point x="399.6000000000001" y="652.5733333333334"/>
      <point x="388.16" y="616.72" type="curve" smooth="yes"/>
      <point x="325.2666666666667" y="406.2266666666666" type="line" smooth="yes"/>
      <point x="316.8533333333334" y="387.8133333333334"/>
      <point x="306.62666666666667" y="379.28000000000003"/>
      <point x="293.76000000000005" y="379.28000000000003" type="curve" smooth="yes"/>
      <point x="280.48" y="379.28000000000003"/>
      <point x="275.0133333333334" y="388.65333333333336"/>
      <point x="277.6933333333333" y="406.6933333333333" type="curve" smooth="yes"/>
    </contour>
    <component base="period" xOffset="79.89333333333333" yOffset="-2.0400000000000005"/>
  </outline>
</glyph>
<glyph name="at" format="2">
  <advance width="1567.5866666666666"/>
  <unicode hex="0040"/>
  <outline>
    <contour>
      <point x="565.24" y="422.19999999999993" type="curve" smooth="yes"/>
      <point x="601.4533333333334" y="715.1866666666667"/>
      <point x="824.2266666666668" y="979.7066666666667"/>
      <point x="1046.2266666666667" y="979.7066666666667" type="curve" smooth="yes"/>
      <point x="1091.08" y="979.7066666666667"/>
      <point x="1106.1333333333334" y="955.8399999999998"/>
      <point x="1097.3066666666664" y="908.3199999999999" type="curve" smooth="yes"/>
      <point x="1006.04" y="495.46666666666647"/>
      <point x="801.9599999999999" y="207.57333333333332"/>
      <point x="656.6666666666667" y="207.57333333333332" type="curve" smooth="yes"/>
      <point x="588.6666666666666" y="207.57333333333332"/>
      <point x="542.8933333333332" y="269.0"/>
    </contour>
    <contour>
      <point x="1044.44" y="149.33333333333334" type="curve" smooth="yes"/>
      <point x="1246.4812121212121" y="149.33333333333334"/>
      <point x="1461.1169699605807" y="315.88612505502505"/>
      <point x="1534.48" y="607.9333333333334" type="curve" smooth="yes"/>
      <point x="1655.5866666666666" y="1091.68"/>
      <point x="1417.7333333333336" y="1375.56"/>
      <point x="1044.1466666666665" y="1375.56" type="curve" smooth="yes"/>
      <point x="587.12" y="1375.56"/>
      <point x="228.04" y="1040.6933333333334"/>
      <point x="115.15999999999998" y="589.8133333333334" type="curve" smooth="yes"/>
      <point x="-12.986666666666661" y="79.50666666666667"/>
      <point x="233.81333333333333" y="-240.09333333333336"/>
      <point x="647.8399999999999" y="-240.09333333333336" type="curve" smooth="yes"/>
      <point x="925.5866666666667" y="-240.09333333333336"/>
      <point x="1199.1066666666666" y="-125.85333333333332"/>
      <point x="1403.2" y="86.56" type="curve" smooth="yes"/>
      <point x="1417.1066666666668" y="98.0"/>
      <point x="1424.32" y="110.74666666666668"/>
      <point x="1417.0" y="119.25333333333332" type="curve" smooth="yes"/>
      <point x="1409.28" y="128.2"/>
      <point x="1394.6933333333334" y="123.58666666666666"/>
      <point x="1380.0133333333335" y="112.21333333333335" type="curve" smooth="yes"/>
      <point x="1180.76" y="-89.13333333333335"/>
      <point x="923.7066666666668" y="-203.02666666666664"/>
      <point x="660.1866666666667" y="-203.02666666666664" type="curve" smooth="yes"/>
      <point x="263.14666666666665" y="-203.02666666666664"/>
      <point x="43.26666666666665" y="116.38666666666668"/>
      <point x="162.01333333333335" y="589.8133333333332" type="curve" smooth="yes"/>
      <point x="269.25333333333333" y="1022.3866666666667"/>
      <point x="609.6800000000001" y="1339.3466666666666"/>
      <point x="1031.2666666666667" y="1339.3466666666666" type="curve" smooth="yes"/>
      <point x="1381.6000000000001" y="1339.3466666666666"/>
      <point x="1600.4133333333334" y="1063.1733333333334"/>
      <point x="1486.7733333333335" y="607.2933333333333" type="curve" smooth="yes"/>
      <point x="1420.1719652727872" y="334.83691002583316"/>
      <point x="1235.6672941176469" y="199.97333333333336"/>
      <point x="1097.4533333333331" y="199.97333333333336" type="curve" smooth="yes"/>
      <point x="1051.0666666666666" y="199.97333333333336"/>
      <point x="1029.6266666666666" y="235.27999999999997"/>
      <point x="1059.1733333333334" y="350.1333333333332" type="curve" smooth="yes"/>
      <point x="1202.9333333333336" y="907.2133333333333" type="line" smooth="yes"/>
      <point x="1210.0266666666669" y="930.0266666666666"/>
      <point x="1237.36" y="938.8666666666666"/>
      <point x="1238.2133333333331" y="962.7733333333334" type="curve" smooth="yes"/>
      <point x="1239.28" y="991.48"/>
      <point x="1181.0666666666666" y="1019.6"/>
      <point x="1069.92" y="1019.6" type="curve" smooth="yes"/>
      <point x="771.5066666666667" y="1019.6"/>
      <point x="479.3866666666666" y="738.8533333333334"/>
      <point x="447.6" y="429.7333333333333" type="curve" smooth="yes"/>
      <point x="421.57333333333327" y="231.09333333333333"/>
      <point x="488.38666666666654" y="149.22666666666666"/>
      <point x="598.4533333333335" y="149.22666666666666" type="curve" smooth="yes"/>
      <point x="766.6266666666668" y="149.22666666666666"/>
      <point x="921.6533333333334" y="332.92"/>
      <point x="1038.3999999999996" y="625.4266666666666" type="curve"/>
      <point x="1030.1733333333334" y="637.1066666666666" type="line"/>
      <point x="959.0266666666666" y="397.0533333333334"/>
      <point x="937.6133333333332" y="304.5733333333333"/>
      <point x="933.7733333333333" y="252.51999999999995" type="curve" smooth="yes"/>
      <point x="926.9466666666669" y="186.04000000000005"/>
      <point x="965.5466666666669" y="149.33333333333334"/>
    </contour>
  </outline>
</glyph>
<glyph name="A" format="2">
  <advance width="1152.8933333333334"/>
  <unicode hex="0041"/>
  <anchor x="965.7199999999999" y="1532.0" name="center"/>
  <outline>
    <contour>
      <point x="176.06666666666666" y="199.0533333333333" type="curve" smooth="yes"/>
      <point x="778.3066666666667" y="1164.0400000000002" type="line" smooth="yes"/>
      <point x="827.92" y="1232.3466666666668"/>
      <point x="859.0666666666666" y="1262.5066666666667"/>
      <point x="876.8533333333334" y="1274.96" type="curve"/>
      <point x="855.1600000000001" y="1282.0266666666664" type="line"/>
      <point x="853.4666666666668" y="1149.56"/>
      <point x="804.48" y="241.62666666666658"/>
      <point x="797.8666666666667" y="109.89333333333329" type="curve" smooth="yes"/>
      <point x="795.6933333333333" y="76.66666666666669"/>
      <point x="781.6" y="59.626666666666665"/>
      <point x="748.1866666666666" y="52.96000000000003" type="curve" smooth="yes"/>
      <point x="642.1999999999999" y="34.33333333333332" type="line" smooth="yes"/>
      <point x="630.9066666666668" y="31.25333333333333"/>
      <point x="623.0666666666667" y="24.893333333333327"/>
      <point x="623.0666666666667" y="16.10666666666667" type="curve" smooth="yes"/>
      <point x="623.0666666666666" y="6.786666666666672"/>
      <point x="631.8666666666666" y="0.0"/>
      <point x="644.24" y="0.0" type="curve" smooth="yes"/>
      <point x="1023.08" y="0.0" type="line" smooth="yes"/>
      <point x="1041.2800000000002" y="0.0"/>
      <point x="1049.9599999999998" y="7.320000000000007"/>
      <point x="1049.96" y="17.48" type="curve" smooth="yes"/>
      <point x="1049.96" y="25.52"/>
      <point x="1043.8400000000001" y="31.55999999999998"/>
      <point x="1030.7866666666669" y="34.30666666666668" type="curve" smooth="yes"/>
      <point x="952.2666666666665" y="50.06666666666665"/>
      <point x="931.4799999999999" y="67.78666666666666"/>
      <point x="931.7333333333333" y="109.17333333333329" type="curve" smooth="yes"/>
      <point x="932.7733333333333" y="232.55999999999997"/>
      <point x="977.6266666666667" y="1148.0933333333332"/>
      <point x="980.2799999999999" y="1258.9466666666667" type="curve" smooth="yes"/>
      <point x="984.8799999999999" y="1335.36"/>
      <point x="1019.7066666666668" y="1375.5866666666666"/>
      <point x="1070.2" y="1380.0666666666666" type="curve" smooth="yes"/>
      <point x="1086.1733333333334" y="1382.6266666666666"/>
      <point x="1093.16" y="1389.7066666666667"/>
      <point x="1093.16" y="1399.5733333333335" type="curve" smooth="yes"/>
      <point x="1093.5333333333333" y="1411.1066666666666"/>
      <point x="1083.4666666666667" y="1418.12"/>
      <point x="1060.1200000000001" y="1418.12" type="curve" smooth="yes"/>
      <point x="961.0799999999998" y="1418.12"/>
      <point x="859.3066666666666" y="1350.9066666666668"/>
      <point x="746.6133333333333" y="1188.28" type="curve" smooth="yes"/>
      <point x="121.22666666666669" y="200.2933333333333" type="line" smooth="yes"/>
      <point x="60.29333333333332" y="99.10666666666665"/>
      <point x="8.839999999999975" y="52.69333333333331"/>
      <point x="-43.879999999999995" y="44.33333333333333" type="curve" smooth="yes"/>
      <point x="-66.64000000000001" y="37.439999999999976"/>
      <point x="-77.09333333333333" y="30.746666666666655"/>
      <point x="-77.09333333333333" y="19.01333333333333" type="curve" smooth="yes"/>
      <point x="-77.09333333333333" y="6.479999999999995"/>
      <point x="-67.12" y="0.0"/>
      <point x="-45.46666666666668" y="0.0" type="curve" smooth="yes"/>
      <point x="249.76000000000002" y="0.0" type="line" smooth="yes"/>
      <point x="267.98666666666657" y="0.0"/>
      <point x="278.9066666666667" y="7.106666666666669"/>
      <point x="278.9066666666667" y="19.200000000000006" type="curve" smooth="yes"/>
      <point x="278.90666666666664" y="28.186666666666646"/>
      <point x="272.1333333333333" y="35.2"/>
      <point x="257.21333333333325" y="38.16" type="curve" smooth="yes"/>
      <point x="208.35999999999999" y="44.24" type="line" smooth="yes"/>
      <point x="146.9733333333333" y="54.1466666666667"/>
      <point x="122.69333333333333" y="111.53333333333333"/>
    </contour>
    <contour>
      <point x="311.3066666666667" y="459.9866666666667" type="line"/>
      <point x="867.5999999999998" y="459.9866666666667" type="line"/>
      <point x="870.2933333333334" y="494.01333333333326" type="line"/>
      <point x="328.29333333333335" y="494.01333333333326" type="line"/>
    </contour>
  </outline>
</glyph>
<glyph name="B" format="2">
  <advance width="1200.92"/>
  <unicode hex="0042"/>
  <outline>
    <contour>
      <point x="635.5066666666668" y="1286.6133333333335" type="curve" smooth="yes"/>
      <point x="649.9466666666667" y="1338.24"/>
      <point x="680.7066666666667" y="1364.6933333333332"/>
      <point x="784.0799999999999" y="1364.6933333333332" type="curve" smooth="yes"/>
      <point x="975.2933333333335" y="1364.6933333333332"/>
      <point x="1086.4000000000003" y="1254.1466666666665"/>
      <point x="1056.9199999999998" y="1055.7999999999997" type="curve" smooth="yes"/>
      <point x="1023.4266666666666" y="821.6666666666667"/>
      <point x="858.1866666666667" y="673.7866666666666"/>
      <point x="634.6666666666667" y="673.7866666666666" type="curve" smooth="yes"/>
      <point x="427.17333333333335" y="673.7866666666666" type="line"/>
      <point x="414.96" y="642.0" type="line"/>
      <point x="648.1333333333332" y="642.0" type="line" smooth="yes"/>
      <point x="860.5599999999998" y="642.0"/>
      <point x="968.6800000000001" y="532.6399999999999"/>
      <point x="942.16" y="353.26666666666665" type="curve" smooth="yes"/>
      <point x="913.4666666666666" y="155.7733333333333"/>
      <point x="758.8666666666666" y="34.88000000000001"/>
      <point x="509.5199999999999" y="34.88000000000001" type="curve" smooth="yes"/>
      <point x="362.8533333333333" y="34.88000000000001"/>
      <point x="309.41333333333336" y="60.399999999999984"/>
      <point x="322.50666666666666" y="116.05333333333333" type="curve" smooth="yes"/>
      <point x="380.4" y="383.8133333333333"/>
      <point x="537.4533333333334" y="932.6"/>
    </contour>
    <contour>
      <point x="392.2533333333334" y="1400.0" type="line" smooth="yes"/>
      <point x="365.6" y="1400.0"/>
      <point x="352.9733333333333" y="1391.2933333333335"/>
      <point x="352.9733333333333" y="1378.9866666666667" type="curve" smooth="yes"/>
      <point x="352.9733333333333" y="1370.2000000000003"/>
      <point x="360.5733333333333" y="1365.4533333333334"/>
      <point x="378.77333333333337" y="1361.84" type="curve" smooth="yes"/>
      <point x="468.9866666666666" y="1348.8533333333335" type="line" smooth="yes"/>
      <point x="492.03999999999996" y="1343.6799999999998"/>
      <point x="503.82666666666665" y="1330.1066666666666"/>
      <point x="497.41333333333336" y="1296.52" type="curve" smooth="yes"/>
      <point x="447.8666666666666" y="1061.6933333333334"/>
      <point x="285.46666666666664" y="451.8666666666666"/>
      <point x="177.17333333333332" y="104.58666666666662" type="curve" smooth="yes"/>
      <point x="167.04" y="73.1466666666667"/>
      <point x="147.4666666666667" y="54.30666666666667"/>
      <point x="110.77333333333334" y="48.48000000000001" type="curve" smooth="yes"/>
      <point x="29.63999999999999" y="37.21333333333335" type="line" smooth="yes"/>
      <point x="5.759999999999998" y="33.386666666666656"/>
      <point x="-7.306666666666665" y="26.39999999999999"/>
      <point x="-7.306666666666665" y="16.653333333333347" type="curve" smooth="yes"/>
      <point x="-7.306666666666665" y="6.480000000000004"/>
      <point x="0.533333333333335" y="0.0"/>
      <point x="20.48" y="0.0" type="curve" smooth="yes"/>
      <point x="502.7999999999999" y="0.0" type="line" smooth="yes"/>
      <point x="861.5466666666667" y="0.0"/>
      <point x="1057.4266666666667" y="136.48"/>
      <point x="1084.4266666666667" y="344.85333333333335" type="curve" smooth="yes"/>
      <point x="1109.7466666666667" y="542.4"/>
      <point x="956.6533333333333" y="666.4"/>
      <point x="669.3066666666667" y="666.4" type="curve"/>
      <point x="680.8" y="657.5733333333333" type="line"/>
      <point x="943.9333333333334" y="657.5733333333333"/>
      <point x="1159.906666666667" y="814.0400000000001"/>
      <point x="1191.16" y="1043.12" type="curve" smooth="yes"/>
      <point x="1221.0933333333335" y="1266.2266666666667"/>
      <point x="1079.0800000000002" y="1400.0"/>
      <point x="798.12" y="1400.0" type="curve" smooth="yes"/>
    </contour>
  </outline>
</glyph>
<glyph name="C" format="2">
  <advance width="1222.7066666666665"/>
  <unicode hex="0043"/>
  <anchor x="934.2399999999999" y="1510.0" name="center"/>
  <outline>
    <contour>
      <point x="1122.92" y="373.33333333333337" type="curve" smooth="yes"/>
      <point x="1110.7333333333333" y="378.7466666666666"/>
      <point x="1097.2533333333336" y="370.2133333333333"/>
      <point x="1084.16" y="351.9866666666667" type="curve" smooth="yes"/>
      <point x="965.12" y="125.90666666666662"/>
      <point x="798.9066666666668" y="40.26666666666669"/>
      <point x="628.6399999999999" y="40.26666666666669" type="curve" smooth="yes"/>
      <point x="394.12000000000006" y="40.26666666666669"/>
      <point x="240.85333333333338" y="217.63999999999993"/>
      <point x="308.8133333333332" y="633.56" type="curve" smooth="yes"/>
      <point x="373.4133333333333" y="1031.24"/>
      <point x="621.6266666666667" y="1382.3733333333334"/>
      <point x="936.2533333333333" y="1382.3733333333334" type="curve" smooth="yes"/>
      <point x="1084.3333333333335" y="1382.3733333333334"/>
      <point x="1183.773333333333" y="1317.3333333333333"/>
      <point x="1231.8666666666666" y="1156.28" type="curve" smooth="yes"/>
      <point x="1260.0533333333337" y="1060.506666666667" type="line" smooth="yes"/>
      <point x="1265.2933333333333" y="1047.1200000000001"/>
      <point x="1273.08" y="1037.4800000000002"/>
      <point x="1286.4799999999998" y="1038.226666666667" type="curve" smooth="yes"/>
      <point x="1299.24" y="1039.0266666666669"/>
      <point x="1309.6133333333332" y="1047.6399999999999"/>
      <point x="1308.64" y="1063.946666666667" type="curve" smooth="yes"/>
      <point x="1299.1866666666665" y="1393.3999999999999" type="line" smooth="yes"/>
      <point x="1297.68" y="1411.853333333333"/>
      <point x="1289.76" y="1420.6666666666665"/>
      <point x="1276.2133333333334" y="1420.6666666666665" type="curve" smooth="yes"/>
      <point x="1252.5999999999997" y="1420.6666666666665"/>
      <point x="1210.7866666666666" y="1318.8666666666666"/>
      <point x="1186.1466666666668" y="1318.8666666666666" type="curve" smooth="yes"/>
      <point x="1165.8800000000003" y="1318.8666666666666"/>
      <point x="1107.1333333333332" y="1422.6133333333332"/>
      <point x="931.7733333333333" y="1422.6133333333332" type="curve" smooth="yes"/>
      <point x="546.2799999999999" y="1422.6133333333332"/>
      <point x="221.1066666666667" y="1048.6533333333334"/>
      <point x="154.02666666666667" y="625.1733333333334" type="curve" smooth="yes"/>
      <point x="87.53333333333333" y="203.2"/>
      <point x="283.4133333333333" y="-20.479999999999997"/>
      <point x="573.4533333333334" y="-20.479999999999997" type="curve" smooth="yes"/>
      <point x="815.2533333333333" y="-20.479999999999997"/>
      <point x="1009.1333333333332" y="101.42666666666666"/>
      <point x="1121.6400000000003" y="330.4533333333333" type="curve" smooth="yes"/>
      <point x="1134.0266666666666" y="352.67999999999995"/>
      <point x="1133.7466666666667" y="367.0133333333333"/>
    </contour>
  </outline>
</glyph>
<glyph name="D" format="2">
  <advance width="1383.9333333333332"/>
  <unicode hex="0044"/>
  <anchor x="957.1866666666667" y="1485.0" name="center"/>
  <outline>
    <contour>
      <point x="6.2933333333333366" y="17.453333333333326" type="curve" smooth="yes"/>
      <point x="6.293333333333338" y="7.280000000000003"/>
      <point x="12.053333333333335" y="0.0"/>
      <point x="30.186666666666678" y="0.0" type="curve" smooth="yes"/>
      <point x="493.03999999999985" y="0.0" type="line" smooth="yes"/>
      <point x="946.3866666666667" y="0.0"/>
      <point x="1292.8666666666668" y="290.4933333333334"/>
      <point x="1364.6266666666666" y="731.3199999999999" type="curve" smooth="yes"/>
      <point x="1432.1733333333332" y="1152.8666666666666"/>
      <point x="1184.72" y="1400.0"/>
      <point x="846.2666666666668" y="1400.0" type="curve" smooth="yes"/>
      <point x="390.12" y="1400.0" type="line" smooth="yes"/>
      <point x="368.74666666666667" y="1400.0"/>
      <point x="359.74666666666667" y="1393.1066666666668"/>
      <point x="359.7466666666666" y="1381.9733333333331" type="curve" smooth="yes"/>
      <point x="359.74666666666667" y="1370.8933333333337"/>
      <point x="366.28" y="1366.2533333333333"/>
      <point x="391.0933333333333" y="1361.8933333333334" type="curve" smooth="yes"/>
      <point x="466.95999999999987" y="1349.3866666666668" type="line" smooth="yes"/>
      <point x="504.41333333333336" y="1343.0933333333332"/>
      <point x="513.3733333333332" y="1327.5999999999997"/>
      <point x="503.7066666666667" y="1289.426666666667" type="curve" smooth="yes"/>
      <point x="440.1466666666666" y="1016.32"/>
      <point x="259.73333333333335" y="394.1066666666667"/>
      <point x="189.76000000000002" y="121.33333333333331" type="curve" smooth="yes"/>
      <point x="172.89333333333332" y="70.37333333333333"/>
      <point x="150.6" y="52.12000000000001"/>
      <point x="111.84" y="47.36000000000001" type="curve" smooth="yes"/>
      <point x="36.359999999999985" y="37.64000000000002" type="line" smooth="yes"/>
      <point x="15.306666666666665" y="34.39999999999999"/>
      <point x="6.293333333333338" y="28.053333333333327"/>
    </contour>
    <contour>
      <point x="501.12" y="39.03999999999999" type="curve" smooth="yes"/>
      <point x="386.1733333333333" y="39.03999999999999" type="line" smooth="yes"/>
      <point x="337.0680701754385" y="39.03999999999999"/>
      <point x="320.16076710723127" y="66.54674668488812"/>
      <point x="331.73333333333335" y="122.55999999999997" type="curve" smooth="yes"/>
      <point x="391.64" y="392.1199999999999"/>
      <point x="579.4533333333333" y="1024.1733333333336"/>
      <point x="649.7466666666667" y="1304.5333333333335" type="curve" smooth="yes"/>
      <point x="662.0" y="1345.8799999999999"/>
      <point x="684.7733333333333" y="1363.7333333333333"/>
      <point x="717.9733333333332" y="1363.7333333333333" type="curve" smooth="yes"/>
      <point x="841.9066666666668" y="1363.7333333333333" type="line" smooth="yes"/>
      <point x="1086.4779342723002" y="1363.7333333333333"/>
      <point x="1286.547309043896" y="1153.5685221263784"/>
      <point x="1217.7333333333331" y="736.7866666666667" type="curve" smooth="yes"/>
      <point x="1147.1200000000001" y="306.59999999999997"/>
      <point x="857.32" y="39.03999999999999"/>
    </contour>
  </outline>
</glyph>
<glyph name="E" format="2">
  <advance width="1163.7333333333331"/>
  <unicode hex="0045"/>
  <anchor x="858.0933333333334" y="1468.0" name="center"/>
  <outline>
    <contour>
      <point x="430.03999999999996" y="718.1333333333334" type="line"/>
      <point x="420.1866666666668" y="685.3866666666667" type="line"/>
      <point x="789.8799999999999" y="685.3866666666667" type="line" smooth="yes"/>
      <point x="873.3866666666668" y="685.3866666666667"/>
      <point x="914.0533333333334" y="653.64"/>
      <point x="947.2133333333333" y="549.2800000000001" type="curve" smooth="yes"/>
      <point x="953.1066666666666" y="536.6799999999998"/>
      <point x="960.8266666666666" y="530.7333333333333"/>
      <point x="973.2399999999998" y="532.0" type="curve" smooth="yes"/>
      <point x="985.2133333333331" y="533.3733333333333"/>
      <point x="992.5599999999998" y="541.4933333333335"/>
      <point x="988.9999999999999" y="563.6266666666667" type="curve" smooth="yes"/>
      <point x="941.5200000000001" y="866.5333333333333" type="line" smooth="yes"/>
      <point x="939.2933333333333" y="881.4266666666666"/>
      <point x="931.6533333333334" y="888.7066666666668"/>
      <point x="918.2933333333333" y="888.7066666666668" type="curve" smooth="yes"/>
      <point x="908.2399999999999" y="888.7066666666668"/>
      <point x="900.9333333333334" y="881.9599999999999"/>
      <point x="899.6799999999998" y="870.68" type="curve" smooth="yes"/>
      <point x="897.7066666666666" y="751.4933333333333"/>
      <point x="852.1066666666667" y="718.1333333333334"/>
      <point x="785.5066666666668" y="718.1333333333334" type="curve" smooth="yes"/>
    </contour>
    <contour>
      <point x="727.4266666666666" y="0.0" type="line" smooth="yes"/>
      <point x="761.8666666666668" y="0.0"/>
      <point x="779.2800000000002" y="-23.626666666666665"/>
      <point x="807.2933333333333" y="-23.626666666666665" type="curve" smooth="yes"/>
      <point x="919.7066666666666" y="-23.626666666666665"/>
      <point x="1042.0800000000002" y="140.20000000000002"/>
      <point x="1048.2799999999997" y="313.9733333333333" type="curve" smooth="yes"/>
      <point x="1048.8533333333335" y="328.3333333333333"/>
      <point x="1043.3466666666666" y="336.88"/>
      <point x="1032.1066666666666" y="336.88" type="curve" smooth="yes"/>
      <point x="1024.1733333333336" y="336.88"/>
      <point x="1015.5733333333336" y="330.85333333333335"/>
      <point x="1009.3333333333334" y="318.0" type="curve" smooth="yes"/>
      <point x="918.7066666666667" y="115.18666666666664"/>
      <point x="815.4133333333333" y="32.746666666666655"/>
      <point x="674.0266666666666" y="32.746666666666655" type="curve" smooth="yes"/>
      <point x="438.61333333333334" y="32.746666666666655" type="line" smooth="yes"/>
      <point x="333.76" y="32.746666666666655"/>
      <point x="311.91999999999996" y="58.333333333333336"/>
      <point x="325.67999999999995" y="112.42666666666665" type="curve" smooth="yes"/>
      <point x="375.41333333333336" y="335.20000000000005"/>
      <point x="570.4" y="1035.04"/>
      <point x="662.6133333333331" y="1368.1066666666666" type="curve"/>
      <point x="998.2800000000002" y="1368.1066666666666" type="line" smooth="yes"/>
      <point x="1092.0533333333335" y="1368.1066666666666"/>
      <point x="1142.2799999999997" y="1327.7066666666665"/>
      <point x="1199.36" y="1130.8799999999999" type="curve" smooth="yes"/>
      <point x="1208.5333333333335" y="1110.2799999999997"/>
      <point x="1217.9199999999998" y="1102.2533333333333"/>
      <point x="1232.5466666666669" y="1103.0" type="curve" smooth="yes"/>
      <point x="1245.773333333333" y="1103.6399999999999"/>
      <point x="1252.906666666667" y="1114.5733333333335"/>
      <point x="1248.4133333333336" y="1135.7599999999998" type="curve" smooth="yes"/>
      <point x="1214.9866666666665" y="1403.8933333333332" type="line" smooth="yes"/>
      <point x="1211.1866666666667" y="1425.706666666667"/>
      <point x="1202.8000000000002" y="1433.4133333333334"/>
      <point x="1186.053333333333" y="1433.4133333333334" type="curve" smooth="yes"/>
      <point x="1159.4133333333336" y="1433.4133333333334"/>
      <point x="1127.5733333333333" y="1400.0"/>
      <point x="1065.3066666666666" y="1400.0" type="curve" smooth="yes"/>
      <point x="393.21333333333337" y="1400.0" type="line" smooth="yes"/>
      <point x="376.15999999999997" y="1400.0"/>
      <point x="365.7733333333334" y="1392.9999999999998"/>
      <point x="365.7733333333334" y="1381.1199999999997" type="curve" smooth="yes"/>
      <point x="365.7733333333334" y="1371.5866666666666"/>
      <point x="373.14666666666665" y="1365.4533333333334"/>
      <point x="389.44" y="1362.2666666666667" type="curve" smooth="yes"/>
      <point x="478.6933333333333" y="1348.64" type="line" smooth="yes"/>
      <point x="501.72" y="1344.7466666666664"/>
      <point x="512.2533333333332" y="1325.52"/>
      <point x="504.66666666666663" y="1292.7866666666666" type="curve" smooth="yes"/>
      <point x="445.8266666666667" y="1039.9866666666667"/>
      <point x="244.8" y="338.6933333333334"/>
      <point x="183.89333333333335" y="108.31999999999996" type="curve" smooth="yes"/>
      <point x="171.6266666666667" y="71.33333333333331"/>
      <point x="153.86666666666665" y="55.26666666666665"/>
      <point x="119.73333333333335" y="50.61333333333335" type="curve" smooth="yes"/>
      <point x="29.21333333333333" y="38.06666666666666" type="line" smooth="yes"/>
      <point x="13.760000000000002" y="35.626666666666644"/>
      <point x="4.213333333333335" y="27.89333333333333"/>
      <point x="4.213333333333335" y="17.50666666666668" type="curve" smooth="yes"/>
      <point x="4.213333333333334" y="7.3333333333333375"/>
      <point x="11.626666666666667" y="0.0"/>
      <point x="28.586666666666673" y="0.0" type="curve" smooth="yes"/>
    </contour>
  </outline>
</glyph>
<glyph name="F" format="2">
  <advance width="1103.1599999999999"/>
  <unicode hex="0046"/>
  <outline>
    <contour>
      <point x="362.35999999999996" y="1381.973333333333" type="curve" smooth="yes"/>
      <point x="361.0800000000001" y="1370.8400000000001"/>
      <point x="369.9466666666666" y="1366.3066666666666"/>
      <point x="391.1466666666667" y="1361.84" type="curve" smooth="yes"/>
      <point x="472.72" y="1348.6400000000003" type="line" smooth="yes"/>
      <point x="496.93333333333334" y="1344.1066666666668"/>
      <point x="509.2533333333332" y="1329.4533333333331"/>
      <point x="502.5333333333334" y="1298.3333333333333" type="curve" smooth="yes"/>
      <point x="434.2266666666666" y="1012.4666666666665"/>
      <point x="273.8133333333334" y="419.97333333333336"/>
      <point x="182.61333333333332" y="110.02666666666667" type="curve" smooth="yes"/>
      <point x="171.41333333333336" y="73.68000000000004"/>
      <point x="153.76" y="55.693333333333314"/>
      <point x="119.73333333333336" y="51.04000000000001" type="curve" smooth="yes"/>
      <point x="42.86666666666666" y="40.62666666666667" type="line" smooth="yes"/>
      <point x="15.040000000000003" y="36.479999999999976"/>
      <point x="5.066666666666666" y="29.599999999999994"/>
      <point x="4.213333333333334" y="17.933333333333344" type="curve" smooth="yes"/>
      <point x="3.360000000000001" y="6.480000000000004"/>
      <point x="11.626666666666672" y="0.0"/>
      <point x="29.86666666666666" y="0.0" type="curve" smooth="yes"/>
      <point x="465.33333333333337" y="0.0" type="line" smooth="yes"/>
      <point x="493.65333333333336" y="0.0"/>
      <point x="504.58666666666664" y="8.373333333333335"/>
      <point x="504.58666666666664" y="20.773333333333333" type="curve" smooth="yes"/>
      <point x="504.5866666666667" y="30.669090909090887"/>
      <point x="493.2799459398323" y="36.87455893978061"/>
      <point x="469.84000000000003" y="39.41333333333332" type="curve" smooth="yes"/>
      <point x="360.32" y="50.119999999999976" type="line" smooth="yes"/>
      <point x="320.21453905368713" y="54.37829337301926"/>
      <point x="315.4807179301175" y="77.61548712368592"/>
      <point x="324.5333333333334" y="110.47999999999999" type="curve" smooth="yes"/>
      <point x="390.93333333333334" y="384.9333333333333"/>
      <point x="559.2133333333334" y="1004.2933333333333"/>
      <point x="662.3866666666667" y="1368.1066666666666" type="curve"/>
      <point x="971.3333333333334" y="1368.1066666666666" type="line" smooth="yes"/>
      <point x="1077.2666666666669" y="1368.1066666666666"/>
      <point x="1124.0266666666666" y="1319.013333333333"/>
      <point x="1159.1333333333334" y="1202.6666666666667" type="curve" smooth="yes"/>
      <point x="1181.0133333333335" y="1133.6" type="line" smooth="yes"/>
      <point x="1191.7333333333333" y="1110.6533333333332"/>
      <point x="1200.1066666666668" y="1100.4933333333333"/>
      <point x="1216.5466666666666" y="1101.24" type="curve" smooth="yes"/>
      <point x="1230.2" y="1101.8799999999999"/>
      <point x="1236.16" y="1112.9866666666667"/>
      <point x="1232.093333333333" y="1133.4666666666667" type="curve" smooth="yes"/>
      <point x="1198.0800000000002" y="1406.4533333333331" type="line" smooth="yes"/>
      <point x="1194.8133333333333" y="1426.1333333333332"/>
      <point x="1186.0" y="1433.4133333333334"/>
      <point x="1170.5333333333333" y="1433.4133333333334" type="curve" smooth="yes"/>
      <point x="1141.7599999999998" y="1433.4133333333334"/>
      <point x="1111.9466666666667" y="1400.0"/>
      <point x="1048.5066666666667" y="1400.0" type="curve" smooth="yes"/>
      <point x="394.4933333333334" y="1400.0" type="line" smooth="yes"/>
      <point x="376.15999999999997" y="1400.0"/>
      <point x="364.0666666666667" y="1394.2800000000002"/>
    </contour>
    <contour>
      <point x="424.8666666666667" y="690.1333333333333" type="line"/>
      <point x="413.7866666666667" y="657.3866666666665" type="line"/>
      <point x="764.28" y="657.3866666666665" type="line" smooth="yes"/>
      <point x="848.2533333333333" y="657.3866666666665"/>
      <point x="882.7333333333332" y="623.24"/>
      <point x="924.1600000000003" y="522.1866666666666" type="curve" smooth="yes"/>
      <point x="931.4399999999998" y="506.0666666666667"/>
      <point x="938.6799999999998" y="499.6933333333333"/>
      <point x="951.0399999999997" y="500.96000000000004" type="curve" smooth="yes"/>
      <point x="963.44" y="502.3333333333333"/>
      <point x="971.3066666666665" y="510.45333333333326"/>
      <point x="967.2800000000001" y="531.7333333333333" type="curve" smooth="yes"/>
      <point x="918.48" y="839.0133333333334" type="line" smooth="yes"/>
      <point x="915.7733333333333" y="855.6133333333335"/>
      <point x="908.2399999999998" y="863.4266666666666"/>
      <point x="894.8800000000001" y="863.4266666666666" type="curve" smooth="yes"/>
      <point x="883.4399999999999" y="863.4266666666666"/>
      <point x="877.5733333333332" y="855.4"/>
      <point x="876.64" y="841.9866666666668" type="curve" smooth="yes"/>
      <point x="866.6666666666666" y="723.0133333333333"/>
      <point x="823.0800000000002" y="690.1333333333333"/>
      <point x="760.7066666666666" y="690.1333333333333" type="curve" smooth="yes"/>
    </contour>
  </outline>
</glyph>
<glyph name="G" format="2">
  <advance width="1308.9333333333334"/>
  <unicode hex="0047"/>
  <anchor x="955.6933333333334" y="1566.0" name="center"/>
  <outline>
    <contour>
      <point x="939.2933333333334" y="1427.5199999999998" type="curve" smooth="yes"/>
      <point x="546.7466666666667" y="1427.5199999999998"/>
      <point x="204.84000000000006" y="1040.706666666667"/>
      <point x="137.98666666666668" y="615.7066666666667" type="curve" smooth="yes"/>
      <point x="72.42666666666668" y="204.93333333333337"/>
      <point x="265.2" y="-24.05333333333333"/>
      <point x="573.4266666666665" y="-24.05333333333333" type="curve" smooth="yes"/>
      <point x="798.3600000000001" y="-24.05333333333333"/>
      <point x="887.4799999999999" y="91.62666666666667"/>
      <point x="914.1866666666666" y="91.62666666666667" type="curve" smooth="yes"/>
      <point x="933.76" y="91.62666666666667"/>
      <point x="964.2399999999999" y="-23.306666666666665"/>
      <point x="986.1866666666665" y="-23.306666666666665" type="curve" smooth="yes"/>
      <point x="1003.52" y="-23.306666666666665"/>
      <point x="1013.0666666666668" y="-16.119999999999997"/>
      <point x="1021.1466666666665" y="9.160000000000004" type="curve" smooth="yes"/>
      <point x="1166.4399999999998" y="512.3733333333333" type="line" smooth="yes"/>
      <point x="1173.5466666666669" y="537.8533333333332"/>
      <point x="1188.0533333333333" y="551.7866666666667"/>
      <point x="1215.8799999999997" y="557.4933333333333" type="curve" smooth="yes"/>
      <point x="1284.2133333333331" y="573.4533333333335" type="line" smooth="yes"/>
      <point x="1304.88" y="577.4800000000001"/>
      <point x="1313.9066666666665" y="585.1066666666666"/>
      <point x="1315.1333333333332" y="595.1866666666666" type="curve" smooth="yes"/>
      <point x="1315.5600000000002" y="606.2266666666668"/>
      <point x="1309.9466666666667" y="611.9466666666666"/>
      <point x="1291.8266666666668" y="611.9466666666666" type="curve" smooth="yes"/>
      <point x="907.7466666666667" y="611.9466666666666" type="line" smooth="yes"/>
      <point x="890.3733333333333" y="611.9466666666666"/>
      <point x="879.0266666666666" y="605.9066666666666"/>
      <point x="879.0266666666666" y="593.0666666666666" type="curve" smooth="yes"/>
      <point x="878.6533333333334" y="582.8933333333334"/>
      <point x="884.6" y="574.84"/>
      <point x="902.6933333333334" y="572.5066666666665" type="curve" smooth="yes"/>
      <point x="1000.4" y="559.84" type="line" smooth="yes"/>
      <point x="1035.8666666666666" y="556.2"/>
      <point x="1042.9066666666668" y="534.0799999999999"/>
      <point x="1031.3066666666668" y="496.53333333333325" type="curve" smooth="yes"/>
      <point x="959.24" y="240.70666666666665" type="line" smooth="yes"/>
      <point x="921.0399483931806" y="109.52039269679034"/>
      <point x="776.6266666666666" y="18.893333333333317"/>
      <point x="604.4133333333332" y="18.893333333333317" type="curve" smooth="yes"/>
      <point x="367.2" y="18.893333333333317"/>
      <point x="223.0638549479104" y="203.00400943801654"/>
      <point x="290.3066666666667" y="625.5466666666666" type="curve" smooth="yes"/>
      <point x="356.602786693649" y="1030.7250036824464"/>
      <point x="631.6133333333333" y="1387.9866666666665"/>
      <point x="962.5066666666665" y="1387.9866666666665" type="curve" smooth="yes"/>
      <point x="1118.6666666666667" y="1387.9866666666665"/>
      <point x="1219.556739995053" y="1318.9872861255405"/>
      <point x="1278.2266666666665" y="1142.706666666667" type="curve" smooth="yes"/>
      <point x="1303.2933333333337" y="1064.5333333333333" type="line" smooth="yes"/>
      <point x="1307.9333333333334" y="1052.0133333333333"/>
      <point x="1317.8666666666668" y="1043.8533333333332"/>
      <point x="1328.4533333333334" y="1044.28" type="curve" smooth="yes"/>
      <point x="1340.626666666667" y="1044.6000000000001"/>
      <point x="1349.76" y="1051.5466666666669"/>
      <point x="1348.2533333333333" y="1068.1866666666665" type="curve" smooth="yes"/>
      <point x="1342.3466666666668" y="1383.4266666666667" type="line" smooth="yes"/>
      <point x="1339.8799999999999" y="1404.8"/>
      <point x="1330.146666666667" y="1413.626666666667"/>
      <point x="1315.2133333333331" y="1413.626666666667" type="curve" smooth="yes"/>
      <point x="1294.261930783242" y="1413.626666666667"/>
      <point x="1247.8666666666666" y="1321.5866666666668"/>
      <point x="1224.08" y="1321.5866666666668" type="curve" smooth="yes"/>
      <point x="1200.36" y="1321.5866666666668"/>
      <point x="1148.212459639126" y="1427.5199999999998"/>
    </contour>
  </outline>
</glyph>
<glyph name="H" format="2">
  <advance width="1448.5866666666666"/>
  <unicode hex="0048"/>
  <anchor x="1015.4266666666667" y="1498.4666666666667" name="center"/>
  <outline>
    <contour>
      <point x="326.37333333333333" y="111.78666666666666" type="curve" smooth="yes"/>
      <point x="373.03999999999996" y="328.1066666666667"/>
      <point x="570.1866666666666" y="1033.6"/>
      <point x="642.6933333333334" y="1294.3466666666666" type="curve" smooth="yes"/>
      <point x="652.4933333333333" y="1327.6"/>
      <point x="669.5866666666668" y="1340.7866666666669"/>
      <point x="700.8933333333334" y="1345.9733333333334" type="curve" smooth="yes"/>
      <point x="793.6000000000001" y="1363.5333333333333" type="line" smooth="yes"/>
      <point x="816.3466666666668" y="1368.2133333333331"/>
      <point x="824.5199999999999" y="1374.3333333333335"/>
      <point x="824.5199999999999" y="1385.7999999999997" type="curve" smooth="yes"/>
      <point x="824.5199999999999" y="1394.7066666666667"/>
      <point x="818.7999999999998" y="1400.0"/>
      <point x="800.3599999999999" y="1400.0" type="curve" smooth="yes"/>
      <point x="394.0666666666667" y="1400.0" type="line" smooth="yes"/>
      <point x="370.82666666666665" y="1400.0"/>
      <point x="357.24" y="1394.386666666667"/>
      <point x="357.24" y="1382.8266666666664" type="curve" smooth="yes"/>
      <point x="357.24" y="1371.9066666666665"/>
      <point x="363.23999999999995" y="1366.3066666666666"/>
      <point x="383.8933333333334" y="1362.2666666666667" type="curve" smooth="yes"/>
      <point x="470.1600000000001" y="1348.6400000000003" type="line" smooth="yes"/>
      <point x="499.6133333333333" y="1343.3600000000001"/>
      <point x="508.64000000000004" y="1327.3333333333335"/>
      <point x="501.76" y="1294.5066666666667" type="curve" smooth="yes"/>
      <point x="446.3466666666667" y="1040.9866666666667"/>
      <point x="250.26666666666665" y="352.1333333333333"/>
      <point x="184.74666666666664" y="111.09333333333336" type="curve" smooth="yes"/>
      <point x="171.85333333333335" y="73.0933333333333"/>
      <point x="152.2" y="53.13333333333332"/>
      <point x="115.89333333333333" y="48.48000000000001" type="curve" smooth="yes"/>
      <point x="30.919999999999995" y="37.640000000000015" type="line" smooth="yes"/>
      <point x="13.12" y="34.98666666666666"/>
      <point x="2.9333333333333353" y="27.679999999999993"/>
      <point x="3.786666666666667" y="16.653333333333343" type="curve" smooth="yes"/>
      <point x="3.786666666666667" y="6.800000000000001"/>
      <point x="10.346666666666673" y="0.0"/>
      <point x="30.29333333333333" y="0.0" type="curve" smooth="yes"/>
      <point x="439.46666666666664" y="0.0" type="line" smooth="yes"/>
      <point x="456.0666666666668" y="0.0"/>
      <point x="468.48" y="6.0400000000000045"/>
      <point x="468.48" y="17.26666666666667" type="curve" smooth="yes"/>
      <point x="468.4800000000001" y="27.866666666666653"/>
      <point x="461.4" y="33.69333333333334"/>
      <point x="444.82666666666677" y="36.65333333333334" type="curve" smooth="yes"/>
      <point x="357.31999999999994" y="47.93333333333335" type="line" smooth="yes"/>
      <point x="326.11999999999995" y="52.146666666666654"/>
      <point x="318.26666666666665" y="75.62666666666665"/>
    </contour>
    <contour>
      <point x="420.90666666666664" y="680.0533333333334" type="line"/>
      <point x="409.1733333333334" y="644.1066666666668" type="line"/>
      <point x="1168.6133333333332" y="644.1066666666668" type="line"/>
      <point x="1181.52" y="680.0533333333334" type="line"/>
    </contour>
    <contour>
      <point x="1110.9333333333336" y="111.7866666666667" type="curve" smooth="yes"/>
      <point x="1157.0666666666666" y="328.1066666666667"/>
      <point x="1354.6399999999996" y="1033.6"/>
      <point x="1426.8266666666666" y="1294.3466666666666" type="curve" smooth="yes"/>
      <point x="1436.9466666666665" y="1327.6000000000001"/>
      <point x="1454.1466666666668" y="1340.7866666666666"/>
      <point x="1485.0266666666666" y="1345.9733333333334" type="curve" smooth="yes"/>
      <point x="1578.5866666666668" y="1363.5333333333335" type="line" smooth="yes"/>
      <point x="1600.4799999999996" y="1368.2133333333334"/>
      <point x="1608.6533333333334" y="1374.3333333333333"/>
      <point x="1608.6533333333334" y="1385.8" type="curve" smooth="yes"/>
      <point x="1608.6533333333334" y="1394.7066666666667"/>
      <point x="1602.9333333333332" y="1400.0"/>
      <point x="1584.92" y="1400.0" type="curve" smooth="yes"/>
      <point x="1178.2" y="1400.0" type="line" smooth="yes"/>
      <point x="1154.8533333333335" y="1400.0"/>
      <point x="1141.8" y="1394.3866666666668"/>
      <point x="1141.8" y="1382.8266666666664" type="curve" smooth="yes"/>
      <point x="1141.8000000000002" y="1371.906666666667"/>
      <point x="1147.2666666666669" y="1366.3066666666666"/>
      <point x="1168.0266666666666" y="1362.2666666666667" type="curve" smooth="yes"/>
      <point x="1254.1866666666665" y="1348.6400000000003" type="line" smooth="yes"/>
      <point x="1283.6399999999999" y="1343.3600000000001"/>
      <point x="1293.0933333333335" y="1327.3333333333335"/>
      <point x="1285.7866666666666" y="1294.5066666666664" type="curve" smooth="yes"/>
      <point x="1230.3733333333334" y="1040.9866666666665"/>
      <point x="1034.293333333333" y="352.1333333333333"/>
      <point x="968.88" y="111.09333333333335" type="curve" smooth="yes"/>
      <point x="955.8800000000001" y="73.09333333333333"/>
      <point x="936.7599999999999" y="53.13333333333331"/>
      <point x="900.4533333333334" y="48.48" type="curve" smooth="yes"/>
      <point x="815.4799999999999" y="37.64000000000002" type="line" smooth="yes"/>
      <point x="797.6799999999998" y="34.98666666666665"/>
      <point x="787.4933333333333" y="27.679999999999986"/>
      <point x="787.9200000000001" y="16.65333333333334" type="curve" smooth="yes"/>
      <point x="787.9200000000001" y="6.8000000000000025"/>
      <point x="794.9066666666668" y="0.0"/>
      <point x="814.8533333333334" y="0.0" type="curve" smooth="yes"/>
      <point x="1223.4933333333333" y="0.0" type="line" smooth="yes"/>
      <point x="1240.5199999999998" y="0.0"/>
      <point x="1252.9333333333332" y="6.040000000000006"/>
      <point x="1252.9333333333332" y="17.266666666666676" type="curve" smooth="yes"/>
      <point x="1252.9333333333334" y="27.86666666666665"/>
      <point x="1245.5333333333333" y="33.693333333333335"/>
      <point x="1228.853333333333" y="36.65333333333332" type="curve" smooth="yes"/>
      <point x="1141.8799999999999" y="47.93333333333334" type="line" smooth="yes"/>
      <point x="1110.2533333333336" y="52.146666666666654"/>
      <point x="1102.3999999999996" y="75.62666666666667"/>
    </contour>
  </outline>
</glyph>
<glyph name="I" format="2">
  <advance width="670.7866666666666"/>
  <unicode hex="0049"/>
  <anchor x="631.8266666666666" y="1468.0" name="center"/>
  <outline>
    <contour>
      <point x="328.05333333333334" y="111.78666666666666" type="curve" smooth="yes"/>
      <point x="374.18666666666667" y="328.1066666666667"/>
      <point x="571.9066666666668" y="1033.6"/>
      <point x="643.56" y="1294.3466666666666" type="curve" smooth="yes"/>
      <point x="653.6799999999998" y="1327.6"/>
      <point x="670.8799999999999" y="1340.7866666666669"/>
      <point x="701.76" y="1345.9733333333334" type="curve" smooth="yes"/>
      <point x="794.8933333333332" y="1363.5333333333333" type="line" smooth="yes"/>
      <point x="817.2133333333334" y="1368.2133333333334"/>
      <point x="825.3866666666668" y="1374.3333333333335"/>
      <point x="825.3866666666668" y="1385.8000000000002" type="curve" smooth="yes"/>
      <point x="825.3866666666668" y="1394.706666666667"/>
      <point x="819.6666666666667" y="1400.0"/>
      <point x="801.6533333333334" y="1400.0" type="curve" smooth="yes"/>
      <point x="395.36000000000007" y="1400.0" type="line" smooth="yes"/>
      <point x="371.5866666666667" y="1400.0"/>
      <point x="358.53333333333325" y="1394.386666666667"/>
      <point x="358.5333333333333" y="1382.8266666666664" type="curve" smooth="yes"/>
      <point x="358.5333333333333" y="1371.9066666666665"/>
      <point x="364.0" y="1366.3066666666666"/>
      <point x="384.76" y="1362.2666666666667" type="curve" smooth="yes"/>
      <point x="471.34666666666675" y="1348.6400000000003" type="line" smooth="yes"/>
      <point x="500.3733333333333" y="1343.3600000000001"/>
      <point x="509.8266666666666" y="1327.3333333333335"/>
      <point x="502.9466666666668" y="1294.5066666666667" type="curve" smooth="yes"/>
      <point x="447.21333333333337" y="1040.56"/>
      <point x="251.84" y="352.1333333333333"/>
      <point x="185.89333333333335" y="111.09333333333336" type="curve" smooth="yes"/>
      <point x="172.99999999999997" y="73.0933333333333"/>
      <point x="153.88" y="53.13333333333332"/>
      <point x="117.57333333333332" y="48.48000000000001" type="curve" smooth="yes"/>
      <point x="32.60000000000001" y="37.640000000000015" type="line" smooth="yes"/>
      <point x="14.800000000000002" y="34.98666666666666"/>
      <point x="4.613333333333332" y="27.679999999999993"/>
      <point x="5.466666666666664" y="16.653333333333343" type="curve" smooth="yes"/>
      <point x="5.466666666666664" y="6.800000000000001"/>
      <point x="12.026666666666658" y="0.0"/>
      <point x="31.54666666666666" y="0.0" type="curve" smooth="yes"/>
      <point x="441.03999999999996" y="0.0" type="line" smooth="yes"/>
      <point x="457.63999999999993" y="0.0"/>
      <point x="470.0533333333332" y="6.0400000000000045"/>
      <point x="470.0533333333332" y="17.26666666666667" type="curve" smooth="yes"/>
      <point x="470.0533333333333" y="27.866666666666653"/>
      <point x="462.65333333333336" y="33.69333333333334"/>
      <point x="445.9733333333333" y="36.65333333333334" type="curve" smooth="yes"/>
      <point x="358.5733333333333" y="47.93333333333335" type="line" smooth="yes"/>
      <point x="327.3733333333333" y="52.146666666666654"/>
      <point x="319.4133333333332" y="75.62666666666665"/>
    </contour>
  </outline>
</glyph>
<glyph name="J" format="2">
  <advance width="641.5999999999999"/>
  <unicode hex="004A"/>
  <anchor x="615.7333333333333" y="1468.0" name="center"/>
  <outline>
    <contour>
      <point x="634.72" y="1286.0799999999997" type="curve" smooth="yes"/>
      <point x="647.7333333333333" y="1328.5600000000002"/>
      <point x="661.5333333333333" y="1338.12"/>
      <point x="698.9466666666665" y="1346.3466666666666" type="curve" smooth="yes"/>
      <point x="786.1066666666667" y="1363.96" type="line" smooth="yes"/>
      <point x="802.9866666666666" y="1367.4133333333334"/>
      <point x="813.1866666666667" y="1374.3333333333335"/>
      <point x="813.1866666666667" y="1385.0" type="curve" smooth="yes"/>
      <point x="813.1866666666667" y="1395.08"/>
      <point x="807.04" y="1400.0"/>
      <point x="789.0266666666666" y="1400.0" type="curve" smooth="yes"/>
      <point x="379.64" y="1400.0" type="line" smooth="yes"/>
      <point x="357.2000000000001" y="1400.0"/>
      <point x="345.90666666666664" y="1393.426666666667"/>
      <point x="345.9066666666667" y="1381.9733333333331" type="curve" smooth="yes"/>
      <point x="345.53333333333336" y="1370.7333333333333"/>
      <point x="354.14666666666676" y="1365.5066666666667"/>
      <point x="372.4533333333334" y="1362.2666666666667" type="curve" smooth="yes"/>
      <point x="458.82666666666677" y="1349.8133333333335" type="line" smooth="yes"/>
      <point x="496.75999999999993" y="1344.5999999999997"/>
      <point x="505.1999999999999" y="1328.9599999999998"/>
      <point x="496.20000000000005" y="1287.6" type="curve" smooth="yes"/>
      <point x="478.57401694918497" y="1204.3491276837324"/>
      <point x="191.40968507773667" y="155.27934835354625"/>
      <point x="170.39999999999998" y="82.09333333333335" type="curve" smooth="yes"/>
      <point x="147.06265084861678" y="7.591205767174664"/>
      <point x="184.05333333333334" y="-47.88948948948949"/>
      <point x="183.68" y="-94.09333333333336" type="curve" smooth="yes"/>
      <point x="181.81333333333336" y="-210.3466666666667"/>
      <point x="143.56" y="-245.34666666666666"/>
      <point x="98.62666666666667" y="-245.34666666666666" type="curve" smooth="yes"/>
      <point x="48.64217054263563" y="-245.34666666666666"/>
      <point x="1.0133333333333354" y="-192.81333333333336"/>
      <point x="-58.76" y="-192.81333333333336" type="curve" smooth="yes"/>
      <point x="-102.50666666666669" y="-192.81333333333336"/>
      <point x="-128.7466666666667" y="-219.25333333333336"/>
      <point x="-129.12000000000003" y="-255.0933333333333" type="curve" smooth="yes"/>
      <point x="-129.49333333333334" y="-297.71999999999997"/>
      <point x="-92.46666666666667" y="-330.78666666666663"/>
      <point x="-16.453333333333337" y="-330.78666666666663" type="curve" smooth="yes"/>
      <point x="121.81333333333332" y="-330.78666666666663"/>
      <point x="228.78666666666666" y="-248.51999999999998"/>
      <point x="274.6666666666667" y="-49.199999999999996" type="curve" smooth="yes"/>
      <point x="312.05290948906224" y="84.97132007304577"/>
      <point x="611.2809417402855" y="1206.5626368727994"/>
    </contour>
  </outline>
</glyph>
<glyph name="K" format="2">
  <advance width="1288.6799999999998"/>
  <unicode hex="004B"/>
  <anchor x="619.3733333333333" y="1487.0" name="center"/>
  <outline>
    <contour>
      <point x="324.56" y="110.71999999999997" type="curve" smooth="yes"/>
      <point x="371.01333333333326" y="327.14666666666665"/>
      <point x="569.4266666666667" y="1034.0266666666666"/>
      <point x="641.2933333333333" y="1294.88" type="curve" smooth="yes"/>
      <point x="650.7333333333333" y="1326.96"/>
      <point x="668.1066666666666" y="1340.0133333333329"/>
      <point x="698.9333333333334" y="1345.0666666666666" type="curve" smooth="yes"/>
      <point x="792.9866666666667" y="1363.4666666666667" type="line" smooth="yes"/>
      <point x="816.3733333333332" y="1368.773333333333"/>
      <point x="824.3466666666666" y="1373.9466666666665"/>
      <point x="824.3466666666666" y="1385.52" type="curve" smooth="yes"/>
      <point x="824.3466666666666" y="1394.7199999999998"/>
      <point x="817.8933333333333" y="1400.0"/>
      <point x="801.0400000000001" y="1400.0" type="curve" smooth="yes"/>
      <point x="394.1733333333333" y="1400.0" type="line" smooth="yes"/>
      <point x="371.1466666666667" y="1400.0"/>
      <point x="357.4533333333333" y="1394.3866666666668"/>
      <point x="357.4533333333333" y="1382.9333333333332" type="curve" smooth="yes"/>
      <point x="357.4533333333333" y="1371.706666666667"/>
      <point x="363.5466666666667" y="1366.3066666666666"/>
      <point x="384.10666666666674" y="1362.2666666666667" type="curve" smooth="yes"/>
      <point x="470.15999999999997" y="1348.8533333333335" type="line" smooth="yes"/>
      <point x="499.28000000000003" y="1343.7866666666669"/>
      <point x="509.26666666666665" y="1328.1866666666665"/>
      <point x="501.88000000000005" y="1295.293333333333" type="curve" smooth="yes"/>
      <point x="446.5733333333333" y="1041.3466666666664"/>
      <point x="250.69333333333333" y="352.1333333333333"/>
      <point x="184.74666666666667" y="111.09333333333333" type="curve" smooth="yes"/>
      <point x="172.05333333333334" y="73.89333333333332"/>
      <point x="152.48" y="53.13333333333331"/>
      <point x="116.00000000000003" y="48.48000000000001" type="curve" smooth="yes"/>
      <point x="31.026666666666657" y="37.640000000000015" type="line" smooth="yes"/>
      <point x="13.226666666666667" y="34.98666666666665"/>
      <point x="3.4666666666666703" y="27.786666666666655"/>
      <point x="3.8933333333333353" y="16.653333333333343" type="curve" smooth="yes"/>
      <point x="3.8933333333333353" y="6.800000000000004"/>
      <point x="10.453333333333335" y="0.0"/>
      <point x="30.400000000000002" y="0.0" type="curve" smooth="yes"/>
      <point x="437.75999999999993" y="0.0" type="line" smooth="yes"/>
      <point x="454.7866666666667" y="0.0"/>
      <point x="466.9866666666667" y="5.826666666666664"/>
      <point x="466.9866666666667" y="17.053333333333324" type="curve" smooth="yes"/>
      <point x="466.9866666666667" y="28.280000000000012"/>
      <point x="458.45333333333326" y="34.21333333333331"/>
      <point x="442.58666666666664" y="37.29333333333334" type="curve" smooth="yes"/>
      <point x="355.6133333333333" y="48.57333333333334" type="line" smooth="yes"/>
      <point x="324.62666666666667" y="52.89333333333334"/>
      <point x="316.45333333333326" y="76.16"/>
    </contour>
    <contour>
      <point x="665.6266666666667" y="761.6666666666667" type="line"/>
      <point x="885.2133333333334" y="132.69333333333333" type="line" smooth="yes"/>
      <point x="922.0875875784835" y="20.25346550370293"/>
      <point x="963.3406763285024" y="-21.573333333333334"/>
      <point x="1034.1066666666666" y="-21.573333333333334" type="curve" smooth="yes"/>
      <point x="1106.9893186003683" y="-21.573333333333334"/>
      <point x="1165.131628374921" y="16.55659008317501"/>
      <point x="1194.0933333333335" y="77.84000000000002" type="curve" smooth="yes"/>
      <point x="1201.2533333333333" y="92.05333333333333"/>
      <point x="1197.0266666666664" y="103.19999999999996"/>
      <point x="1188.76" y="105.41333333333333" type="curve" smooth="yes"/>
      <point x="1180.813333333333" y="107.73333333333329"/>
      <point x="1171.6933333333334" y="104.73333333333329"/>
      <point x="1164.8266666666668" y="96.30666666666663" type="curve" smooth="yes"/>
      <point x="1148.5466666666664" y="69.6533333333333"/>
      <point x="1131.1333333333332" y="57.706666666666635"/>
      <point x="1106.2" y="57.706666666666635" type="curve" smooth="yes"/>
      <point x="1064.48" y="57.706666666666635"/>
      <point x="1038.0933333333335" y="93.39999999999998"/>
      <point x="1008.28" y="184.88" type="curve" smooth="yes"/>
      <point x="766.5200000000001" y="852.3333333333333" type="line"/>
    </contour>
    <contour>
      <point x="374.94666666666666" y="431.05333333333334" type="line"/>
      <point x="1127.253333333333" y="1212.6533333333334" type="line" smooth="yes"/>
      <point x="1195.8266666666666" y="1284.6000000000001"/>
      <point x="1243.52" y="1309.3066666666664"/>
      <point x="1288.4933333333333" y="1309.3066666666664" type="curve" smooth="yes"/>
      <point x="1330.7066666666667" y="1309.3066666666664"/>
      <point x="1357.906666666667" y="1283.2533333333333"/>
      <point x="1404.053333333333" y="1283.2533333333333" type="curve" smooth="yes"/>
      <point x="1456.84" y="1283.2533333333333"/>
      <point x="1492.24" y="1309.6266666666668"/>
      <point x="1494.0" y="1350.9466666666665" type="curve" smooth="yes"/>
      <point x="1495.6533333333334" y="1389.9066666666668"/>
      <point x="1461.8" y="1422.5066666666664"/>
      <point x="1403.0533333333333" y="1422.5066666666664" type="curve" smooth="yes"/>
      <point x="1307.52" y="1422.5066666666664"/>
      <point x="1230.6666666666667" y="1378.0666666666666"/>
      <point x="1126.813333333333" y="1269.3466666666664" type="curve" smooth="yes"/>
      <point x="363.59999999999997" y="470.1333333333334" type="line"/>
    </contour>
  </outline>
</glyph>
<glyph name="L" format="2">
  <advance width="1008.6533333333335"/>
  <unicode hex="004C"/>
  <anchor x="894.9733333333332" y="1236.0" name="right"/>
  <outline>
    <contour>
      <point x="618.4933333333333" y="0.0" type="line" smooth="yes"/>
      <point x="661.8666666666667" y="0.0"/>
      <point x="681.3066666666666" y="-21.6"/>
      <point x="715.2933333333333" y="-21.6" type="curve" smooth="yes"/>
      <point x="816.12" y="-21.6"/>
      <point x="948.0933333333334" y="140.08"/>
      <point x="955.2533333333333" y="329.01333333333326" type="curve" smooth="yes"/>
      <point x="955.8266666666666" y="343.35999999999996"/>
      <point x="950.9599999999999" y="351.70666666666676"/>
      <point x="938.5466666666665" y="351.70666666666676" type="curve" smooth="yes"/>
      <point x="926.9866666666665" y="351.70666666666676"/>
      <point x="919.1466666666663" y="343.56"/>
      <point x="910.4400000000002" y="323.8666666666666" type="curve" smooth="yes"/>
      <point x="817.9866666666667" y="119.52"/>
      <point x="735.56" y="34.77333333333335"/>
      <point x="578.1066666666667" y="34.77333333333335" type="curve" smooth="yes"/>
      <point x="405.62666666666667" y="34.77333333333335" type="line" smooth="yes"/>
      <point x="336.63999999999993" y="34.77333333333335"/>
      <point x="313.0000000000001" y="56.66666666666666"/>
      <point x="325.41333333333324" y="112.53333333333329" type="curve" smooth="yes"/>
      <point x="379.0" y="351.1733333333333"/>
      <point x="571.0" y="1030.0"/>
      <point x="641.88" y="1289.2266666666667" type="curve" smooth="yes"/>
      <point x="653.24" y="1325.3333333333335"/>
      <point x="669.3466666666665" y="1341.8533333333332"/>
      <point x="697.4266666666667" y="1345.5466666666664" type="curve" smooth="yes"/>
      <point x="795.4666666666666" y="1362.6800000000003" type="line" smooth="yes"/>
      <point x="813.4133333333333" y="1366.1866666666667"/>
      <point x="824.4666666666667" y="1373.1599999999999"/>
      <point x="824.4666666666667" y="1384.0933333333332" type="curve" smooth="yes"/>
      <point x="824.4666666666667" y="1393.52"/>
      <point x="816.9466666666668" y="1400.0"/>
      <point x="799.88" y="1400.0" type="curve" smooth="yes"/>
      <point x="386.22666666666663" y="1400.0" type="line"/>
      <point x="368.0133333333333" y="1400.0"/>
      <point x="356.76000000000005" y="1393.4266666666667"/>
      <point x="356.76000000000005" y="1382.7333333333333" type="curve" smooth="yes"/>
      <point x="356.76000000000005" y="1371.3733333333334"/>
      <point x="364.65333333333336" y="1366.52"/>
      <point x="382.9866666666667" y="1362.6933333333334" type="curve" smooth="yes"/>
      <point x="475.6533333333334" y="1347.3600000000001" type="line" smooth="yes"/>
      <point x="496.97333333333324" y="1343.2533333333333"/>
      <point x="508.57333333333327" y="1328.186666666667"/>
      <point x="503.2266666666667" y="1301.4266666666665" type="curve" smooth="yes"/>
      <point x="447.59999999999997" y="1049.5333333333335"/>
      <point x="261.20000000000005" y="383.5733333333333"/>
      <point x="187.57333333333335" y="117.49333333333328" type="curve" smooth="yes"/>
      <point x="174.13333333333333" y="75.49333333333334"/>
      <point x="155.83999999999997" y="55.053333333333356"/>
      <point x="118.82666666666667" y="49.76000000000001" type="curve" smooth="yes"/>
      <point x="35.986666666666665" y="38.49333333333335" type="line" smooth="yes"/>
      <point x="18.293333333333337" y="35.62666666666666"/>
      <point x="6.293333333333335" y="29.493333333333325"/>
      <point x="5.866666666666669" y="17.50666666666668" type="curve" smooth="yes"/>
      <point x="3.733333333333336" y="6.90666666666667"/>
      <point x="12.85333333333334" y="0.0"/>
      <point x="32.373333333333335" y="0.0" type="curve"/>
    </contour>
  </outline>
</glyph>
<glyph name="M" format="2">
  <advance width="1559.7066666666667"/>
  <unicode hex="004D"/>
  <anchor x="667.0933333333332" y="1444.4666666666667" name="center"/>
  <outline>
    <contour>
      <point x="795.0533333333334" y="323.4" type="line"/>
      <point x="741.5200000000001" y="656.6533333333333"/>
      <point x="696.9333333333332" y="1047.8666666666666"/>
      <point x="656.16" y="1341.6533333333334" type="curve" smooth="yes"/>
      <point x="649.6533333333333" y="1384.5333333333333"/>
      <point x="629.6266666666666" y="1400.0"/>
      <point x="593.8933333333333" y="1400.0" type="curve" smooth="yes"/>
      <point x="398.3866666666666" y="1400.0" type="line" smooth="yes"/>
      <point x="382.29333333333335" y="1400.0"/>
      <point x="371.48" y="1394.1733333333336"/>
      <point x="370.19999999999993" y="1382.9333333333332" type="curve" smooth="yes"/>
      <point x="368.49333333333334" y="1371.906666666667"/>
      <point x="374.8133333333334" y="1366.3066666666666"/>
      <point x="390.88000000000005" y="1362.2666666666667" type="curve" smooth="yes"/>
      <point x="485.57333333333344" y="1346.0799999999997" type="line" smooth="yes"/>
      <point x="515.3466666666667" y="1340.6933333333334"/>
      <point x="524.88" y="1317.3466666666666"/>
      <point x="512.6533333333333" y="1279.0933333333332" type="curve" smooth="yes"/>
      <point x="176.5066666666667" y="205.44000000000005" type="line" smooth="yes"/>
      <point x="144.42666666666668" y="96.23999999999998"/>
      <point x="103.29333333333331" y="60.053333333333335"/>
      <point x="43.98666666666666" y="49.78666666666663" type="curve" smooth="yes"/>
      <point x="-6.173333333333339" y="41.47999999999999" type="line" smooth="yes"/>
      <point x="-25.346666666666664" y="38.10666666666664"/>
      <point x="-35.34666666666668" y="32.27999999999999"/>
      <point x="-36.626666666666665" y="19.213333333333328" type="curve" smooth="yes"/>
      <point x="-37.906666666666666" y="7.759999999999996"/>
      <point x="-29.10666666666667" y="0.0"/>
      <point x="-9.266666666666659" y="0.0" type="curve" smooth="yes"/>
      <point x="317.6133333333333" y="0.0" type="line" smooth="yes"/>
      <point x="337.33333333333326" y="0.0"/>
      <point x="348.8933333333334" y="6.893333333333338"/>
      <point x="351.0266666666666" y="19.30666666666666" type="curve" smooth="yes"/>
      <point x="352.3066666666667" y="28.506666666666646"/>
      <point x="344.7866666666667" y="34.239999999999974"/>
      <point x="332.2133333333333" y="37.839999999999975" type="curve" smooth="yes"/>
      <point x="270.65333333333336" y="48.853333333333325" type="line" smooth="yes"/>
      <point x="210.45333333333335" y="59.866666666666674"/>
      <point x="190.65333333333328" y="98.22666666666669"/>
      <point x="217.30666666666664" y="189.38666666666666" type="curve" smooth="yes"/>
      <point x="562.12" y="1285.8533333333335" type="line"/>
      <point x="532.6666666666666" y="1278.4266666666663" type="line"/>
      <point x="580.8399999999998" y="977.68"/>
      <point x="633.1866666666667" y="523.8533333333334"/>
      <point x="676.4" y="204.96" type="curve" smooth="yes"/>
      <point x="680.2" y="186.89333333333335"/>
      <point x="687.92" y="170.0933333333333"/>
      <point x="702.6666666666667" y="170.0933333333333" type="curve" smooth="yes"/>
      <point x="720.1733333333333" y="170.0933333333333"/>
      <point x="731.2533333333333" y="181.09333333333336"/>
      <point x="749.8133333333333" y="207.4133333333333" type="curve" smooth="yes"/>
      <point x="1415.7199999999998" y="1290.72" type="line"/>
      <point x="1382.8266666666666" y="1265.56" type="line"/>
      <point x="1317.8133333333335" y="887.0266666666666"/>
      <point x="1210.146666666667" y="417.89333333333326"/>
      <point x="1148.9066666666668" y="111.7333333333333" type="curve" smooth="yes"/>
      <point x="1140.9866666666667" y="73.89333333333335"/>
      <point x="1119.0933333333335" y="56.333333333333336"/>
      <point x="1087.0933333333335" y="51.04000000000001" type="curve" smooth="yes"/>
      <point x="998.7066666666666" y="38.06666666666666" type="line" smooth="yes"/>
      <point x="985.9200000000001" y="35.733333333333306"/>
      <point x="974.56" y="31.18666666666666"/>
      <point x="972.8533333333334" y="18.559999999999988" type="curve" smooth="yes"/>
      <point x="972.4266666666666" y="7.533333333333333"/>
      <point x="979.3066666666665" y="0.0"/>
      <point x="998.0799999999998" y="0.0" type="curve" smooth="yes"/>
      <point x="1404.1333333333332" y="0.0" type="line" smooth="yes"/>
      <point x="1421.5866666666664" y="0.0"/>
      <point x="1430.5866666666668" y="5.613333333333333"/>
      <point x="1431.8666666666666" y="18.119999999999997" type="curve" smooth="yes"/>
      <point x="1433.5733333333335" y="28.719999999999985"/>
      <point x="1425.2133333333336" y="33.693333333333335"/>
      <point x="1412.0533333333333" y="36.653333333333364" type="curve" smooth="yes"/>
      <point x="1317.4266666666667" y="50.493333333333325" type="line" smooth="yes"/>
      <point x="1289.1066666666668" y="56.106666666666634"/>
      <point x="1280.9333333333334" y="78.72"/>
      <point x="1287.0133333333333" y="112.00000000000001" type="curve" smooth="yes"/>
      <point x="1327.0266666666666" y="356.74666666666667"/>
      <point x="1467.48" y="1007.92"/>
      <point x="1522.9733333333331" y="1291.1466666666668" type="curve" smooth="yes"/>
      <point x="1529.4399999999998" y="1324.92"/>
      <point x="1547.9466666666665" y="1341.0933333333332"/>
      <point x="1574.2400000000002" y="1345.9733333333334" type="curve" smooth="yes"/>
      <point x="1663.6133333333335" y="1361.8266666666668" type="line" smooth="yes"/>
      <point x="1680.813333333333" y="1365.2266666666665"/>
      <point x="1691.12" y="1370.4933333333333"/>
      <point x="1692.4" y="1384.0933333333335" type="curve" smooth="yes"/>
      <point x="1693.2533333333336" y="1393.5333333333335"/>
      <point x="1687.853333333333" y="1400.0"/>
      <point x="1669.9466666666667" y="1400.0" type="curve" smooth="yes"/>
      <point x="1494.706666666667" y="1400.0" type="line" smooth="yes"/>
      <point x="1458.7066666666667" y="1400.0"/>
      <point x="1432.7866666666664" y="1390.32"/>
      <point x="1407.8533333333335" y="1350.3466666666666" type="curve" smooth="yes"/>
      <point x="748.4666666666665" y="279.2266666666667" type="line"/>
    </contour>
  </outline>
</glyph>
<glyph name="N" format="2">
  <advance width="1294.9600000000003"/>
  <unicode hex="004E"/>
  <anchor x="958.8533333333335" y="1497.0" name="center"/>
  <outline>
    <contour>
      <point x="235.35999999999996" y="192.74666666666667" type="line" smooth="yes"/>
      <point x="212.94666666666672" y="105.05333333333334"/>
      <point x="237.78666666666663" y="57.85333333333332"/>
      <point x="305.02666666666664" y="44.74666666666665" type="curve" smooth="yes"/>
      <point x="356.2933333333333" y="37.413333333333334" type="line" smooth="yes"/>
      <point x="369.3999999999999" y="34.55999999999998"/>
      <point x="377.23999999999995" y="27.43999999999999"/>
      <point x="377.24" y="17.493333333333336" type="curve" smooth="yes"/>
      <point x="377.24" y="5.293333333333336"/>
      <point x="367.4933333333333" y="0.0"/>
      <point x="352.67999999999995" y="0.0" type="curve" smooth="yes"/>
      <point x="7.879999999999988" y="0.0" type="line" smooth="yes"/>
      <point x="-12.813333333333322" y="0.0"/>
      <point x="-22.786666666666665" y="5.733333333333334"/>
      <point x="-22.786666666666676" y="17.933333333333344" type="curve" smooth="yes"/>
      <point x="-22.78666666666666" y="26.94666666666665"/>
      <point x="-13.960000000000012" y="35.973333333333315"/>
      <point x="3.2933333333333294" y="38.920000000000016" type="curve" smooth="yes"/>
      <point x="49.18666666666666" y="45.94666666666667" type="line" smooth="yes"/>
      <point x="112.2" y="57.02666666666668"/>
      <point x="165.72000000000003" y="104.23999999999998"/>
      <point x="189.65333333333336" y="195.94666666666666" type="curve" smooth="yes"/>
      <point x="441.7466666666667" y="1106.5733333333335" type="line" smooth="yes"/>
      <point x="452.4" y="1143.5066666666664"/>
      <point x="447.6933333333333" y="1175.9333333333334"/>
      <point x="432.0533333333333" y="1203.0533333333335" type="curve" smooth="yes"/>
      <point x="360.2533333333333" y="1360.8266666666666" type="line" smooth="yes"/>
      <point x="347.0400000000001" y="1379.52"/>
      <point x="354.0400000000001" y="1400.0"/>
      <point x="378.6" y="1400.0" type="curve" smooth="yes"/>
      <point x="467.85333333333335" y="1400.0" type="line" smooth="yes"/>
      <point x="497.8266666666666" y="1400.0"/>
      <point x="510.7866666666666" y="1384.7600000000002"/>
      <point x="527.3599999999999" y="1347.9599999999998" type="curve" smooth="yes"/>
      <point x="679.6133333333332" y="930.4533333333334"/>
      <point x="883.0133333333333" y="503.3733333333333"/>
      <point x="1002.4933333333331" y="199.43999999999997" type="curve"/>
      <point x="963.1066666666666" y="186.64" type="line"/>
      <point x="1221.6266666666666" y="1199.8133333333333" type="line" smooth="yes"/>
      <point x="1263.9066666666668" y="1355.8533333333332"/>
      <point x="1335.6933333333334" y="1423.7333333333331"/>
      <point x="1411.5066666666664" y="1423.7333333333331" type="curve" smooth="yes"/>
      <point x="1450.68" y="1423.7333333333331"/>
      <point x="1475.8533333333335" y="1399.9466666666665"/>
      <point x="1475.3733333333337" y="1366.8933333333332" type="curve" smooth="yes"/>
      <point x="1474.7866666666666" y="1325.9066666666668"/>
      <point x="1446.6000000000001" y="1296.52"/>
      <point x="1382.1599999999999" y="1265.8266666666666" type="curve" smooth="yes"/>
      <point x="1307.3200000000002" y="1232.293333333333"/>
      <point x="1262.2666666666662" y="1179.9066666666668"/>
      <point x="1238.066666666667" y="1089.0666666666666" type="curve" smooth="yes"/>
      <point x="1022.9199999999998" y="236.2266666666666" type="line" smooth="yes"/>
      <point x="1016.2266666666665" y="212.30666666666667"/>
      <point x="1014.16" y="196.22666666666666"/>
      <point x="1027.7866666666666" y="159.58666666666662" type="curve" smooth="yes"/>
      <point x="1070.7066666666667" y="41.83999999999999" type="line" smooth="yes"/>
      <point x="1081.2666666666664" y="15.586666666666673"/>
      <point x="1070.8400000000001" y="0.0"/>
      <point x="1045.4266666666667" y="0.0" type="curve" smooth="yes"/>
      <point x="931.5866666666667" y="0.0" type="line" smooth="yes"/>
      <point x="906.9599999999999" y="0.0"/>
      <point x="895.7733333333334" y="15.533333333333331"/>
      <point x="896.44" y="44.05333333333332" type="curve" smooth="yes"/>
      <point x="896.4666666666667" y="74.0"/>
      <point x="893.0133333333332" y="90.6933333333333"/>
      <point x="877.2133333333334" y="127.3333333333333" type="curve" smooth="yes"/>
      <point x="786.8000000000001" y="375.1866666666667"/>
      <point x="608.1600000000001" y="788.1733333333332"/>
      <point x="466.66666666666663" y="1146.72" type="curve"/>
      <point x="503.02666666666664" y="1158.3333333333333" type="line"/>
    </contour>
  </outline>
</glyph>
<glyph name="O" format="2">
  <advance width="1440.1200000000001"/>
  <unicode hex="004F"/>
  <anchor x="1018.64" y="1546.0" name="center"/>
  <outline>
    <contour>
      <point x="989.2400000000001" y="1422.9333333333332" type="curve" smooth="yes"/>
      <point x="642.8133333333333" y="1430.6133333333332"/>
      <point x="301.8666666666667" y="1147.0933333333332"/>
      <point x="188.20000000000002" y="741.7066666666667" type="curve" smooth="yes"/>
      <point x="59.599999999999994" y="282.21333333333337"/>
      <point x="265.8666666666667" y="-14.880000000000004"/>
      <point x="582.4799999999999" y="-22.77333333333333" type="curve" smooth="yes"/>
      <point x="941.9999999999999" y="-32.05333333333334"/>
      <point x="1279.0266666666666" y="231.17333333333335"/>
      <point x="1391.7733333333333" y="679.9466666666665" type="curve" smooth="yes"/>
      <point x="1501.1333333333332" y="1116.16"/>
      <point x="1305.5866666666668" y="1415.2533333333333"/>
    </contour>
    <contour>
      <point x="601.5066666666667" y="14.186666666666675" type="curve" smooth="yes"/>
      <point x="414.87999999999994" y="19.09333333333332"/>
      <point x="290.0799999999999" y="154.11999999999998"/>
      <point x="292.5733333333334" y="417.61333333333334" type="curve" smooth="yes"/>
      <point x="293.0933333333333" y="503.61333333333334"/>
      <point x="307.3333333333332" y="607.1466666666668"/>
      <point x="338.48" y="732.7733333333332" type="curve" smooth="yes"/>
      <point x="438.8133333333332" y="1139.8133333333333"/>
      <point x="710.9599999999999" y="1394.24"/>
      <point x="974.0000000000001" y="1385.9199999999998" type="curve" smooth="yes"/>
      <point x="1146.4399999999998" y="1380.2666666666667"/>
      <point x="1284.4933333333336" y="1242.0799999999997"/>
      <point x="1285.4133333333336" y="986.2266666666667" type="curve" smooth="yes"/>
      <point x="1286.2666666666664" y="901.6533333333333"/>
      <point x="1271.6399999999999" y="800.8533333333334"/>
      <point x="1239.6533333333336" y="682.24" type="curve" smooth="yes"/>
      <point x="1108.36" y="208.48"/>
      <point x="852.44" y="7.359999999999978"/>
    </contour>
  </outline>
</glyph>
<glyph name="P" format="2">
  <advance width="1197.7333333333333"/>
  <unicode hex="0050"/>
  <outline>
    <contour>
      <point x="1256.0533333333335" y="936.1466666666666" type="curve" smooth="yes"/>
      <point x="1299.4666666666667" y="1211.6933333333336"/>
      <point x="1112.5066666666667" y="1400.0"/>
      <point x="805.1333333333332" y="1400.0" type="curve" smooth="yes"/>
      <point x="392.94666666666666" y="1400.0" type="line" smooth="yes"/>
      <point x="370.93333333333334" y="1400.0"/>
      <point x="359.2133333333333" y="1394.7066666666667"/>
      <point x="359.2133333333333" y="1381.5466666666664" type="curve" smooth="yes"/>
      <point x="359.2133333333333" y="1371.7466666666664"/>
      <point x="365.64" y="1365.88"/>
      <point x="385.12" y="1362.2666666666667" type="curve" smooth="yes"/>
      <point x="469.09333333333325" y="1348.9600000000003" type="line" smooth="yes"/>
      <point x="498.4399999999999" y="1344.1066666666666"/>
      <point x="508.09333333333325" y="1324.4"/>
      <point x="502.09333333333325" y="1291.986666666667" type="curve" smooth="yes"/>
      <point x="478.25333333333344" y="1181.0533333333333"/>
      <point x="214.90666666666667" y="193.30666666666667"/>
      <point x="183.94666666666672" y="109.38666666666667" type="curve" smooth="yes"/>
      <point x="169.06666666666666" y="67.81333333333333"/>
      <point x="152.05333333333334" y="52.759999999999984"/>
      <point x="108.64000000000001" y="47.68000000000003" type="curve" smooth="yes"/>
      <point x="33.906666666666666" y="38.06666666666666" type="line" smooth="yes"/>
      <point x="14.079999999999998" y="35.466666666666654"/>
      <point x="4.106666666666669" y="28.213333333333324"/>
      <point x="4.106666666666674" y="16.760000000000012" type="curve" smooth="yes"/>
      <point x="4.106666666666669" y="5.626666666666669"/>
      <point x="12.159999999999997" y="0.0"/>
      <point x="28.90666666666667" y="0.0" type="curve" smooth="yes"/>
      <point x="450.08000000000004" y="0.0" type="line" smooth="yes"/>
      <point x="469.40000000000003" y="0.0"/>
      <point x="479.6266666666667" y="7.373333333333337"/>
      <point x="479.6266666666667" y="19.06666666666667" type="curve" smooth="yes"/>
      <point x="479.6266666666667" y="28.066666666666656"/>
      <point x="471.8666666666666" y="34.25333333333336"/>
      <point x="455.17333333333335" y="36.85333333333334" type="curve" smooth="yes"/>
      <point x="357.70666666666665" y="48.46666666666666" type="line" smooth="yes"/>
      <point x="329.65333333333325" y="51.746666666666684"/>
      <point x="317.9466666666666" y="73.25333333333333"/>
      <point x="328.08000000000004" y="114.13333333333331" type="curve" smooth="yes"/>
      <point x="348.4" y="197.43999999999994"/>
      <point x="617.7199999999998" y="1209.6799999999998"/>
      <point x="639.5999999999998" y="1285.28" type="curve" smooth="yes"/>
      <point x="657.36" y="1341.8666666666666"/>
      <point x="700.9333333333334" y="1366.2399999999998"/>
      <point x="781.1866666666667" y="1366.2399999999998" type="curve" smooth="yes"/>
      <point x="1020.9600000000002" y="1366.2399999999998"/>
      <point x="1160.12" y="1229.4133333333336"/>
      <point x="1118.2533333333336" y="946.1466666666666" type="curve" smooth="yes"/>
      <point x="1077.0266666666666" y="664.9733333333331"/>
      <point x="915.8266666666668" y="530.92"/>
      <point x="671.8799999999999" y="530.92" type="curve" smooth="yes"/>
      <point x="578.8" y="530.92"/>
      <point x="501.01333333333326" y="551.3066666666666"/>
      <point x="420.0666666666666" y="596.9066666666665" type="curve"/>
      <point x="401.31999999999994" y="566.1999999999999" type="line"/>
      <point x="488.13333333333327" y="518.2933333333334"/>
      <point x="565.0" y="494.98666666666657"/>
      <point x="690.1733333333333" y="494.98666666666657" type="curve" smooth="yes"/>
      <point x="991.6399999999999" y="494.98666666666657"/>
      <point x="1214.1866666666667" y="664.3866666666668"/>
    </contour>
  </outline>
</glyph>
<glyph name="Q" format="2">
  <advance width="1441.9866666666667"/>
  <unicode hex="0051"/>
  <outline>
    <contour>
      <point x="662.0533333333334" y="348.6666666666667" type="curve" smooth="yes"/>
      <point x="540.5866666666667" y="-87.66666666666666"/>
      <point x="671.0933333333334" y="-307.4266666666667"/>
      <point x="918.8133333333333" y="-319.5866666666667" type="curve" smooth="yes"/>
      <point x="986.5066666666669" y="-324.90666666666664"/>
      <point x="1016.0933333333334" y="-313.1466666666667"/>
      <point x="1032.2933333333333" y="-290.8933333333333" type="curve" smooth="yes"/>
      <point x="1093.2133333333331" y="-206.79999999999998" type="line" smooth="yes"/>
      <point x="1099.7199999999998" y="-197.53333333333333"/>
      <point x="1095.9466666666665" y="-188.35999999999999"/>
      <point x="1089.64" y="-186.08" type="curve" smooth="yes"/>
      <point x="1075.3600000000001" y="-179.09333333333333"/>
      <point x="1028.12" y="-228.18666666666667"/>
      <point x="890.9733333333332" y="-211.58666666666667" type="curve" smooth="yes"/>
      <point x="705.3466666666668" y="-189.97333333333336"/>
      <point x="587.5333333333333" y="-57.626666666666665"/>
      <point x="694.2800000000001" y="343.08" type="curve" smooth="yes"/>
      <point x="698.6266666666667" y="358.7866666666667"/>
      <point x="696.7600000000001" y="367.49333333333334"/>
      <point x="684.7466666666668" y="369.5466666666666" type="curve" smooth="yes"/>
      <point x="671.2933333333333" y="371.92"/>
      <point x="665.6000000000001" y="360.64"/>
    </contour>
    <contour>
      <point x="989.24" y="1422.9333333333332" type="curve" smooth="yes"/>
      <point x="642.8133333333333" y="1430.6133333333332"/>
      <point x="301.8666666666667" y="1147.0933333333332"/>
      <point x="188.20000000000002" y="741.7066666666667" type="curve" smooth="yes"/>
      <point x="59.60000000000001" y="282.2133333333333"/>
      <point x="265.8666666666667" y="-14.879999999999999"/>
      <point x="582.48" y="-22.773333333333333" type="curve" smooth="yes"/>
      <point x="942.0000000000001" y="-32.05333333333333"/>
      <point x="1279.0266666666664" y="231.17333333333337"/>
      <point x="1391.773333333333" y="679.9466666666666" type="curve" smooth="yes"/>
      <point x="1501.133333333333" y="1116.16"/>
      <point x="1305.5866666666664" y="1415.2533333333333"/>
    </contour>
    <contour>
      <point x="601.5066666666665" y="14.18666666666666" type="curve" smooth="yes"/>
      <point x="414.88" y="19.09333333333332"/>
      <point x="290.0799999999999" y="154.12"/>
      <point x="292.5733333333334" y="417.61333333333334" type="curve" smooth="yes"/>
      <point x="293.09333333333336" y="503.6133333333333"/>
      <point x="307.3333333333333" y="607.1466666666666"/>
      <point x="338.47999999999996" y="732.7733333333332" type="curve" smooth="yes"/>
      <point x="438.8133333333332" y="1139.8133333333335"/>
      <point x="710.96" y="1394.2399999999998"/>
      <point x="974.0000000000001" y="1385.9199999999998" type="curve" smooth="yes"/>
      <point x="1146.4399999999998" y="1380.2666666666664"/>
      <point x="1284.4933333333336" y="1242.0800000000004"/>
      <point x="1285.4133333333334" y="986.2266666666662" type="curve" smooth="yes"/>
      <point x="1286.2666666666664" y="901.6533333333333"/>
      <point x="1271.6399999999999" y="800.8533333333334"/>
      <point x="1239.6533333333336" y="682.24" type="curve" smooth="yes"/>
      <point x="1108.36" y="208.48000000000002"/>
      <point x="852.4399999999999" y="7.3600000000000065"/>
    </contour>
  </outline>
</glyph>
<glyph name="R" format="2">
  <advance width="1240.3733333333332"/>
  <unicode hex="0052"/>
  <anchor x="883.0533333333334" y="1485.0" name="center"/>
  <outline>
    <contour>
      <point x="399.8666666666668" y="618.8" type="line"/>
      <point x="462.96" y="580.2933333333334"/>
      <point x="551.0666666666667" y="552.5333333333333"/>
      <point x="662.1866666666666" y="553.7066666666667" type="curve" smooth="yes"/>
      <point x="978.8266666666666" y="555.9466666666667"/>
      <point x="1191.36" y="722.7866666666667"/>
      <point x="1234.8133333333335" y="949.9599999999999" type="curve" smooth="yes"/>
      <point x="1289.4666666666665" y="1231.1466666666665"/>
      <point x="1107.5066666666664" y="1400.0"/>
      <point x="814.0933333333334" y="1400.0" type="curve" smooth="yes"/>
      <point x="386.49333333333334" y="1400.0" type="line" smooth="yes"/>
      <point x="369.01333333333343" y="1400.0"/>
      <point x="358.3066666666666" y="1393.1066666666668"/>
      <point x="358.30666666666673" y="1381.6533333333334" type="curve" smooth="yes"/>
      <point x="358.3066666666666" y="1372.2266666666667"/>
      <point x="362.81333333333333" y="1366.2"/>
      <point x="382.4" y="1362.2666666666667" type="curve" smooth="yes"/>
      <point x="470.15999999999997" y="1348.8533333333332" type="line" smooth="yes"/>
      <point x="498.6533333333334" y="1343.2533333333333"/>
      <point x="508.09333333333336" y="1328.6133333333332"/>
      <point x="501.56" y="1295.1866666666665" type="curve" smooth="yes"/>
      <point x="448.3866666666667" y="1047.7733333333333"/>
      <point x="250.26666666666665" y="350.64"/>
      <point x="183.89333333333332" y="109.6" type="curve" smooth="yes"/>
      <point x="170.02666666666667" y="70.26666666666665"/>
      <point x="149.28" y="52.28000000000001"/>
      <point x="112.58666666666666" y="48.05333333333335" type="curve" smooth="yes"/>
      <point x="33.586666666666666" y="38.06666666666666" type="line" smooth="yes"/>
      <point x="14.080000000000002" y="35.83999999999999"/>
      <point x="3.893333333333331" y="29.06666666666666"/>
      <point x="3.893333333333337" y="16.653333333333336" type="curve" smooth="yes"/>
      <point x="3.893333333333337" y="6.373333333333333"/>
      <point x="10.559999999999999" y="0.0"/>
      <point x="27.413333333333334" y="0.0" type="curve" smooth="yes"/>
      <point x="439.03999999999996" y="0.0" type="line" smooth="yes"/>
      <point x="456.59999999999997" y="0.0"/>
      <point x="466.9866666666667" y="6.786666666666669"/>
      <point x="466.9866666666667" y="18.333333333333343" type="curve" smooth="yes"/>
      <point x="466.9866666666667" y="28.399999999999988"/>
      <point x="458.73333333333335" y="33.90666666666666"/>
      <point x="443.12" y="37.29333333333336" type="curve" smooth="yes"/>
      <point x="352.7333333333333" y="49.0" type="line" smooth="yes"/>
      <point x="328.25333333333333" y="53.10666666666666"/>
      <point x="315.81333333333333" y="75.94666666666667"/>
      <point x="324.77333333333326" y="111.14666666666668" type="curve" smooth="yes"/>
      <point x="377.62666666666667" y="353.8133333333333"/>
      <point x="574.2533333333333" y="1039.7066666666667"/>
      <point x="637.8933333333332" y="1285.76" type="curve" smooth="yes"/>
      <point x="655.0133333333332" y="1344.16"/>
      <point x="696.4" y="1366.8266666666666"/>
      <point x="793.0266666666668" y="1366.8266666666666" type="curve" smooth="yes"/>
      <point x="1024.9066666666665" y="1366.8266666666666"/>
      <point x="1157.3066666666666" y="1229.4133333333332"/>
      <point x="1103.9466666666667" y="964.44" type="curve" smooth="yes"/>
      <point x="1059.3200000000002" y="739.16"/>
      <point x="906.1733333333335" y="588.68"/>
      <point x="647.0666666666665" y="588.68" type="curve" smooth="yes"/>
      <point x="557.5733333333334" y="588.68"/>
      <point x="482.38666666666666" y="613.9333333333333"/>
      <point x="425.8133333333333" y="646.1466666666668" type="curve"/>
    </contour>
    <contour>
      <point x="686.4266666666667" y="564.72" type="line"/>
      <point x="795.8533333333334" y="191.81333333333333" type="line" smooth="yes"/>
      <point x="843.5999999999998" y="25.12"/>
      <point x="892.2266666666667" y="-21.573333333333334"/>
      <point x="965.4533333333334" y="-21.573333333333334" type="curve" smooth="yes"/>
      <point x="1044.9199999999998" y="-21.573333333333334"/>
      <point x="1111.3733333333332" y="25.39999999999999"/>
      <point x="1133.533333333333" y="81.68000000000002" type="curve" smooth="yes"/>
      <point x="1139.2533333333333" y="92.47999999999998"/>
      <point x="1136.5733333333335" y="103.09333333333333"/>
      <point x="1127.773333333333" y="106.16" type="curve" smooth="yes"/>
      <point x="1120.4666666666667" y="108.80000000000001"/>
      <point x="1110.9199999999998" y="105.21333333333332"/>
      <point x="1104.9599999999998" y="97.21333333333334" type="curve" smooth="yes"/>
      <point x="1087.253333333333" y="70.06666666666666"/>
      <point x="1068.16" y="57.70666666666662"/>
      <point x="1042.1200000000003" y="57.70666666666662" type="curve" smooth="yes"/>
      <point x="1000.6933333333334" y="57.70666666666662"/>
      <point x="969.6266666666666" y="85.70666666666665"/>
      <point x="928.7199999999999" y="220.53333333333333" type="curve" smooth="yes"/>
      <point x="811.4933333333333" y="583.8133333333333" type="line"/>
    </contour>
  </outline>
</glyph>
<glyph name="S" format="2">
  <advance width="1061.6533333333332"/>
  <unicode hex="0053"/>
  <anchor x="829.7600000000001" y="1528.0" name="center"/>
  <outline>
    <contour>
      <point x="477.97333333333336" y="-20.64" type="curve" smooth="yes"/>
      <point x="701.72" y="-20.64"/>
      <point x="881.4266666666666" y="115.25333333333333"/>
      <point x="899.4133333333334" y="337.2133333333333" type="curve" smooth="yes"/>
      <point x="912.64" y="473.4"/>
      <point x="860.3866666666669" y="582.1733333333333"/>
      <point x="666.9066666666668" y="726.9866666666667" type="curve" smooth="yes"/>
      <point x="496.29333333333324" y="859.6133333333332"/>
      <point x="432.72" y="958.6533333333333"/>
      <point x="446.64" y="1092.9600000000003" type="curve" smooth="yes"/>
      <point x="459.8266666666667" y="1252.2400000000002"/>
      <point x="591.6266666666667" y="1386.2400000000005"/>
      <point x="793.0266666666666" y="1386.2400000000005" type="curve" smooth="yes"/>
      <point x="918.68" y="1386.2400000000005"/>
      <point x="1002.32" y="1322.7066666666667"/>
      <point x="1032.7333333333336" y="1184.52" type="curve" smooth="yes"/>
      <point x="1047.4266666666667" y="1114.7466666666667" type="line" smooth="yes"/>
      <point x="1057.1866666666665" y="1076.4133333333334"/>
      <point x="1075.4799999999998" y="1057.0533333333333"/>
      <point x="1105.6133333333335" y="1057.0533333333333" type="curve" smooth="yes"/>
      <point x="1141.2933333333333" y="1057.0533333333333"/>
      <point x="1165.253333333333" y="1089.133333333333"/>
      <point x="1166.8133333333335" y="1140.5066666666667" type="curve" smooth="yes"/>
      <point x="1170.76" y="1285.6399999999999"/>
      <point x="1042.8400000000001" y="1421.5466666666666"/>
      <point x="802.7333333333333" y="1421.5466666666666" type="curve" smooth="yes"/>
      <point x="514.7733333333334" y="1421.5466666666666"/>
      <point x="338.14666666666665" y="1224.293333333333"/>
      <point x="321.8266666666667" y="1026.0666666666668" type="curve" smooth="yes"/>
      <point x="307.17333333333335" y="870.7733333333333"/>
      <point x="381.3333333333333" y="762.0400000000001"/>
      <point x="568.4133333333333" y="624.9866666666667" type="curve" smooth="yes"/>
      <point x="734.4933333333333" y="504.0533333333333"/>
      <point x="783.2399999999999" y="408.8666666666666"/>
      <point x="767.3600000000001" y="285.8666666666667" type="curve" smooth="yes"/>
      <point x="751.232774736594" y="132.51614066182105"/>
      <point x="629.8266666666666" y="18.239999999999995"/>
      <point x="455.46666666666664" y="18.239999999999995" type="curve" smooth="yes"/>
      <point x="294.92" y="18.239999999999995"/>
      <point x="179.12915661495703" y="108.89297604402691"/>
      <point x="162.25333333333333" y="293.22666666666663" type="curve" smooth="yes"/>
      <point x="150.95999999999998" y="378.02666666666676" type="line" smooth="yes"/>
      <point x="147.85333333333335" y="394.6933333333334"/>
      <point x="139.66666666666669" y="404.3333333333332"/>
      <point x="127.58666666666666" y="404.3333333333332" type="curve" smooth="yes"/>
      <point x="115.52" y="404.3333333333332"/>
      <point x="107.22666666666667" y="394.91999999999996"/>
      <point x="104.77333333333331" y="377.0" type="curve" smooth="yes"/>
      <point x="55.82666666666667" y="20.026666666666674" type="line" smooth="yes"/>
      <point x="53.413333333333334" y="1.7333333333333312"/>
      <point x="61.58666666666667" y="-7.4666666666666694"/>
      <point x="77.58666666666669" y="-7.4666666666666694" type="curve" smooth="yes"/>
      <point x="101.05138211382113" y="-7.4666666666666694"/>
      <point x="151.98666666666665" y="96.46666666666665"/>
      <point x="175.30666666666664" y="96.46666666666665" type="curve" smooth="yes"/>
      <point x="200.67999999999998" y="96.46666666666665"/>
      <point x="255.64501061571124" y="-20.64"/>
    </contour>
  </outline>
</glyph>
<glyph name="T" format="2">
  <advance width="1049.8933333333332"/>
  <unicode hex="0054"/>
  <anchor x="397.1599999999999" y="1516.0" name="center"/>
  <outline>
    <contour>
      <point x="510.2533333333334" y="1424.28" type="curve" smooth="yes"/>
      <point x="337.8" y="1424.28"/>
      <point x="246.87999999999997" y="1348.36"/>
      <point x="235.13333333333335" y="1237.0533333333335" type="curve" smooth="yes"/>
      <point x="223.16" y="1159.5200000000002"/>
      <point x="255.68000000000004" y="1107.4133333333334"/>
      <point x="304.5066666666666" y="1105.4933333333333" type="curve" smooth="yes"/>
      <point x="345.03999999999996" y="1104.3200000000002"/>
      <point x="371.1333333333334" y="1131.7066666666667"/>
      <point x="372.4533333333334" y="1164.9866666666667" type="curve" smooth="yes"/>
      <point x="374.56" y="1208.6399999999999"/>
      <point x="331.44" y="1235.1200000000001"/>
      <point x="341.56" y="1295.44" type="curve" smooth="yes"/>
      <point x="347.46666666666675" y="1351.1866666666667"/>
      <point x="396.46666666666664" y="1389.946666666667"/>
      <point x="514.1066666666666" y="1389.946666666667" type="curve" smooth="yes"/>
      <point x="652.6139509536785" y="1389.946666666667"/>
      <point x="1003.0497966401416" y="1279.7733333333333"/>
      <point x="1136.96" y="1279.7733333333333" type="curve" smooth="yes"/>
      <point x="1242.7333333333333" y="1279.7733333333333"/>
      <point x="1320.2666666666667" y="1343.4266666666665"/>
      <point x="1321.613333333333" y="1437.506666666667" type="curve" smooth="yes"/>
      <point x="1322.1866666666667" y="1486.9866666666665"/>
      <point x="1298.0933333333335" y="1511.7866666666666"/>
      <point x="1265.0266666666666" y="1511.7866666666666" type="curve" smooth="yes"/>
      <point x="1228.1333333333332" y="1511.7866666666666"/>
      <point x="1206.0133333333333" y="1489.0400000000002"/>
      <point x="1199.6266666666668" y="1453.4133333333334" type="curve" smooth="yes"/>
      <point x="1195.3200000000002" y="1425.8400000000001"/>
      <point x="1199.1066666666666" y="1396.16"/>
      <point x="1191.7066666666665" y="1371.8000000000002" type="curve" smooth="yes"/>
      <point x="1181.6266666666666" y="1339.2266666666665"/>
      <point x="1152.9733333333336" y="1323.3199999999997"/>
      <point x="1098.3066666666666" y="1323.3199999999997" type="curve" smooth="yes"/>
      <point x="1006.2086319845855" y="1323.3199999999997"/>
      <point x="656.0766666666666" y="1424.28"/>
    </contour>
    <contour>
      <point x="522.2933333333333" y="101.94666666666663" type="curve" smooth="yes"/>
      <point x="587.4" y="336.70666666666665"/>
      <point x="787.4266666666666" y="1060.3466666666668"/>
      <point x="873.5333333333334" y="1351.1066666666666" type="curve"/>
      <point x="742.2533333333333" y="1376.8400000000001" type="line"/>
      <point x="662.8" y="1089.0"/>
      <point x="461.29503206812984" y="363.6444118162403"/>
      <point x="383.55999999999995" y="106.82666666666668" type="curve" smooth="yes"/>
      <point x="372.0666666666666" y="70.33333333333334"/>
      <point x="354.9733333333333" y="55.05333333333333"/>
      <point x="323.1466666666666" y="50.82666666666668" type="curve" smooth="yes"/>
      <point x="232.2" y="38.493333333333325" type="line" smooth="yes"/>
      <point x="213.97333333333333" y="35.41333333333331"/>
      <point x="202.5066666666667" y="29.69333333333332"/>
      <point x="201.65333333333334" y="17.28" type="curve" smooth="yes"/>
      <point x="200.79999999999998" y="7.106666666666661"/>
      <point x="209.7066666666667" y="0.0"/>
      <point x="227.30666666666664" y="0.0" type="curve" smooth="yes"/>
      <point x="639.0399999999998" y="0.0" type="line" smooth="yes"/>
      <point x="658.8399999999999" y="0.0"/>
      <point x="669.6533333333334" y="5.49333333333333"/>
      <point x="671.7866666666667" y="17.8" type="curve" smooth="yes"/>
      <point x="673.9200000000001" y="27.759999999999987"/>
      <point x="665.2666666666668" y="33.359999999999985"/>
      <point x="651.9733333333332" y="36.12000000000002" type="curve" smooth="yes"/>
      <point x="554.2266666666667" y="49.000000000000014" type="line" smooth="yes"/>
      <point x="525.1733333333333" y="53.10666666666666"/>
      <point x="512.9066666666666" y="68.16"/>
    </contour>
  </outline>
</glyph>
<glyph name="U" format="2">
  <advance width="1294.5333333333333"/>
  <unicode hex="0055"/>
  <anchor x="981.2800000000003" y="1479.0" name="center"/>
  <outline>
    <contour>
      <point x="1008.7866666666666" y="395.57333333333327" type="line" smooth="yes"/>
      <point x="933.0133333333333" y="138.79999999999998"/>
      <point x="792.4666666666666" y="27.6"/>
      <point x="610.7066666666667" y="27.6" type="curve" smooth="yes"/>
      <point x="445.7066666666667" y="27.6"/>
      <point x="342.9333333333332" y="112.89333333333332"/>
      <point x="345.3866666666667" y="280.1066666666667" type="curve" smooth="yes"/>
      <point x="346.61333333333323" y="355.2933333333333"/>
      <point x="370.08" y="463.62666666666667"/>
      <point x="416.8933333333333" y="637.2533333333333" type="curve" smooth="yes"/>
      <point x="604.9466666666667" y="1289.4666666666665" type="line" smooth="yes"/>
      <point x="615.8933333333334" y="1327.0"/>
      <point x="631.9333333333333" y="1340.0533333333333"/>
      <point x="659.2133333333333" y="1345.333333333333" type="curve" smooth="yes"/>
      <point x="753.4133333333333" y="1362.7866666666666" type="line" smooth="yes"/>
      <point x="778.1866666666666" y="1368.1066666666668"/>
      <point x="786.8933333333332" y="1375.5066666666667"/>
      <point x="786.9999999999999" y="1385.5866666666668" type="curve" smooth="yes"/>
      <point x="786.9999999999999" y="1394.3733333333334"/>
      <point x="779.3733333333334" y="1400.0"/>
      <point x="763.16" y="1400.0" type="curve" smooth="yes"/>
      <point x="356.44" y="1400.0" type="line" smooth="yes"/>
      <point x="336.5066666666666" y="1400.0"/>
      <point x="324.9466666666667" y="1392.8933333333334"/>
      <point x="324.84000000000003" y="1383.04" type="curve" smooth="yes"/>
      <point x="324.73333333333335" y="1372.04"/>
      <point x="330.80000000000007" y="1366.7333333333331"/>
      <point x="352.3466666666667" y="1361.5199999999998" type="curve" smooth="yes"/>
      <point x="437.8666666666667" y="1347.8933333333334" type="line" smooth="yes"/>
      <point x="464.16" y="1343.0400000000002"/>
      <point x="476.0933333333332" y="1322.5333333333338"/>
      <point x="467.54666666666657" y="1294.9333333333334" type="curve" smooth="yes"/>
      <point x="278.2" y="639.5733333333334" type="line" smooth="yes"/>
      <point x="243.46666666666664" y="516.2266666666667"/>
      <point x="205.49333333333334" y="357.4533333333333"/>
      <point x="204.64000000000001" y="287.47999999999996" type="curve" smooth="yes"/>
      <point x="202.18666666666667" y="107.94666666666666"/>
      <point x="314.68" y="-23.199999999999996"/>
      <point x="548.3333333333333" y="-23.199999999999996" type="curve"/>
      <point x="814.1733333333333" y="-23.199999999999996"/>
      <point x="971.0666666666666" y="112.26666666666667"/>
      <point x="1055.4133333333332" y="395.84" type="curve" smooth="yes"/>
      <point x="1297.9466666666667" y="1204.3866666666663" type="line" smooth="yes"/>
      <point x="1325.3866666666663" y="1299.7733333333335"/>
      <point x="1363.1866666666667" y="1335.9199999999998"/>
      <point x="1420.4933333333333" y="1349.1999999999998" type="curve" smooth="yes"/>
      <point x="1482.493333333333" y="1360.9733333333336" type="line" smooth="yes"/>
      <point x="1508.0133333333335" y="1367.12"/>
      <point x="1513.64" y="1372.9466666666667"/>
      <point x="1513.64" y="1384.7333333333333" type="curve" smooth="yes"/>
      <point x="1513.64" y="1393.3066666666668"/>
      <point x="1504.84" y="1400.0"/>
      <point x="1489.5866666666664" y="1400.0" type="curve" smooth="yes"/>
      <point x="1145.3199999999997" y="1400.0" type="line" smooth="yes"/>
      <point x="1125.8133333333335" y="1400.0"/>
      <point x="1114.6800000000003" y="1392.6800000000003"/>
      <point x="1114.6800000000003" y="1381.5466666666666" type="curve" smooth="yes"/>
      <point x="1114.5733333333337" y="1371.0666666666664"/>
      <point x="1123.2133333333334" y="1365.88"/>
      <point x="1145.28" y="1359.4933333333333" type="curve" smooth="yes"/>
      <point x="1196.586666666667" y="1350.4933333333336" type="line" smooth="yes"/>
      <point x="1258.2799999999997" y="1337.9066666666668"/>
      <point x="1275.7599999999998" y="1293.866666666667"/>
      <point x="1251.7066666666667" y="1207.7733333333335" type="curve" smooth="yes"/>
    </contour>
  </outline>
</glyph>
<glyph name="V" format="2">
  <advance width="1112.0399999999997"/>
  <unicode hex="0056"/>
  <outline>
    <contour>
      <point x="1017.9466666666665" y="1382.0799999999997" type="curve" smooth="yes"/>
      <point x="1017.9466666666665" y="1372.24"/>
      <point x="1027.2266666666667" y="1365.0666666666666"/>
      <point x="1043.8533333333335" y="1360.8799999999997" type="curve" smooth="yes"/>
      <point x="1099.533333333333" y="1350.3333333333335" type="line" smooth="yes"/>
      <point x="1158.3466666666666" y="1336.56"/>
      <point x="1187.5733333333335" y="1275.16"/>
      <point x="1136.5200000000002" y="1193.68" type="curve" smooth="yes"/>
      <point x="452.46666666666664" y="115.86666666666666" type="line"/>
      <point x="486.5066666666666" y="132.13333333333333" type="line"/>
      <point x="490.4133333333333" y="472.08"/>
      <point x="491.62666666666667" y="1015.1733333333334"/>
      <point x="496.82666666666665" y="1260.6933333333336" type="curve" smooth="yes"/>
      <point x="497.0799999999999" y="1305.4533333333334"/>
      <point x="508.93333333333334" y="1338.6000000000001"/>
      <point x="547.9333333333333" y="1345.1333333333334" type="curve" smooth="yes"/>
      <point x="650.9466666666667" y="1362.7866666666669" type="line" smooth="yes"/>
      <point x="667.6133333333331" y="1365.7466666666667"/>
      <point x="675.0400000000001" y="1373.3733333333334"/>
      <point x="675.0400000000001" y="1384.1999999999998" type="curve" smooth="yes"/>
      <point x="675.0400000000001" y="1393.5333333333335"/>
      <point x="667.8266666666666" y="1400.0"/>
      <point x="655.04" y="1400.0" type="curve" smooth="yes"/>
      <point x="260.21333333333337" y="1400.0" type="line" smooth="yes"/>
      <point x="246.15999999999997" y="1400.0"/>
      <point x="234.4" y="1392.56"/>
      <point x="234.4" y="1381.9733333333334" type="curve" smooth="yes"/>
      <point x="234.4" y="1372.1200000000003"/>
      <point x="239.0" y="1365.5999999999997"/>
      <point x="257.0" y="1361.7333333333333" type="curve" smooth="yes"/>
      <point x="320.66666666666663" y="1346.7333333333336" type="line" smooth="yes"/>
      <point x="351.58666666666664" y="1339.5066666666667"/>
      <point x="361.3333333333333" y="1316.64"/>
      <point x="361.30666666666673" y="1270.5066666666667" type="curve" smooth="yes"/>
      <point x="362.5066666666667" y="1027.1733333333332"/>
      <point x="359.93333333333334" y="297.2266666666667"/>
      <point x="354.0533333333333" y="185.06666666666663" type="curve" smooth="yes"/>
      <point x="353.5199999999999" y="158.24"/>
      <point x="354.0" y="140.32000000000002"/>
      <point x="344.2533333333333" y="113.4933333333333" type="curve" smooth="yes"/>
      <point x="323.5466666666667" y="44.719999999999985" type="line" smooth="yes"/>
      <point x="315.1866666666666" y="20.0"/>
      <point x="322.88" y="0.0"/>
      <point x="348.34666666666664" y="0.0" type="curve" smooth="yes"/>
      <point x="434.18666666666667" y="0.0" type="line" smooth="yes"/>
      <point x="458.5066666666666" y="0.0"/>
      <point x="472.5733333333334" y="13.466666666666667"/>
      <point x="479.81333333333345" y="36.853333333333325" type="curve" smooth="yes"/>
      <point x="497.21333333333337" y="100.10666666666665" type="line" smooth="yes"/>
      <point x="505.21333333333337" y="125.35999999999997"/>
      <point x="518.2399999999999" y="146.0533333333333"/>
      <point x="532.3866666666667" y="168.39999999999998" type="curve" smooth="yes"/>
      <point x="1185.7066666666665" y="1189.5466666666666" type="line" smooth="yes"/>
      <point x="1241.1733333333334" y="1278.5866666666668"/>
      <point x="1289.2666666666667" y="1333.8400000000001"/>
      <point x="1349.04" y="1352.2133333333334" type="curve" smooth="yes"/>
      <point x="1385.6266666666668" y="1361.9333333333332" type="line" smooth="yes"/>
      <point x="1404.8666666666666" y="1367.1600000000003"/>
      <point x="1411.8666666666666" y="1374.5466666666666"/>
      <point x="1411.8666666666666" y="1385.5866666666666" type="curve" smooth="yes"/>
      <point x="1411.8666666666666" y="1394.3733333333334"/>
      <point x="1403.3866666666665" y="1400.0"/>
      <point x="1386.4266666666665" y="1400.0" type="curve" smooth="yes"/>
      <point x="1042.8266666666668" y="1400.0" type="line" smooth="yes"/>
      <point x="1029.4" y="1400.0"/>
      <point x="1017.9466666666665" y="1392.8933333333334"/>
    </contour>
  </outline>
</glyph>
<glyph name="W" format="2">
  <advance width="1744.9333333333332"/>
  <unicode hex="0057"/>
  <anchor x="1177.5466666666669" y="1478.0" name="center"/>
  <outline>
    <contour>
      <point x="1071.2133333333334" y="1161.0266666666666" type="line"/>
      <point x="442.8" y="135.74666666666664" type="line"/>
      <point x="473.8133333333334" y="143.39999999999998" type="line"/>
      <point x="481.5066666666666" y="478.8133333333333"/>
      <point x="490.0000000000001" y="1065.1333333333334"/>
      <point x="494.64000000000004" y="1267.4400000000003" type="curve" smooth="yes"/>
      <point x="496.7733333333333" y="1317.0400000000002"/>
      <point x="512.84" y="1339.7333333333333"/>
      <point x="555.0799999999999" y="1346.6799999999996" type="curve" smooth="yes"/>
      <point x="641.4533333333333" y="1361.7733333333333" type="line" smooth="yes"/>
      <point x="663.0799999999998" y="1365.6933333333332"/>
      <point x="672.7466666666667" y="1372.7333333333331"/>
      <point x="672.7466666666666" y="1383.4533333333331" type="curve" smooth="yes"/>
      <point x="672.7466666666667" y="1394.6"/>
      <point x="665.8" y="1400.0"/>
      <point x="646.8266666666665" y="1400.0" type="curve" smooth="yes"/>
      <point x="262.50666666666666" y="1400.0" type="line" smooth="yes"/>
      <point x="244.8266666666667" y="1400.0"/>
      <point x="235.04000000000002" y="1394.32"/>
      <point x="235.04000000000002" y="1382.2399999999996" type="curve" smooth="yes"/>
      <point x="235.04000000000002" y="1372.28"/>
      <point x="243.3733333333333" y="1365.8133333333333"/>
      <point x="265.15999999999997" y="1361.0933333333332" type="curve" smooth="yes"/>
      <point x="314.8533333333334" y="1348.4399999999998" type="line" smooth="yes"/>
      <point x="348.76" y="1341.0533333333333"/>
      <point x="359.6933333333334" y="1320.6933333333332"/>
      <point x="360.0266666666667" y="1276.8" type="curve" smooth="yes"/>
      <point x="360.4266666666667" y="986.9466666666667"/>
      <point x="350.0266666666666" y="288.6266666666667"/>
      <point x="343.97333333333336" y="177.29333333333338" type="curve" smooth="yes"/>
      <point x="343.3866666666666" y="153.53333333333336"/>
      <point x="340.52" y="132.44000000000003"/>
      <point x="332.36" y="109.38666666666667" type="curve" smooth="yes"/>
      <point x="312.13333333333327" y="40.87999999999999" type="line" smooth="yes"/>
      <point x="302.76" y="15.199999999999996"/>
      <point x="315.36" y="0.0"/>
      <point x="344.24" y="0.0" type="curve" smooth="yes"/>
      <point x="411.6266666666666" y="0.0" type="line" smooth="yes"/>
      <point x="439.2" y="0.0"/>
      <point x="454.9199999999999" y="12.986666666666665"/>
      <point x="463.3866666666666" y="36.533333333333324" type="curve" smooth="yes"/>
      <point x="482.03999999999996" y="101.38666666666666" type="line" smooth="yes"/>
      <point x="491.08000000000004" y="133.17333333333335"/>
      <point x="500.9866666666668" y="152.65333333333336"/>
      <point x="520.2800000000001" y="181.35999999999999" type="curve" smooth="yes"/>
      <point x="1085.5866666666668" y="1115.4533333333334" type="line"/>
    </contour>
    <contour>
      <point x="1654.3466666666666" y="1381.7600000000002" type="curve" smooth="yes"/>
      <point x="1654.3466666666666" y="1372.6"/>
      <point x="1662.2" y="1366.4933333333333"/>
      <point x="1678.493333333333" y="1362.7466666666667" type="curve" smooth="yes"/>
      <point x="1741.8533333333335" y="1350.8133333333335" type="line" smooth="yes"/>
      <point x="1812.8133333333333" y="1335.1733333333336"/>
      <point x="1825.6266666666666" y="1283.4"/>
      <point x="1787.9199999999998" y="1218.9599999999998" type="curve" smooth="yes"/>
      <point x="1148.1333333333334" y="136.74666666666667" type="line"/>
      <point x="1179.293333333333" y="146.10666666666663" type="line"/>
      <point x="1175.1066666666668" y="310.0666666666666"/>
      <point x="1180.0933333333332" y="1110.8"/>
      <point x="1180.6000000000001" y="1261.0133333333335" type="curve" smooth="yes"/>
      <point x="1180.7466666666664" y="1318.32"/>
      <point x="1195.1333333333332" y="1338.48"/>
      <point x="1238.4266666666667" y="1346.36" type="curve" smooth="yes"/>
      <point x="1328.2133333333331" y="1362.4133333333334" type="line" smooth="yes"/>
      <point x="1344.4133333333334" y="1366.12"/>
      <point x="1355.3466666666666" y="1373.2666666666664"/>
      <point x="1355.3466666666666" y="1384.04" type="curve" smooth="yes"/>
      <point x="1355.3466666666666" y="1395.1200000000001"/>
      <point x="1348.0399999999997" y="1400.0"/>
      <point x="1332.52" y="1400.0" type="curve" smooth="yes"/>
      <point x="956.5866666666667" y="1400.0" type="line" smooth="yes"/>
      <point x="938.4266666666667" y="1400.0"/>
      <point x="927.2533333333334" y="1393.4666666666667"/>
      <point x="927.2533333333334" y="1381.5466666666664" type="curve" smooth="yes"/>
      <point x="927.2533333333334" y="1372.3333333333335"/>
      <point x="936.9733333333334" y="1365.2800000000002"/>
      <point x="948.84" y="1362.4799999999998" type="curve" smooth="yes"/>
      <point x="1003.7066666666667" y="1349.8266666666664" type="line" smooth="yes"/>
      <point x="1039.0266666666666" y="1342.2133333333336"/>
      <point x="1049.24" y="1320.4933333333333"/>
      <point x="1051.5333333333333" y="1273.6533333333334" type="curve" smooth="yes"/>
      <point x="1056.8133333333335" y="1100.3733333333332"/>
      <point x="1053.8533333333335" y="304.03999999999996"/>
      <point x="1051.1866666666667" y="185.9733333333333" type="curve" smooth="yes"/>
      <point x="1050.28" y="160.7733333333333"/>
      <point x="1049.3466666666666" y="137.42666666666668"/>
      <point x="1040.8133333333333" y="112.14666666666665" type="curve" smooth="yes"/>
      <point x="1019.6933333333333" y="45.06666666666666" type="line" smooth="yes"/>
      <point x="1009.1733333333335" y="16.093333333333334"/>
      <point x="1021.64" y="0.0"/>
      <point x="1045.5333333333333" y="0.0" type="curve" smooth="yes"/>
      <point x="1120.6266666666666" y="0.0" type="line" smooth="yes"/>
      <point x="1143.3066666666666" y="0.0"/>
      <point x="1160.0133333333333" y="11.359999999999996"/>
      <point x="1168.2933333333333" y="38.133333333333326" type="curve" smooth="yes"/>
      <point x="1186.28" y="99.59999999999997" type="line" smooth="yes"/>
      <point x="1196.0666666666664" y="131.82666666666665"/>
      <point x="1206.64" y="152.77333333333337"/>
      <point x="1218.6533333333334" y="171.54666666666662" type="curve" smooth="yes"/>
      <point x="1829.293333333333" y="1208.56" type="line" smooth="yes"/>
      <point x="1875.706666666667" y="1285.76"/>
      <point x="1924.3866666666672" y="1333.626666666667"/>
      <point x="1972.8" y="1351.1466666666665" type="curve" smooth="yes"/>
      <point x="1996.533333333333" y="1358.466666666667" type="line" smooth="yes"/>
      <point x="2025.6799999999998" y="1368.2266666666665"/>
      <point x="2038.0266666666669" y="1375.56"/>
      <point x="2038.0266666666664" y="1384.466666666667" type="curve" smooth="yes"/>
      <point x="2038.0266666666666" y="1394.5733333333335"/>
      <point x="2031.7066666666663" y="1400.0"/>
      <point x="2012.8000000000002" y="1400.0" type="curve" smooth="yes"/>
      <point x="1681.7866666666669" y="1400.0" type="line" smooth="yes"/>
      <point x="1665.4266666666667" y="1400.0"/>
      <point x="1654.3466666666666" y="1392.6800000000003"/>
    </contour>
  </outline>
</glyph>
<glyph name="X" format="2">
  <advance width="1190.9866666666667"/>
  <unicode hex="0058"/>
  <outline>
    <contour>
      <point x="631.4533333333334" y="725.4000000000001" type="line"/>
      <point x="228.57333333333332" y="195.22666666666663" type="line" smooth="yes"/>
      <point x="145.98666666666668" y="90.26666666666664"/>
      <point x="67.44" y="46.17333333333332"/>
      <point x="-21.213333333333345" y="38.093333333333334" type="curve" smooth="yes"/>
      <point x="-41.626666666666665" y="33.12000000000002"/>
      <point x="-50.266666666666666" y="28.66666666666665"/>
      <point x="-50.63999999999999" y="16.61333333333334" type="curve" smooth="yes"/>
      <point x="-50.63999999999999" y="6.853333333333331"/>
      <point x="-43.86666666666667" y="0.0"/>
      <point x="-27.44000000000002" y="0.0" type="curve" smooth="yes"/>
      <point x="323.14666666666665" y="0.0" type="line" smooth="yes"/>
      <point x="341.9066666666667" y="0.0"/>
      <point x="354.64" y="8.493333333333338"/>
      <point x="354.64" y="21.333333333333343" type="curve" smooth="yes"/>
      <point x="355.01333333333326" y="31.22666666666666"/>
      <point x="346.8" y="36.26666666666665"/>
      <point x="329.37333333333333" y="38.906666666666645" type="curve" smooth="yes"/>
      <point x="276.84" y="45.57333333333334" type="line" smooth="yes"/>
      <point x="209.74666666666667" y="55.186666666666675"/>
      <point x="204.7866666666667" y="89.05333333333336"/>
      <point x="270.74666666666667" y="178.61333333333337" type="curve" smooth="yes"/>
      <point x="652.6" y="693.7199999999998" type="line"/>
    </contour>
    <contour>
      <point x="568.1066666666667" y="1286.8" type="curve" smooth="yes"/>
      <point x="556.8666666666667" y="1324.6399999999999"/>
      <point x="570.0666666666667" y="1348.2933333333333"/>
      <point x="608.0933333333332" y="1354.0266666666669" type="curve" smooth="yes"/>
      <point x="674.3066666666667" y="1363.3866666666668" type="line" smooth="yes"/>
      <point x="691.8133333333332" y="1367.5866666666666"/>
      <point x="701.5466666666666" y="1373.9333333333334"/>
      <point x="701.5466666666666" y="1383.84" type="curve" smooth="yes"/>
      <point x="701.9733333333332" y="1393.9599999999998"/>
      <point x="693.9333333333333" y="1400.0"/>
      <point x="674.9066666666666" y="1400.0" type="curve" smooth="yes"/>
      <point x="320.49333333333345" y="1400.0" type="line" smooth="yes"/>
      <point x="303.28000000000003" y="1400.0"/>
      <point x="290.89333333333343" y="1394.1333333333334"/>
      <point x="290.46666666666675" y="1383.2" type="curve" smooth="yes"/>
      <point x="290.46666666666675" y="1373.56"/>
      <point x="297.79999999999995" y="1366.9999999999998"/>
      <point x="320.73333333333335" y="1362.4533333333331" type="curve" smooth="yes"/>
      <point x="382.94666666666666" y="1354.0133333333333"/>
      <point x="403.68000000000006" y="1338.9866666666667"/>
      <point x="421.5466666666666" y="1289.8666666666668" type="curve" smooth="yes"/>
      <point x="482.59999999999997" y="1121.8133333333333"/>
      <point x="769.2666666666667" y="247.46666666666673"/>
      <point x="807.72" y="128.95999999999995" type="curve" smooth="yes"/>
      <point x="822.3733333333333" y="81.87999999999995"/>
      <point x="813.3999999999999" y="55.906666666666666"/>
      <point x="770.9466666666666" y="48.253333333333345" type="curve" smooth="yes"/>
      <point x="706.0533333333334" y="37.88000000000001" type="line" smooth="yes"/>
      <point x="684.9466666666666" y="33.213333333333324"/>
      <point x="676.1066666666667" y="26.906666666666656"/>
      <point x="675.6800000000001" y="16.093333333333337" type="curve" smooth="yes"/>
      <point x="675.6800000000001" y="5.880000000000003"/>
      <point x="683.7733333333334" y="0.0"/>
      <point x="706.1866666666667" y="0.0" type="curve" smooth="yes"/>
      <point x="1066.6133333333335" y="0.0" type="line" smooth="yes"/>
      <point x="1085.013333333333" y="0.0"/>
      <point x="1097.28" y="7.373333333333337"/>
      <point x="1097.28" y="17.973333333333336" type="curve" smooth="yes"/>
      <point x="1097.28" y="26.813333333333322"/>
      <point x="1091.5199999999998" y="32.58666666666666"/>
      <point x="1071.4266666666667" y="36.253333333333366" type="curve" smooth="yes"/>
      <point x="997.4666666666665" y="47.58666666666669"/>
      <point x="971.0266666666668" y="64.81333333333333"/>
      <point x="952.0666666666667" y="120.56" type="curve" smooth="yes"/>
      <point x="892.7599999999999" y="275.4666666666667"/>
      <point x="611.3333333333333" y="1139.5600000000002"/>
    </contour>
    <contour>
      <point x="721.0933333333334" y="712.12" type="line"/>
      <point x="1042.5200000000002" y="1162.466666666667" type="line" smooth="yes"/>
      <point x="1112.96" y="1259.3066666666668"/>
      <point x="1167.28" y="1295.4533333333336"/>
      <point x="1220.72" y="1303.5733333333335" type="curve" smooth="yes"/>
      <point x="1256.6133333333335" y="1308.8533333333335"/>
      <point x="1281.5866666666668" y="1298.9199999999998"/>
      <point x="1320.226666666667" y="1299.7866666666666" type="curve" smooth="yes"/>
      <point x="1368.3600000000001" y="1301.92"/>
      <point x="1399.3466666666666" y="1327.4533333333334"/>
      <point x="1399.3466666666666" y="1364.5866666666666" type="curve" smooth="yes"/>
      <point x="1399.72" y="1397.0666666666668"/>
      <point x="1376.773333333333" y="1424.746666666667"/>
      <point x="1322.1999999999998" y="1424.746666666667" type="curve" smooth="yes"/>
      <point x="1230.56" y="1424.746666666667"/>
      <point x="1147.76" y="1367.5333333333333"/>
      <point x="1045.04" y="1232.6" type="curve" smooth="yes"/>
      <point x="693.6533333333332" y="737.6800000000001" type="line"/>
    </contour>
  </outline>
</glyph>
<glyph name="Y" format="2">
  <advance width="1065.8266666666668"/>
  <unicode hex="0059"/>
  <anchor x="828.48" y="1498.0" name="center"/>
  <outline>
    <contour>
      <point x="587.1466666666665" y="471.0666666666666" type="line"/>
      <point x="610.6666666666666" y="469.6" type="line"/>
      <point x="590.4933333333332" y="582.28"/>
      <point x="506.29333333333335" y="1234.8666666666666"/>
      <point x="489.21333333333337" y="1322.3199999999997" type="curve" smooth="yes"/>
      <point x="478.8933333333333" y="1375.1466666666668"/>
      <point x="452.2533333333333" y="1400.0"/>
      <point x="395.2933333333334" y="1400.0" type="curve" smooth="yes"/>
      <point x="250.84000000000003" y="1400.0" type="line" smooth="yes"/>
      <point x="234.05333333333334" y="1400.0"/>
      <point x="222.54666666666665" y="1392.6266666666666"/>
      <point x="222.97333333333336" y="1381.226666666667" type="curve" smooth="yes"/>
      <point x="223.40000000000003" y="1370.28"/>
      <point x="232.7866666666667" y="1363.4800000000002"/>
      <point x="252.06666666666666" y="1361.0533333333333" type="curve" smooth="yes"/>
      <point x="320.67999999999995" y="1355.2266666666667"/>
      <point x="351.62666666666667" y="1332.52"/>
      <point x="360.18666666666667" y="1285.7733333333335" type="curve" smooth="yes"/>
      <point x="374.84" y="1209.3733333333334"/>
      <point x="456.06666666666666" y="583.1466666666666"/>
      <point x="470.4533333333334" y="498.88" type="curve" smooth="yes"/>
      <point x="475.0" y="468.1600000000001"/>
      <point x="477.29333333333335" y="443.5066666666667"/>
      <point x="468.56" y="413.7733333333333" type="curve" smooth="yes"/>
      <point x="389.6" y="117.92000000000004" type="line" smooth="yes"/>
      <point x="377.94666666666666" y="77.84000000000002"/>
      <point x="351.76000000000005" y="52.95999999999999"/>
      <point x="304.1066666666666" y="47.36000000000001" type="curve" smooth="yes"/>
      <point x="229.48000000000002" y="38.81333333333335" type="line" smooth="yes"/>
      <point x="210.61333333333334" y="35.35999999999997"/>
      <point x="199.51999999999998" y="28.266666666666655"/>
      <point x="199.51999999999995" y="17.82666666666667" type="curve" smooth="yes"/>
      <point x="199.51999999999995" y="6.906666666666668"/>
      <point x="206.88000000000002" y="0.0"/>
      <point x="223.89333333333332" y="0.0" type="curve" smooth="yes"/>
      <point x="627.3599999999999" y="0.0" type="line" smooth="yes"/>
      <point x="650.4666666666666" y="0.0"/>
      <point x="663.7333333333331" y="6.466666666666668"/>
      <point x="663.7333333333332" y="19.666666666666675" type="curve" smooth="yes"/>
      <point x="663.7333333333332" y="28.400000000000002"/>
      <point x="657.0266666666666" y="34.01333333333335"/>
      <point x="637.0933333333334" y="38.20000000000001" type="curve" smooth="yes"/>
      <point x="565.6933333333334" y="47.186666666666696" type="line" smooth="yes"/>
      <point x="525.9866666666668" y="53.106666666666655"/>
      <point x="518.3733333333332" y="75.17333333333332"/>
      <point x="527.92" y="111.09333333333333" type="curve" smooth="yes"/>
      <point x="604.2133333333335" y="409.78666666666663" type="line" smooth="yes"/>
      <point x="610.72" y="432.48"/>
      <point x="618.2800000000001" y="450.26666666666677"/>
      <point x="635.4533333333331" y="476.77333333333337" type="curve" smooth="yes"/>
      <point x="1017.0799999999998" y="1124.2666666666667" type="line" smooth="yes"/>
      <point x="1084.1866666666667" y="1229.3733333333334"/>
      <point x="1146.4533333333334" y="1267.4666666666665"/>
      <point x="1216.6799999999998" y="1281.9866666666665" type="curve" smooth="yes"/>
      <point x="1290.9066666666668" y="1297.9866666666667"/>
      <point x="1327.6133333333332" y="1325.7600000000002"/>
      <point x="1327.9866666666665" y="1371.0666666666666" type="curve" smooth="yes"/>
      <point x="1328.3599999999997" y="1400.64"/>
      <point x="1305.7333333333333" y="1425.4933333333333"/>
      <point x="1258.5466666666669" y="1425.4933333333333" type="curve" smooth="yes"/>
      <point x="1183.6933333333336" y="1425.4933333333333"/>
      <point x="1115.4933333333333" y="1371.8933333333334"/>
      <point x="1011.9333333333334" y="1201.6133333333332" type="curve" smooth="yes"/>
    </contour>
  </outline>
</glyph>
<glyph name="Z" format="2">
  <advance width="1117.3866666666668"/>
  <unicode hex="005A"/>
  <anchor x="899.5733333333334" y="1504.0" name="center"/>
  <outline>
    <contour>
      <point x="682.92" y="0.0" type="line" smooth="yes"/>
      <point x="720.1733333333334" y="0.0"/>
      <point x="744.4000000000001" y="-21.6"/>
      <point x="777.9333333333334" y="-21.6" type="curve" smooth="yes"/>
      <point x="879.72" y="-21.6"/>
      <point x="1008.3866666666667" y="146.4933333333333"/>
      <point x="1013.4133333333333" y="318.13333333333327" type="curve" smooth="yes"/>
      <point x="1013.88" y="331.4266666666666"/>
      <point x="1008.8000000000002" y="340.6133333333333"/>
      <point x="996.92" y="340.6133333333333" type="curve" smooth="yes"/>
      <point x="986.2666666666667" y="340.9866666666667"/>
      <point x="980.0666666666664" y="334.31999999999994"/>
      <point x="970.7333333333333" y="316.9333333333334" type="curve" smooth="yes"/>
      <point x="866.3466666666668" y="83.24000000000001"/>
      <point x="751.5333333333332" y="34.82666666666667"/>
      <point x="635.2666666666668" y="34.82666666666667" type="curve" smooth="yes"/>
      <point x="143.15999999999997" y="34.82666666666667" type="line"/>
      <point x="158.61333333333334" y="24.039999999999978" type="line"/>
      <point x="297.9466666666667" y="177.6266666666667"/>
      <point x="1162.9466666666667" y="1222.1333333333332"/>
      <point x="1264.52" y="1340.9866666666665" type="curve" smooth="yes"/>
      <point x="1279.6666666666667" y="1356.8266666666666"/>
      <point x="1289.9199999999998" y="1368.16"/>
      <point x="1290.2933333333333" y="1379.6266666666668" type="curve" smooth="yes"/>
      <point x="1290.2933333333333" y="1393.7599999999998"/>
      <point x="1281.48" y="1399.5733333333333"/>
      <point x="1259.0000000000002" y="1399.5733333333333" type="curve" smooth="yes"/>
      <point x="624.7333333333332" y="1399.5733333333333" type="line" smooth="yes"/>
      <point x="568.88" y="1399.5733333333333"/>
      <point x="544.8133333333333" y="1430.2133333333334"/>
      <point x="514.1999999999999" y="1430.2133333333334" type="curve" smooth="yes"/>
      <point x="497.50666666666666" y="1430.2133333333334"/>
      <point x="486.5066666666667" y="1420.9866666666667"/>
      <point x="470.05333333333334" y="1396.4399999999998" type="curve" smooth="yes"/>
      <point x="342.40000000000003" y="1185.6799999999998" type="line" smooth="yes"/>
      <point x="326.8933333333334" y="1164.6933333333336"/>
      <point x="325.7466666666667" y="1150.6666666666665"/>
      <point x="339.64000000000004" y="1144.6266666666663" type="curve" smooth="yes"/>
      <point x="352.29333333333335" y="1138.533333333333"/>
      <point x="369.56" y="1145.3466666666666"/>
      <point x="384.36" y="1163.3600000000001" type="curve" smooth="yes"/>
      <point x="488.0133333333334" y="1303.28"/>
      <point x="579.2800000000001" y="1365.5466666666669"/>
      <point x="668.9866666666667" y="1365.5466666666669" type="curve" smooth="yes"/>
      <point x="1155.4133333333332" y="1365.5466666666669" type="line"/>
      <point x="1139.68" y="1381.1200000000001" type="line"/>
      <point x="1036.2000000000003" y="1275.1333333333332"/>
      <point x="157.74666666666667" y="198.8533333333333"/>
      <point x="23.986666666666665" y="61.626666666666665" type="curve" smooth="yes"/>
      <point x="10.893333333333324" y="48.09333333333333"/>
      <point x="1.7600000000000122" y="35.18666666666669"/>
      <point x="1.3866666666666667" y="21.99999999999999" type="curve" smooth="yes"/>
      <point x="1.3866666666666667" y="7.626666666666665"/>
      <point x="12.29333333333335" y="0.0"/>
      <point x="33.30666666666664" y="0.0" type="curve" smooth="yes"/>
    </contour>
  </outline>
</glyph>
